<?xml version="1.0" encoding="utf-8"?>
<!-- Generator: Adobe Illustrator 21.0.0, SVG Export Plug-In . SVG Version: 6.00 Build 0)  -->
<svg version="1.1" id="Layer_1" xmlns="http://www.w3.org/2000/svg" xmlns:xlink="http://www.w3.org/1999/xlink" x="0px" y="0px"
	 viewBox="0 0 247.7 46" style="enable-background:new 0 0 247.7 46;" xml:space="preserve">
<style type="text/css">
	.st0{display:none;}
	.st1{display:inline;}
	.st2{fill:url(#SVGID_1_);}
	.st3{fill:url(#SVGID_2_);}
	.st4{fill:url(#SVGID_3_);}
	.st5{fill:url(#SVGID_4_);}
	.st6{fill:url(#SVGID_5_);}
	.st7{fill:url(#SVGID_6_);}
	.st8{fill:url(#SVGID_7_);}
	.st9{fill:url(#SVGID_8_);}
	.st10{fill:url(#SVGID_9_);}
	.st11{fill:url(#SVGID_10_);}
	.st12{fill:url(#SVGID_11_);}
	.st13{fill:url(#I_than_1_);}
	.st14{fill:url(#SVGID_12_);}
	.st15{fill:url(#SVGID_13_);}
	.st16{fill:url(#SVGID_14_);}
	.st17{fill:url(#SVGID_15_);}
	.st18{fill:url(#B_1_);}
	.st19{fill:url(#SVGID_16_);}
</style>
<g>
	<g class="st0">
		<path class="st1" d="M23.7,3.1c11,0,19.9,8.9,19.9,19.9s-8.9,19.9-19.9,19.9S3.7,34,3.7,23S12.7,3.1,23.7,3.1 M23.7,0.3
			C11.1,0.3,1,10.5,1,23s10.1,22.7,22.7,22.7S46.3,35.5,46.3,23S36.2,0.3,23.7,0.3L23.7,0.3z"/>
	</g>
</g>
<g>
	<linearGradient id="SVGID_1_" gradientUnits="userSpaceOnUse" x1="165.5549" y1="28.609" x2="254.9226" y2="28.609">
		<stop  offset="0" style="stop-color:#25F6FF"/>
		<stop  offset="0.2213" style="stop-color:#35D9FF"/>
		<stop  offset="0.6977" style="stop-color:#5C90FF"/>
		<stop  offset="1" style="stop-color:#775FFF"/>
	</linearGradient>
	<path class="st2" d="M183.7,26c-0.2-1-0.7-1.8-1.4-2.3c-0.8-0.6-1.6-0.9-2.6-0.9c-0.9,0-1.6,0.2-2.3,0.5c-0.6,0.3-1.2,0.8-1.6,1.3
		c-0.4,0.5-0.7,1.2-0.9,1.9c-0.2,0.7-0.3,1.4-0.3,2.1c0,0.8,0.1,1.5,0.3,2.1c0.2,0.7,0.5,1.3,0.9,1.9c0.4,0.5,0.9,1,1.6,1.3
		c0.6,0.3,1.4,0.5,2.3,0.5c1.2,0,2.2-0.4,2.9-1.3s1.3-1.8,1.3-3h1.3c-0.2,1.6-0.8,2.9-1.7,3.9c-0.9,0.9-2.3,1.4-3.8,1.4
		c-1.3,0-2.5-0.3-3.4-0.9c-0.9-0.6-1.6-1.5-2.1-2.5c-0.4-1-0.7-2.1-0.7-3.4c0-0.9,0.1-1.8,0.4-2.6s0.6-1.6,1.2-2.2
		c0.5-0.6,1.2-1.2,1.9-1.6c0.8-0.4,1.7-0.6,2.7-0.6c1.3,0,2.5,0.4,3.5,1.2c1,0.8,1.6,1.8,1.8,3.1L183.7,26L183.7,26z"/>
	<linearGradient id="SVGID_2_" gradientUnits="userSpaceOnUse" x1="165.5549" y1="28.4211" x2="254.9226" y2="28.4211">
		<stop  offset="0" style="stop-color:#25F6FF"/>
		<stop  offset="0.2213" style="stop-color:#35D9FF"/>
		<stop  offset="0.6977" style="stop-color:#5C90FF"/>
		<stop  offset="1" style="stop-color:#775FFF"/>
	</linearGradient>
	<path class="st3" d="M186.7,28.5c0-0.9,0.1-1.8,0.4-2.6c0.3-0.8,0.6-1.6,1.2-2.2c0.5-0.6,1.2-1.2,1.9-1.6c0.8-0.4,1.7-0.6,2.7-0.6
		c1.3,0,2.5,0.3,3.4,0.9c0.9,0.6,1.6,1.5,2.1,2.5c0.4,1,0.7,2.1,0.7,3.4s-0.2,2.4-0.7,3.4c-0.4,1-1.2,1.9-2.1,2.5
		c-0.9,0.6-2.1,0.9-3.4,0.9c-1.3,0-2.5-0.3-3.4-0.9c-0.9-0.6-1.6-1.5-2.1-2.5C187,30.9,186.7,29.9,186.7,28.5z M188.4,26.4
		c-0.2,0.7-0.3,1.4-0.3,2.1c0,0.8,0.1,1.5,0.3,2.1c0.2,0.7,0.5,1.3,0.9,1.9c0.4,0.5,0.9,1,1.6,1.3c0.6,0.3,1.4,0.5,2.3,0.5
		c0.9,0,1.6-0.2,2.3-0.5c0.6-0.3,1.2-0.8,1.6-1.3c0.4-0.5,0.7-1.2,0.9-1.9c0.2-0.7,0.3-1.4,0.3-2.1c0-0.8-0.1-1.5-0.3-2.1
		c-0.2-0.7-0.5-1.3-0.9-1.9c-0.4-0.5-0.9-1-1.6-1.3c-0.6-0.3-1.4-0.5-2.3-0.5c-0.9,0-1.6,0.2-2.3,0.5c-0.6,0.3-1.2,0.8-1.6,1.3
		C188.8,25.2,188.5,25.7,188.4,26.4z"/>
	<linearGradient id="SVGID_3_" gradientUnits="userSpaceOnUse" x1="165.5549" y1="28.5777" x2="254.9226" y2="28.5777">
		<stop  offset="0" style="stop-color:#25F6FF"/>
		<stop  offset="0.2213" style="stop-color:#35D9FF"/>
		<stop  offset="0.6977" style="stop-color:#5C90FF"/>
		<stop  offset="1" style="stop-color:#775FFF"/>
	</linearGradient>
	<path class="st4" d="M201.7,22h1.3v13.2h-1.3V22z"/>
	<linearGradient id="SVGID_4_" gradientUnits="userSpaceOnUse" x1="165.5549" y1="28.5777" x2="254.9226" y2="28.5777">
		<stop  offset="0" style="stop-color:#25F6FF"/>
		<stop  offset="0.2213" style="stop-color:#35D9FF"/>
		<stop  offset="0.6977" style="stop-color:#5C90FF"/>
		<stop  offset="1" style="stop-color:#775FFF"/>
	</linearGradient>
	<path class="st5" d="M206.1,22h1.4l7.7,11.2h0.1V22h1.3v13.2h-1.4L207.4,24h-0.1v11.2h-1.3V22z"/>
</g>
<g>
	<linearGradient id="SVGID_5_" gradientUnits="userSpaceOnUse" x1="184.25" y1="24.65" x2="17.7273" y2="24.65">
		<stop  offset="0" style="stop-color:#5C90FF"/>
		<stop  offset="1" style="stop-color:#775FFF"/>
	</linearGradient>
	<path class="st6" d="M52.9,13.9h4.7v21.5h-4.7V13.9z"/>
	<linearGradient id="SVGID_6_" gradientUnits="userSpaceOnUse" x1="184.25" y1="24.65" x2="17.7273" y2="24.65">
		<stop  offset="0" style="stop-color:#5C90FF"/>
		<stop  offset="1" style="stop-color:#775FFF"/>
	</linearGradient>
	<path class="st7" d="M61.8,13.9h11.6c1.9,0,3.4,0.6,4.6,1.7s1.7,2.5,1.7,4.2c0,2.7-1.1,4.5-3.4,5.4v0.1c1.9,0.5,2.9,2.2,3.1,5
		c0,0.1,0,0.4,0,0.9s0.1,0.9,0.1,1.2s0.1,0.7,0.1,1.1c0.1,0.4,0.1,0.8,0.3,1.1s0.2,0.6,0.4,0.8h-4.7c-0.2-0.4-0.3-0.9-0.4-1.5
		s-0.2-1.2-0.2-2c-0.1-0.8-0.1-1.3-0.2-1.7c-0.2-1.2-0.5-2-1-2.5s-1.4-0.8-2.5-0.8h-4.7v8.4h-4.7V13.9H61.8z M66.5,23.6h5.2
		c1.1,0,1.9-0.2,2.5-0.7c0.5-0.5,0.8-1.3,0.8-2.3c0-2-1.1-3-3.2-3h-5.2v6H66.5z"/>
	<linearGradient id="SVGID_7_" gradientUnits="userSpaceOnUse" x1="184.25" y1="24.65" x2="17.7273" y2="24.65">
		<stop  offset="0" style="stop-color:#5C90FF"/>
		<stop  offset="1" style="stop-color:#775FFF"/>
	</linearGradient>
	<path class="st8" d="M82.5,24.7c0-3.3,1-6,2.9-8.1s4.5-3.2,7.7-3.2s5.8,1.1,7.7,3.2c1.9,2.1,2.9,4.9,2.9,8.1s-1,5.9-2.9,8
		s-4.5,3.2-7.7,3.2s-5.8-1.1-7.7-3.2C83.5,30.6,82.5,27.9,82.5,24.7z M87.3,24.7c0,2,0.5,3.7,1.4,5.1c1,1.4,2.4,2.1,4.4,2.1
		s3.4-0.7,4.4-2.1s1.4-3.1,1.4-5.1c0-1.3-0.2-2.5-0.6-3.6s-1-2-1.9-2.7s-2-1.1-3.4-1.1c-1.3,0-2.5,0.4-3.4,1.1s-1.5,1.6-1.9,2.7
		C87.4,22.2,87.3,23.4,87.3,24.7z"/>
	<linearGradient id="SVGID_8_" gradientUnits="userSpaceOnUse" x1="184.25" y1="24.65" x2="17.7273" y2="24.65">
		<stop  offset="0" style="stop-color:#5C90FF"/>
		<stop  offset="1" style="stop-color:#775FFF"/>
	</linearGradient>
	<path class="st9" d="M106.9,13.9H117c4.6,0,6.9,1.8,6.9,5.3c0,2-1,3.5-2.9,4.5c1.3,0.4,2.3,1,2.9,2c0.7,1,1,2.1,1,3.5
		c0,2-0.7,3.6-2.2,4.6c-1.5,1.1-3.3,1.6-5.4,1.6h-10.4V13.9z M111.6,22.6h4.8c1.9,0,2.9-0.9,2.9-2.6c0-1.6-1.1-2.5-3.2-2.5h-4.4v5.1
		H111.6z M111.6,31.7h5.1c2.3,0,3.5-0.9,3.5-2.8c0-2-1.1-3.1-3.4-3.1h-5.1L111.6,31.7L111.6,31.7z"/>
	<linearGradient id="SVGID_9_" gradientUnits="userSpaceOnUse" x1="184.25" y1="24.65" x2="17.7273" y2="24.65">
		<stop  offset="0" style="stop-color:#5C90FF"/>
		<stop  offset="1" style="stop-color:#775FFF"/>
	</linearGradient>
	<path class="st10" d="M127.1,24.7c0-3.3,1-6,2.9-8.1s4.5-3.2,7.7-3.2s5.8,1.1,7.7,3.2s2.9,4.9,2.9,8.1s-1,5.9-2.9,8
		s-4.5,3.2-7.7,3.2s-5.8-1.1-7.7-3.2S127.1,27.9,127.1,24.7z M131.8,24.7c0,2,0.5,3.7,1.4,5.1c1,1.4,2.4,2.1,4.4,2.1
		s3.4-0.7,4.4-2.1s1.4-3.1,1.4-5.1c0-1.3-0.2-2.5-0.6-3.6c-0.4-1.1-1-2-1.9-2.7s-2-1.1-3.4-1.1s-2.5,0.4-3.4,1.1s-1.5,1.6-1.9,2.7
		C132,22.2,131.8,23.4,131.8,24.7z"/>
	<linearGradient id="SVGID_10_" gradientUnits="userSpaceOnUse" x1="184.25" y1="24.65" x2="17.7273" y2="24.65">
		<stop  offset="0" style="stop-color:#5C90FF"/>
		<stop  offset="1" style="stop-color:#775FFF"/>
	</linearGradient>
	<path class="st11" d="M156.2,17.9h-6.4v-4h17.6v4H161v17.5h-4.7V17.9H156.2z"/>
</g>
<g>
	<g id="I_cham">
		<linearGradient id="SVGID_11_" gradientUnits="userSpaceOnUse" x1="6.6732" y1="7.9815" x2="49.1732" y2="40.9815">
			<stop  offset="0" style="stop-color:#25F6FF"/>
			<stop  offset="0.2213" style="stop-color:#35D9FF"/>
			<stop  offset="0.6977" style="stop-color:#5C90FF"/>
			<stop  offset="1" style="stop-color:#775FFF"/>
		</linearGradient>
		<circle class="st12" cx="7.1" cy="8.3" r="2.6"/>
	</g>
	<linearGradient id="I_than_1_" gradientUnits="userSpaceOnUse" x1="-1.5767" y1="18.6064" x2="40.9233" y2="51.6064">
		<stop  offset="0" style="stop-color:#25F6FF"/>
		<stop  offset="0.2213" style="stop-color:#35D9FF"/>
		<stop  offset="0.6977" style="stop-color:#5C90FF"/>
		<stop  offset="1" style="stop-color:#775FFF"/>
	</linearGradient>
	<path id="I_than" class="st13" d="M12.3,34.8c-1.4,0-2.5-1.1-2.6-2.4V16c0-1.4-1.2-2.6-2.6-2.6c-1.4,0-2.6,1.2-2.6,2.6v16.1h0
		c0,0.2,0,0.3,0,0.5c0.2,3.2,2.3,5.9,5.2,6.9c0.8,0.3,1.7,0.4,2.6,0.4h0c0.5,0,1.1-0.1,1.6-0.2v-5.6C13.5,34.6,12.9,34.8,12.3,34.8z
		"/>
	<linearGradient id="SVGID_12_" gradientUnits="userSpaceOnUse" x1="8.6252" y1="5.4676" x2="51.1252" y2="38.4676">
		<stop  offset="0" style="stop-color:#25F6FF"/>
		<stop  offset="0.2213" style="stop-color:#35D9FF"/>
		<stop  offset="0.6977" style="stop-color:#5C90FF"/>
		<stop  offset="1" style="stop-color:#775FFF"/>
	</linearGradient>
	<path class="st14" d="M30.1,16.2c-0.1,1.9-1.4,3.6-3.3,4.3l0,0l0,0c-0.5,0.2-1.1,0.3-1.6,0.3c-0.6,0-1.1-0.1-1.6-0.3l0,0l0,0
		c-0.3-0.1-0.5-0.2-0.8-0.3l0,0l0,0c-0.4-0.2-0.8-0.5-1.1-0.9c0-0.1-0.1-0.1-0.1-0.2v6.2c0,0,0.1,0,0.1,0.1c0.1,0,0.1,0,0.2,0.1
		c1.1,0.4,2.2,0.6,3.4,0.6c1.2,0,2.3-0.2,3.4-0.6c0.4-0.1,0.7-0.3,1.1-0.5c1.7-0.9,3.2-2.2,4.2-3.9c0.9-1.4,1.4-3.1,1.4-4.9H30.1z"
		/>
	<g id="r">
		<linearGradient id="SVGID_13_" gradientUnits="userSpaceOnUse" x1="5.6024" y1="9.3606" x2="48.1024" y2="42.3606">
			<stop  offset="0" style="stop-color:#25F6FF"/>
			<stop  offset="0.2213" style="stop-color:#35D9FF"/>
			<stop  offset="0.6977" style="stop-color:#5C90FF"/>
			<stop  offset="1" style="stop-color:#775FFF"/>
		</linearGradient>
		<path class="st15" d="M25.1,9.9c-2,0-3.9,1-4.9,2.6c-0.5,0.7-0.8,1.5-1,2.4c-0.1,0.3-0.1,0.7-0.1,1v8.2v12c0,0,0,0,0-0.1
			c0,0,0.1-0.1,0.1-0.1c0,0,0-0.1,0.1-0.1c0-0.1,0.1-0.1,0.1-0.2c0-0.1,0.1-0.1,0.1-0.2c0,0,0-0.1,0-0.1c0-0.1,0-0.1,0.1-0.2
			c0,0,0,0,0,0c0,0,0-0.1,0-0.1c0,0,0-0.1,0-0.1c0,0,0-0.1,0-0.1c0.3-0.8,0.4-1.7,0.4-2.6v-7.4v-8.9h0c0-0.1,0-0.2,0-0.3l0,0l0,0
			c0.1-1.2,0.6-2.3,1.4-3.1c0.3-0.3,0.7-0.6,1.1-0.9l0,0l0,0c0.2-0.1,0.5-0.2,0.8-0.3l0,0l0,0c0.5-0.2,1.1-0.3,1.6-0.3
			c0.6,0,1.1,0.1,1.6,0.3l0,0c1.6,0.6,2.8,2,3.2,3.6h1.1C30.6,12,28.1,9.9,25.1,9.9z"/>
		<linearGradient id="SVGID_14_" gradientUnits="userSpaceOnUse" x1="5.286" y1="9.7681" x2="47.786" y2="42.7681">
			<stop  offset="0" style="stop-color:#25F6FF"/>
			<stop  offset="0.2213" style="stop-color:#35D9FF"/>
			<stop  offset="0.6977" style="stop-color:#5C90FF"/>
			<stop  offset="1" style="stop-color:#775FFF"/>
		</linearGradient>
		<path class="st16" d="M25.1,7.8c-1.8,0-3.5,0.6-4.9,1.7c-0.3,0.2-0.5,0.4-0.8,0.7c-1.3,1.3-2.1,2.9-2.3,4.7c0,0.3-0.1,0.7-0.1,1
			V22v16.4c0,0,0,0,0,0c0,0,0.1-0.1,0.1-0.1c0,0,0.1-0.1,0.1-0.1c0,0,0.1,0,0.1-0.1c0,0,0.1-0.1,0.1-0.1c0,0,0.1-0.1,0.1-0.1
			c0,0,0.1-0.1,0.1-0.1c0.1,0,0.1-0.1,0.2-0.2c0,0,0,0,0.1-0.1c0,0,0.1-0.1,0.1-0.1V23.2v-7.6h0c0-0.3,0-0.5,0.1-0.8
			c0.2-1.6,1-3,2-4c1.3-1.2,3-2,4.9-2c3.5,0,6.5,2.6,7,6h1.1c-0.2-1.8-1-3.4-2.3-4.7C29.3,8.6,27.3,7.8,25.1,7.8z"/>
		<linearGradient id="SVGID_15_" gradientUnits="userSpaceOnUse" x1="5.2633" y1="9.7973" x2="47.7633" y2="42.7973">
			<stop  offset="0" style="stop-color:#25F6FF"/>
			<stop  offset="0.2213" style="stop-color:#35D9FF"/>
			<stop  offset="0.6977" style="stop-color:#5C90FF"/>
			<stop  offset="1" style="stop-color:#775FFF"/>
		</linearGradient>
		<path class="st17" d="M28.5,6.3c-1.1-0.4-2.2-0.6-3.4-0.6c-1.2,0-2.3,0.2-3.4,0.6c-0.1,0-0.1,0-0.2,0.1c-0.5,0.2-1,0.4-1.4,0.6
			c-2.9,1.6-5,4.7-5.2,8.2c0,0.2,0,0.4,0,0.7v0v23.7c0,0,0.1,0,0.1,0c0,0,0.1,0,0.1,0c0,0,0,0,0.1,0c0,0,0.1,0,0.1,0
			c0.1,0,0.1,0,0.2-0.1c0,0,0,0,0.1,0c0,0,0,0,0.1,0c0.1,0,0.1-0.1,0.2-0.1c0.1,0,0.1-0.1,0.2-0.1c0,0,0,0,0,0V20.3v-4.6h0
			c0-0.3,0-0.5,0.1-0.8c0.3-2.8,1.9-5.2,4.2-6.7c1.4-0.9,3.1-1.4,4.9-1.4c4.7,0,8.6,3.5,9.1,8.1h1C34.8,10.9,32.2,7.6,28.5,6.3z"/>
	</g>
	<linearGradient id="B_1_" gradientUnits="userSpaceOnUse" x1="2.8624" y1="12.8893" x2="45.3624" y2="45.8893">
		<stop  offset="0" style="stop-color:#25F6FF"/>
		<stop  offset="0.2213" style="stop-color:#35D9FF"/>
		<stop  offset="0.6977" style="stop-color:#5C90FF"/>
		<stop  offset="1" style="stop-color:#775FFF"/>
	</linearGradient>
	<path id="B" class="st18" d="M33.8,21.1c-0.6-0.3-1.2-0.6-1.8-0.9c-1-0.4-2.1-0.6-3.3-0.6v5.2c0.3,0,0.6,0,0.9,0.1
		c0.2,0,0.4,0.1,0.7,0.2l0,0l0,0c2,0.7,3.3,2.6,3.3,4.7c0,2.1-1.3,4-3.3,4.7l0,0l0,0c-0.5,0.2-1,0.3-1.5,0.3v0h-7.6
		c-0.3,1.1-0.8,2.1-1.6,3l0,0.1l0,0c-0.2,0.3-0.4,0.5-0.6,0.7c0,0,0,0-0.1,0.1l0,0l0,0c-0.1,0.1-0.1,0.1-0.2,0.2
		c0,0-0.1,0.1-0.1,0.1l0,0l0,0c0,0-0.1,0.1-0.1,0.1c-0.1,0-0.1,0.1-0.1,0.1l0,0l0,0c0,0-0.1,0-0.1,0.1c0,0-0.1,0.1-0.1,0.1l0,0l0,0
		c0,0-0.1,0.1-0.1,0.1c-0.1,0-0.1,0.1-0.2,0.1l0,0l0,0c0,0,0,0-0.1,0.1c-0.1,0.1-0.2,0.1-0.3,0.2c0,0,0,0,0,0c0,0-0.1,0-0.1,0.1
		h11.5v0c1.1,0,2.2-0.2,3.3-0.6c3.9-1.4,6.8-5.2,6.8-9.6C38.8,26.1,36.8,22.9,33.8,21.1z"/>
	<g id="cham_B">
		<linearGradient id="SVGID_16_" gradientUnits="userSpaceOnUse" x1="12.0956" y1="5.7646" x2="48.2002" y2="33.7987">
			<stop  offset="0" style="stop-color:#25F6FF"/>
			<stop  offset="0.2213" style="stop-color:#35D9FF"/>
			<stop  offset="0.6977" style="stop-color:#5C90FF"/>
			<stop  offset="1" style="stop-color:#775FFF"/>
		</linearGradient>
		<circle class="st19" cx="25.1" cy="15.9" r="3"/>
	</g>
</g>
</svg>
