<?xml version="1.0" encoding="utf-8"?>
<!-- Generator: Adobe Illustrator 21.0.0, SVG Export Plug-In . SVG Version: 6.00 Build 0)  -->
<svg version="1.1" id="Layer_1" xmlns="http://www.w3.org/2000/svg" xmlns:xlink="http://www.w3.org/1999/xlink" x="0px" y="0px"
	 viewBox="0 0 521 436" style="enable-background:new 0 0 521 436;" xml:space="preserve">
<style type="text/css">
	.st0{fill:url(#SVGID_1_);}
	.st1{opacity:0.5;fill:url(#SVGID_2_);}
	.st2{opacity:0.1;fill:#001B30;}
	.st3{fill:#001B30;}
	.st4{opacity:0.1;fill:url(#SVGID_3_);}
	.st5{opacity:0.2;fill:url(#SVGID_4_);}
	.st6{opacity:0.3;fill:url(#SVGID_5_);}
</style>
<g>
	<g>
		<linearGradient id="SVGID_1_" gradientUnits="userSpaceOnUse" x1="-27.5808" y1="5.2284" x2="519.4192" y2="345.2284">
			<stop  offset="0" style="stop-color:#25F6FF"/>
			<stop  offset="0.2213" style="stop-color:#35D9FF"/>
			<stop  offset="0.6977" style="stop-color:#5C90FF"/>
			<stop  offset="1" style="stop-color:#775FFF"/>
		</linearGradient>
		<path class="st0" d="M513.4,216c0,111.4-90.3,201.9-202,201.9c-111.6,0-201.9-90.5-201.9-201.9c0-111.7,90.3-202,201.9-202
			C423.1,14,513.4,104.5,513.4,216z"/>
		<linearGradient id="SVGID_2_" gradientUnits="userSpaceOnUse" x1="-68.2246" y1="216.1" x2="1047.0431" y2="216.1">
			<stop  offset="0" style="stop-color:#47FFD1"/>
			<stop  offset="1" style="stop-color:#56C4FF"/>
		</linearGradient>
		<path class="st1" d="M474.7,216.1c0-89.7-72.9-162.8-162.6-163.1v0c-0.1,0-0.1,0-0.2,0c-0.1,0-0.2,0-0.3,0c-0.5,0-0.8,0-1.3,0v0
			c-88.5,1.6-160.1,74.1-160.1,163.1s71.6,161.5,160.1,163.1v0c0.5,0,0.8,0,1.3,0c0.1,0,0.2,0,0.3,0c0.1,0,0.1,0,0.2,0v0
			C401.8,378.9,474.7,305.8,474.7,216.1z"/>
		<path class="st2" d="M489.5,164.4H313.1v112.4c0,3.5-1.9,84.9-146.7,54.5c0,0,64.3,68.4,146.7,68.4c1.2,0,2.4,0,3.7,0
			c99.2,0,179.7-82.4,179.7-184.2C496.5,197.7,494,180.6,489.5,164.4z"/>
	</g>
	<g>
		<g id="I_cham">
			<circle class="st3" cx="216.8" cy="111.2" r="17.6"/>
		</g>
		<path id="I_than" class="st3" d="M251.9,289c-9.3,0-16.9-7.3-17.5-16.4V162.8c0-9.7-7.9-17.6-17.6-17.6c-9.7,0-17.6,7.9-17.6,17.6
			v108.6h-0.1c0,1.2,0,2.3,0.1,3.5c1.4,21.5,15.6,39.5,35.1,46.3c5.5,1.9,11.4,3,17.5,3h0c3.6,0,7.2-0.4,10.6-1.1v-37.7
			C259.5,287.7,255.9,289,251.9,289z"/>
		<path class="st3" d="M371.1,164.4c-0.9,13.1-9.5,24.5-22,28.9l0,0l0,0c-3.5,1.3-7.3,1.9-11.1,1.9c-3.8,0-7.5-0.6-11-1.9l0,0l0,0
			c-1.7-0.6-3.4-1.4-5-2.3l0,0l0,0c-2.9-1.6-5.4-3.6-7.7-5.9c-0.3-0.3-0.7-0.7-1-1.1v41.6c0.3,0.1,0.7,0.3,1,0.4
			c0.4,0.1,0.7,0.3,1.1,0.4c7.1,2.5,14.7,3.9,22.7,3.9c8,0,15.7-1.4,22.9-3.9c2.5-0.9,5-1.9,7.4-3.1c11.8-5.8,21.6-14.9,28.3-26.1
			c5.8-9.6,9.3-20.8,9.7-32.8H371.1z"/>
		<g id="r">
			<path class="st3" d="M337.9,121.5c-13.8,0-26,6.9-33.3,17.5c-3.3,4.7-5.6,10.1-6.6,16c-0.4,2.3-0.6,4.6-0.6,7v55.1v81
				c0.1-0.2,0.2-0.3,0.3-0.5c0.2-0.3,0.3-0.6,0.5-0.9c0.2-0.3,0.3-0.6,0.5-0.9c0.2-0.4,0.4-0.7,0.5-1.1c0.2-0.4,0.4-0.9,0.6-1.4
				c0.1-0.2,0.2-0.4,0.3-0.6c0.1-0.3,0.3-0.7,0.4-1c0,0,0-0.1,0-0.1c0.1-0.3,0.2-0.5,0.3-0.8c0.1-0.3,0.2-0.6,0.3-0.8
				c0.1-0.3,0.2-0.6,0.3-0.9c2-5.5,3-11.5,3-17.6v-49.7V162h0c0-0.7,0-1.4,0.1-2l0-0.1l0-0.1c0.5-8,3.9-15.4,9.3-21
				c2.2-2.3,4.8-4.2,7.7-5.9l0,0l0,0c1.6-0.9,3.3-1.7,5-2.3l0,0l0,0c3.5-1.2,7.2-1.9,11-1.9c3.8,0,7.6,0.6,11.1,1.9l0,0
				c10.9,3.9,18.9,13.2,21.3,24.2h7.4C374.4,136,357.9,121.5,337.9,121.5z"/>
			<path class="st3" d="M337.9,107.4c-12.2,0-23.8,4-33.3,11.3c-1.9,1.4-3.6,3-5.3,4.7c-8.6,8.6-14,19.6-15.5,31.6
				c-0.3,2.3-0.4,4.7-0.4,7v41.2v110.6c0.1-0.1,0.2-0.2,0.3-0.2c0.2-0.2,0.5-0.4,0.7-0.6c0.3-0.2,0.6-0.4,0.8-0.7
				c0.2-0.2,0.4-0.3,0.6-0.5c0.3-0.3,0.6-0.5,1-0.8c0.2-0.2,0.4-0.4,0.6-0.6c0.3-0.3,0.6-0.5,0.8-0.8c0.3-0.3,0.7-0.7,1-1
				c0.1-0.1,0.3-0.3,0.4-0.4c0.2-0.2,0.5-0.5,0.7-0.7v-96.5v-50.8h0c0.1-1.8,0.2-3.6,0.5-5.3c1.6-10.5,6.5-19.9,13.8-27
				c8.6-8.4,20.3-13.6,33.3-13.6c23.9,0,43.6,17.6,47,40.5h7.1c-1.5-11.9-6.9-22.9-15.5-31.5C366.2,113.1,352.5,107.4,337.9,107.4z"
				/>
			<path class="st3" d="M360.8,97.6c-7.2-2.6-14.9-3.9-22.9-3.9c-8,0-15.6,1.4-22.7,3.9c-0.4,0.1-0.7,0.3-1.1,0.4
				c-3.3,1.2-6.4,2.7-9.5,4.4c-19.7,11-33.4,31.5-34.9,55.2c-0.1,1.5-0.2,3-0.2,4.5v0v159.2c0.2-0.1,0.5-0.2,0.7-0.3
				c0.2-0.1,0.3-0.1,0.5-0.2c0.1-0.1,0.3-0.1,0.4-0.2c0.2-0.1,0.4-0.2,0.7-0.3c0.4-0.1,0.7-0.3,1.1-0.5c0.1-0.1,0.3-0.1,0.4-0.2
				c0.1-0.1,0.3-0.1,0.4-0.2c0.4-0.2,0.8-0.4,1.2-0.6c0.4-0.2,0.8-0.4,1.2-0.6c0,0,0,0,0,0V191.5v-31.3h0c0-1.8,0.2-3.6,0.4-5.3
				c2.1-18.8,12.8-35.1,28-44.9c9.6-6.2,21-9.7,33.3-9.7c31.7,0,57.8,23.9,61.3,54.6h6.7C403.2,128.3,385.2,106.2,360.8,97.6z"/>
		</g>
		<path id="B" class="st3" d="M396.6,197.1c-3.8-2.3-7.9-4.2-12.1-5.7c-6.9-2.5-14.3-3.8-22-3.9v35.1c2,0.1,3.9,0.3,5.8,0.7
			c1.5,0.3,3,0.7,4.4,1.2l0,0l0,0c13.2,4.7,22.1,17.3,22.1,31.3c0,14-8.9,26.6-22.1,31.3l0,0l0,0c-3.2,1.2-6.6,1.8-10.2,1.9v0h-50.9
			c-2.2,7.4-5.7,14.3-10.5,20.5l-0.3,0.3l0,0c-1.4,1.7-2.8,3.4-4.3,5c-0.1,0.1-0.3,0.3-0.4,0.4l-0.1,0.1l-0.1,0.1
			c-0.3,0.3-0.7,0.7-1.2,1.1c-0.3,0.2-0.5,0.5-0.8,0.7l-0.2,0.2l-0.2,0.2c-0.2,0.2-0.4,0.4-0.6,0.5c-0.3,0.3-0.7,0.6-0.9,0.8
			l-0.2,0.2l-0.1,0.1c-0.2,0.1-0.3,0.3-0.5,0.4c-0.2,0.2-0.5,0.4-0.8,0.6l-0.2,0.2l-0.2,0.2c-0.2,0.2-0.4,0.3-0.7,0.5
			c-0.4,0.3-0.8,0.6-1.2,0.9l-0.1,0.1l-0.1,0.1c-0.2,0.1-0.3,0.2-0.5,0.4c-0.6,0.4-1.1,0.8-1.8,1.2c-0.1,0-0.1,0.1-0.2,0.1
			c-0.2,0.1-0.4,0.3-0.7,0.4h77.6v0c7.7-0.1,15.1-1.5,22-3.9c26.5-9.4,45.5-34.7,45.5-64.4C429.9,230.9,416.5,209.1,396.6,197.1z"/>
		<g id="cham_B">
			<circle class="st3" cx="337.9" cy="162" r="23.5"/>
		</g>
	</g>
</g>
<linearGradient id="SVGID_3_" gradientUnits="userSpaceOnUse" x1="-97" y1="217.8247" x2="509.33" y2="217.8247">
	<stop  offset="0" style="stop-color:#25F6FF"/>
	<stop  offset="0.2213" style="stop-color:#35D9FF"/>
	<stop  offset="0.6977" style="stop-color:#5C90FF"/>
	<stop  offset="1" style="stop-color:#775FFF"/>
</linearGradient>
<path class="st4" d="M100,430.4l11.3-11.3c-25.7-25.9-46-55.9-60.1-89.4C36.5,294.9,29,257.8,29,219.7c0-38.2,7.5-75.2,22.2-110
	C65.4,76,85.8,45.8,111.8,19.8c1.1-1.1,2.2-2.1,3.3-3.2L103.8,5.3C47.8,59.6,13,135.5,13,219.7C13,301.9,46.2,376.4,100,430.4z"/>
<linearGradient id="SVGID_4_" gradientUnits="userSpaceOnUse" x1="-97" y1="217.8247" x2="509.33" y2="217.8247">
	<stop  offset="0" style="stop-color:#25F6FF"/>
	<stop  offset="0.2213" style="stop-color:#35D9FF"/>
	<stop  offset="0.6977" style="stop-color:#5C90FF"/>
	<stop  offset="1" style="stop-color:#775FFF"/>
</linearGradient>
<path class="st5" d="M81.9,316.7c-13-30.7-19.6-63.4-19.6-97c0-33.7,6.6-66.3,19.6-97c12.6-29.7,30.5-56.4,53.4-79.3
	c1.1-1.1,2.2-2.1,3.3-3.2l-11.3-11.3c-49.9,48.2-81,115.9-81,190.8c0,73,29.5,139.2,77.2,187.1l11.3-11.3
	C112.2,372.7,94.4,346.2,81.9,316.7z"/>
<linearGradient id="SVGID_5_" gradientUnits="userSpaceOnUse" x1="-97" y1="217.8247" x2="509.33" y2="217.8247">
	<stop  offset="0" style="stop-color:#25F6FF"/>
	<stop  offset="0.2213" style="stop-color:#35D9FF"/>
	<stop  offset="0.6977" style="stop-color:#5C90FF"/>
	<stop  offset="1" style="stop-color:#775FFF"/>
</linearGradient>
<path class="st6" d="M110.2,304.8C98.8,277.8,93,249.2,93,219.7c0-29.5,5.8-58.2,17.2-85.1c11-26,26.8-49.4,46.9-69.5
	c1.1-1.1,2.2-2.1,3.3-3.2L149,50.5c-44.4,42.7-72,102.7-72,169.1c0,64.6,26.1,123,68.3,165.4l11.3-11.3
	C136.7,353.8,121.1,330.6,110.2,304.8z"/>
</svg>
