<?xml version="1.0" encoding="utf-8"?>
<!-- Generator: Adobe Illustrator 21.0.0, SVG Export Plug-In . SVG Version: 6.00 Build 0)  -->
<svg version="1.1" id="Layer_1" xmlns="http://www.w3.org/2000/svg" xmlns:xlink="http://www.w3.org/1999/xlink" x="0px" y="0px"
	 viewBox="0 0 128 128" style="enable-background:new 0 0 128 128;" xml:space="preserve">
<style type="text/css">
	.st0{opacity:0.4;}
	.st1{fill:none;stroke:url(#SVGID_1_);stroke-width:2;stroke-miterlimit:10;}
	.st2{fill:none;stroke:url(#SVGID_2_);stroke-width:2;stroke-miterlimit:10;}
	.st3{fill:none;stroke:url(#SVGID_3_);stroke-width:2;stroke-miterlimit:10;}
	.st4{fill:none;stroke:url(#SVGID_4_);stroke-width:1.5;stroke-miterlimit:10;}
	.st5{fill:none;stroke:url(#SVGID_5_);stroke-width:1.5;stroke-miterlimit:10;}
	.st6{fill:none;stroke:url(#SVGID_6_);stroke-width:1.5;stroke-miterlimit:10;}
	.st7{fill:none;stroke:url(#SVGID_7_);stroke-width:1.5;stroke-miterlimit:10;}
	.st8{fill:none;stroke:url(#SVGID_8_);stroke-width:1.5;stroke-miterlimit:10;}
	.st9{fill:none;stroke:url(#SVGID_9_);stroke-width:1.5;stroke-miterlimit:10;}
	.st10{fill:url(#SVGID_10_);}
	.st11{fill:#073F46;}
	.st12{fill:url(#SVGID_11_);}
	.st13{fill:url(#SVGID_12_);}
	.st14{filter:url(#Adobe_OpacityMaskFilter);}
	.st15{fill:url(#SVGID_14_);}
	.st16{mask:url(#SVGID_13_);fill:url(#SVGID_15_);}
	.st17{fill:url(#SVGID_16_);}
	.st18{fill:url(#SVGID_17_);}
	.st19{fill:url(#SVGID_18_);}
	.st20{fill:url(#SVGID_19_);}
	.st21{fill:url(#SVGID_20_);}
	.st22{fill:url(#SVGID_21_);}
	.st23{fill:url(#SVGID_22_);}
	.st24{fill:url(#SVGID_23_);}
	.st25{fill:none;stroke:url(#SVGID_24_);stroke-width:1.5114;stroke-miterlimit:10;}
	.st26{fill:none;stroke:url(#SVGID_25_);stroke-width:1.5114;stroke-miterlimit:10;}
	.st27{fill:url(#SVGID_26_);}
	.st28{fill:url(#SVGID_27_);}
	.st29{display:none;}
	.st30{display:inline;opacity:0.5;}
	.st31{fill-rule:evenodd;clip-rule:evenodd;fill:url(#SVGID_28_);}
	.st32{fill-rule:evenodd;clip-rule:evenodd;fill:url(#SVGID_29_);}
	.st33{fill-rule:evenodd;clip-rule:evenodd;fill:url(#SVGID_30_);}
	.st34{fill-rule:evenodd;clip-rule:evenodd;fill:url(#SVGID_31_);}
	.st35{fill-rule:evenodd;clip-rule:evenodd;fill:url(#SVGID_32_);}
	.st36{fill-rule:evenodd;clip-rule:evenodd;fill:url(#SVGID_33_);}
	.st37{fill-rule:evenodd;clip-rule:evenodd;fill:url(#SVGID_34_);}
	.st38{fill-rule:evenodd;clip-rule:evenodd;fill:url(#SVGID_35_);}
	.st39{fill-rule:evenodd;clip-rule:evenodd;fill:url(#SVGID_36_);}
	.st40{fill-rule:evenodd;clip-rule:evenodd;fill:url(#SVGID_37_);}
	.st41{display:inline;opacity:0.65;fill:url(#SVGID_38_);}
	.st42{display:inline;}
	.st43{opacity:0.65;fill:url(#SVGID_39_);}
	.st44{opacity:0.65;fill:url(#SVGID_40_);}
	.st45{opacity:0.65;fill:url(#SVGID_41_);}
	.st46{opacity:0.65;fill:url(#SVGID_42_);}
	.st47{opacity:0.65;fill:url(#SVGID_43_);}
	.st48{display:none;opacity:0.65;}
	.st49{fill:#828282;}
	.st50{fill:url(#SVGID_44_);}
	.st51{fill:url(#SVGID_45_);}
	.st52{fill:url(#SVGID_46_);}
	.st53{fill:url(#SVGID_47_);}
	.st54{fill:url(#SVGID_48_);}
	.st55{fill:url(#SVGID_49_);}
	.st56{fill:#DDDDDD;}
	.st57{opacity:0.65;}
	.st58{fill:url(#SVGID_50_);}
</style>
<g class="st0">
	<linearGradient id="SVGID_1_" gradientUnits="userSpaceOnUse" x1="98.6352" y1="98.6094" x2="77.3099" y2="55.2478">
		<stop  offset="0" style="stop-color:#00728B"/>
		<stop  offset="0.1522" style="stop-color:#016D7C"/>
		<stop  offset="1" style="stop-color:#07542E"/>
	</linearGradient>
	<line class="st1" x1="112.1" y1="91.4" x2="63.9" y2="62.5"/>
	<linearGradient id="SVGID_2_" gradientUnits="userSpaceOnUse" x1="74.2435" y1="57.8521" x2="53.4873" y2="15.6479">
		<stop  offset="0" style="stop-color:#00728B"/>
		<stop  offset="0.1522" style="stop-color:#016D7C"/>
		<stop  offset="1" style="stop-color:#07542E"/>
	</linearGradient>
	<line class="st2" x1="63.9" y1="11" x2="63.9" y2="62.5"/>
	<linearGradient id="SVGID_3_" gradientUnits="userSpaceOnUse" x1="41.49" y1="79.7962" x2="38.6693" y2="74.0609">
		<stop  offset="0" style="stop-color:#00728B"/>
		<stop  offset="0.1522" style="stop-color:#016D7C"/>
		<stop  offset="1" style="stop-color:#07542E"/>
	</linearGradient>
	<line class="st3" x1="15.7" y1="91.4" x2="64.5" y2="62.5"/>
</g>
<linearGradient id="SVGID_4_" gradientUnits="userSpaceOnUse" x1="15.8654" y1="65.3571" x2="17.3654" y2="65.3571">
	<stop  offset="0" style="stop-color:#00728B"/>
	<stop  offset="0.1522" style="stop-color:#016D7C"/>
	<stop  offset="1" style="stop-color:#07542E"/>
</linearGradient>
<line class="st4" x1="16.6" y1="39.3" x2="16.6" y2="91.4"/>
<linearGradient id="SVGID_5_" gradientUnits="userSpaceOnUse" x1="111.0082" y1="65.3571" x2="112.5082" y2="65.3571">
	<stop  offset="0" style="stop-color:#00728B"/>
	<stop  offset="0.1522" style="stop-color:#016D7C"/>
	<stop  offset="1" style="stop-color:#07542E"/>
</linearGradient>
<line class="st5" x1="111.8" y1="39.3" x2="111.8" y2="91.4"/>
<linearGradient id="SVGID_6_" gradientUnits="userSpaceOnUse" x1="15.9081" y1="25.5" x2="64.8941" y2="25.5">
	<stop  offset="0" style="stop-color:#00728B"/>
	<stop  offset="0.1522" style="stop-color:#016D7C"/>
	<stop  offset="1" style="stop-color:#07542E"/>
</linearGradient>
<line class="st6" x1="16.3" y1="40" x2="64.5" y2="11"/>
<linearGradient id="SVGID_7_" gradientUnits="userSpaceOnUse" x1="15.9081" y1="105.5357" x2="64.8941" y2="105.5357">
	<stop  offset="0" style="stop-color:#00728B"/>
	<stop  offset="0.1522" style="stop-color:#016D7C"/>
	<stop  offset="1" style="stop-color:#07542E"/>
</linearGradient>
<line class="st7" x1="16.3" y1="91.1" x2="64.5" y2="120"/>
<linearGradient id="SVGID_8_" gradientUnits="userSpaceOnUse" x1="63.4795" y1="105.5357" x2="112.4655" y2="105.5357">
	<stop  offset="0" style="stop-color:#00728B"/>
	<stop  offset="0.1522" style="stop-color:#016D7C"/>
	<stop  offset="1" style="stop-color:#07542E"/>
</linearGradient>
<line class="st8" x1="63.9" y1="120" x2="112.1" y2="91.1"/>
<linearGradient id="SVGID_9_" gradientUnits="userSpaceOnUse" x1="63.4795" y1="25.5" x2="112.4655" y2="25.5">
	<stop  offset="0" style="stop-color:#00728B"/>
	<stop  offset="0.1522" style="stop-color:#016D7C"/>
	<stop  offset="1" style="stop-color:#07542E"/>
</linearGradient>
<line class="st9" x1="112.1" y1="40" x2="63.9" y2="11"/>
<g>
	<linearGradient id="SVGID_10_" gradientUnits="userSpaceOnUse" x1="20.9551" y1="99.9456" x2="12.6693" y2="83.0976">
		<stop  offset="0" style="stop-color:#875017"/>
		<stop  offset="0.1072" style="stop-color:#9D6A17"/>
		<stop  offset="0.2475" style="stop-color:#B78817"/>
		<stop  offset="0.6677" style="stop-color:#FDF193"/>
		<stop  offset="0.7431" style="stop-color:#FCEF90"/>
		<stop  offset="0.8008" style="stop-color:#F8E886"/>
		<stop  offset="0.8526" style="stop-color:#F1DD76"/>
		<stop  offset="0.9009" style="stop-color:#E8CE5F"/>
		<stop  offset="0.9469" style="stop-color:#DBB941"/>
		<stop  offset="0.9905" style="stop-color:#CDA11D"/>
		<stop  offset="1" style="stop-color:#C99B14"/>
	</linearGradient>
	<circle class="st10" cx="16.8" cy="91.6" r="4.8"/>
	<g>
		<path class="st11" d="M16.8,87.7c2.1,0,3.8,1.7,3.8,3.8s-1.7,3.8-3.8,3.8S13,93.7,13,91.6S14.7,87.7,16.8,87.7 M16.8,85.7
			c-3.2,0-5.8,2.6-5.8,5.8c0,3.2,2.6,5.8,5.8,5.8s5.8-2.6,5.8-5.8C22.7,88.4,20.1,85.7,16.8,85.7L16.8,85.7z"/>
	</g>
</g>
<g>
	<linearGradient id="SVGID_11_" gradientUnits="userSpaceOnUse" x1="107" y1="91.5854" x2="116.6865" y2="91.5854">
		<stop  offset="0" style="stop-color:#875017"/>
		<stop  offset="0.1072" style="stop-color:#9D6A17"/>
		<stop  offset="0.2475" style="stop-color:#B78817"/>
		<stop  offset="0.6677" style="stop-color:#FDF193"/>
		<stop  offset="0.7431" style="stop-color:#FCEF90"/>
		<stop  offset="0.8008" style="stop-color:#F8E886"/>
		<stop  offset="0.8526" style="stop-color:#F1DD76"/>
		<stop  offset="0.9009" style="stop-color:#E8CE5F"/>
		<stop  offset="0.9469" style="stop-color:#DBB941"/>
		<stop  offset="0.9905" style="stop-color:#CDA11D"/>
		<stop  offset="1" style="stop-color:#C99B14"/>
	</linearGradient>
	<circle class="st12" cx="111.8" cy="91.6" r="4.8"/>
	<g>
		<path class="st11" d="M111.8,87.7c2.1,0,3.8,1.7,3.8,3.8s-1.7,3.8-3.8,3.8s-3.8-1.7-3.8-3.8S109.7,87.7,111.8,87.7 M111.8,85.7
			c-3.2,0-5.8,2.6-5.8,5.8c0,3.2,2.6,5.8,5.8,5.8s5.8-2.6,5.8-5.8C117.7,88.4,115.1,85.7,111.8,85.7L111.8,85.7z"/>
	</g>
</g>
<g>
	<linearGradient id="SVGID_12_" gradientUnits="userSpaceOnUse" x1="60.4201" y1="9.162" x2="67.2664" y2="16.0083">
		<stop  offset="0" style="stop-color:#875017"/>
		<stop  offset="0.1072" style="stop-color:#9D6A17"/>
		<stop  offset="0.2475" style="stop-color:#B78817"/>
		<stop  offset="0.6677" style="stop-color:#FDF193"/>
		<stop  offset="0.7431" style="stop-color:#FCEF90"/>
		<stop  offset="0.8008" style="stop-color:#F8E886"/>
		<stop  offset="0.8526" style="stop-color:#F1DD76"/>
		<stop  offset="0.9009" style="stop-color:#E8CE5F"/>
		<stop  offset="0.9469" style="stop-color:#DBB941"/>
		<stop  offset="0.9905" style="stop-color:#CDA11D"/>
		<stop  offset="1" style="stop-color:#C99B14"/>
	</linearGradient>
	<circle class="st13" cx="63.8" cy="12.6" r="4.8"/>
	<g>
		<path class="st11" d="M63.8,8.7c2.1,0,3.8,1.7,3.8,3.8s-1.7,3.8-3.8,3.8c-2.1,0-3.8-1.7-3.8-3.8S61.7,8.7,63.8,8.7 M63.8,6.7
			c-3.2,0-5.8,2.6-5.8,5.8s2.6,5.8,5.8,5.8c3.2,0,5.8-2.6,5.8-5.8S67.1,6.7,63.8,6.7L63.8,6.7z"/>
	</g>
</g>
<defs>
	<filter id="Adobe_OpacityMaskFilter" filterUnits="userSpaceOnUse" x="20" y="23.3" width="84" height="84.7">
		<feColorMatrix  type="matrix" values="1 0 0 0 0  0 1 0 0 0  0 0 1 0 0  0 0 0 1 0"/>
	</filter>
</defs>
<mask maskUnits="userSpaceOnUse" x="20" y="23.3" width="84" height="84.7" id="SVGID_13_">
	<g class="st14">
		<linearGradient id="SVGID_14_" gradientUnits="userSpaceOnUse" x1="61.7177" y1="108.3482" x2="62.0435" y2="39.2755">
			<stop  offset="0" style="stop-color:#FFFFFF"/>
			<stop  offset="1" style="stop-color:#000000"/>
		</linearGradient>
		<polygon class="st15" points="66,110 20,48.6 65.8,23.3 104,48.4 		"/>
	</g>
</mask>
<linearGradient id="SVGID_15_" gradientUnits="userSpaceOnUse" x1="40.2245" y1="79.7727" x2="99.427" y2="41.371">
	<stop  offset="0" style="stop-color:#5CFFE2"/>
	<stop  offset="1" style="stop-color:#BDFF83"/>
</linearGradient>
<polygon class="st16" points="65,108 20,48.6 65.8,23.3 104,48.4 "/>
<g>
	<linearGradient id="SVGID_16_" gradientUnits="userSpaceOnUse" x1="51.1165" y1="108.2729" x2="52.1165" y2="29.5229">
		<stop  offset="0" style="stop-color:#00728B"/>
		<stop  offset="0.1522" style="stop-color:#016D7C"/>
		<stop  offset="1" style="stop-color:#07542E"/>
	</linearGradient>
	<polygon class="st17" points="63.3,84.1 63.3,60 39.7,70.3 	"/>
	<linearGradient id="SVGID_17_" gradientUnits="userSpaceOnUse" x1="51.3199" y1="108.2755" x2="52.3199" y2="29.5255">
		<stop  offset="0" style="stop-color:#00728B"/>
		<stop  offset="0.1522" style="stop-color:#016D7C"/>
		<stop  offset="1" style="stop-color:#07542E"/>
	</linearGradient>
	<polygon class="st18" points="63.3,58.3 63.3,30 40.5,68.3 	"/>
	<linearGradient id="SVGID_18_" gradientUnits="userSpaceOnUse" x1="75.6293" y1="108.5842" x2="76.6293" y2="29.8342">
		<stop  offset="0" style="stop-color:#00728B"/>
		<stop  offset="0.1522" style="stop-color:#016D7C"/>
		<stop  offset="1" style="stop-color:#07542E"/>
	</linearGradient>
	<polygon class="st19" points="64.8,30 64.8,58.3 87.9,68.5 	"/>
	<linearGradient id="SVGID_19_" gradientUnits="userSpaceOnUse" x1="76.0593" y1="108.5896" x2="77.0593" y2="29.8396">
		<stop  offset="0" style="stop-color:#00728B"/>
		<stop  offset="0.1522" style="stop-color:#016D7C"/>
		<stop  offset="1" style="stop-color:#07542E"/>
	</linearGradient>
	<polygon class="st20" points="64.8,60 64.8,84.1 88.4,70.3 	"/>
	<linearGradient id="SVGID_20_" gradientUnits="userSpaceOnUse" x1="51.3815" y1="108.2547" x2="52.3815" y2="29.5047">
		<stop  offset="0" style="stop-color:#00728B"/>
		<stop  offset="0.1522" style="stop-color:#016D7C"/>
		<stop  offset="1" style="stop-color:#07542E"/>
	</linearGradient>
	<polygon class="st21" points="63.3,108.4 63.3,89 39.9,75.3 	"/>
	<linearGradient id="SVGID_21_" gradientUnits="userSpaceOnUse" x1="76.1872" y1="108.5913" x2="77.1872" y2="29.8413">
		<stop  offset="0" style="stop-color:#00728B"/>
		<stop  offset="0.1522" style="stop-color:#016D7C"/>
		<stop  offset="1" style="stop-color:#07542E"/>
	</linearGradient>
	<polygon class="st22" points="64.8,108.4 88.2,75.3 64.8,89 	"/>
</g>
<g>
	<linearGradient id="SVGID_22_" gradientUnits="userSpaceOnUse" x1="165.6872" y1="33.7779" x2="234.8128" y2="102.9035">
		<stop  offset="0" style="stop-color:#00728B"/>
		<stop  offset="0.1522" style="stop-color:#016D7C"/>
		<stop  offset="1" style="stop-color:#07542E"/>
	</linearGradient>
	<circle class="st23" cx="200.3" cy="68.3" r="48.9"/>
	<g>
		
			<image style="overflow:visible;opacity:0.75;" width="69" height="70" xlink:href="C26FF4F3.png"  transform="matrix(1 0 0 1 167.4659 35.4659)">
		</image>
		<g>
			<g>
				<linearGradient id="SVGID_23_" gradientUnits="userSpaceOnUse" x1="179.6311" y1="47.7217" x2="220.8689" y2="88.9596">
					<stop  offset="0" style="stop-color:#875017"/>
					<stop  offset="0.1072" style="stop-color:#9D6A17"/>
					<stop  offset="0.2475" style="stop-color:#B78817"/>
					<stop  offset="0.6677" style="stop-color:#FDF193"/>
					<stop  offset="0.7431" style="stop-color:#FCEF90"/>
					<stop  offset="0.8008" style="stop-color:#F8E886"/>
					<stop  offset="0.8526" style="stop-color:#F1DD76"/>
					<stop  offset="0.9009" style="stop-color:#E8CE5F"/>
					<stop  offset="0.9469" style="stop-color:#DBB941"/>
					<stop  offset="0.9905" style="stop-color:#CDA11D"/>
					<stop  offset="1" style="stop-color:#C99B14"/>
				</linearGradient>
				<path class="st24" d="M200.2,39.2c-16.1,0-29.2,13.1-29.2,29.2c0,16.1,13.1,29.2,29.2,29.2c16.1,0,29.2-13.1,29.2-29.2
					C229.4,52.2,216.4,39.2,200.2,39.2z"/>
			</g>
		</g>
	</g>
	<linearGradient id="SVGID_24_" gradientUnits="userSpaceOnUse" x1="150.4943" y1="68.3407" x2="250.0057" y2="68.3407">
		<stop  offset="0" style="stop-color:#BA7418"/>
		<stop  offset="3.635014e-02" style="stop-color:#C38225"/>
		<stop  offset="0.2537" style="stop-color:#F4D06F"/>
		<stop  offset="0.3529" style="stop-color:#FADD96"/>
		<stop  offset="0.4353" style="stop-color:#FEE6B0"/>
		<stop  offset="0.4848" style="stop-color:#FFE9B9"/>
		<stop  offset="0.5325" style="stop-color:#FEE6AC"/>
		<stop  offset="0.62" style="stop-color:#FBDD8B"/>
		<stop  offset="0.6667" style="stop-color:#F9D876"/>
		<stop  offset="0.7299" style="stop-color:#F1CB6A"/>
		<stop  offset="0.8466" style="stop-color:#DCA94A"/>
		<stop  offset="1" style="stop-color:#BA7418"/>
	</linearGradient>
	<circle class="st25" cx="200.2" cy="68.3" r="49"/>
	<linearGradient id="SVGID_25_" gradientUnits="userSpaceOnUse" x1="170.1174" y1="68.3407" x2="230.3826" y2="68.3407">
		<stop  offset="0" style="stop-color:#BA7418"/>
		<stop  offset="3.635014e-02" style="stop-color:#C38225"/>
		<stop  offset="0.2537" style="stop-color:#F4D06F"/>
		<stop  offset="0.3529" style="stop-color:#FADD96"/>
		<stop  offset="0.4353" style="stop-color:#FEE6B0"/>
		<stop  offset="0.4848" style="stop-color:#FFE9B9"/>
		<stop  offset="0.5325" style="stop-color:#FEE6AC"/>
		<stop  offset="0.62" style="stop-color:#FBDD8B"/>
		<stop  offset="0.6667" style="stop-color:#F9D876"/>
		<stop  offset="0.7299" style="stop-color:#F1CB6A"/>
		<stop  offset="0.8466" style="stop-color:#DCA94A"/>
		<stop  offset="1" style="stop-color:#BA7418"/>
	</linearGradient>
	<circle class="st26" cx="200.2" cy="68.3" r="29.4"/>
	<g>
		<linearGradient id="SVGID_26_" gradientUnits="userSpaceOnUse" x1="158.0051" y1="66.4421" x2="163.0458" y2="71.4828">
			<stop  offset="0" style="stop-color:#BA7418"/>
			<stop  offset="3.635014e-02" style="stop-color:#C38225"/>
			<stop  offset="0.2537" style="stop-color:#F4D06F"/>
			<stop  offset="0.3529" style="stop-color:#FADD96"/>
			<stop  offset="0.4353" style="stop-color:#FEE6B0"/>
			<stop  offset="0.4848" style="stop-color:#FFE9B9"/>
			<stop  offset="0.5325" style="stop-color:#FEE6AC"/>
			<stop  offset="0.62" style="stop-color:#FBDD8B"/>
			<stop  offset="0.6667" style="stop-color:#F9D876"/>
			<stop  offset="0.7299" style="stop-color:#F1CB6A"/>
			<stop  offset="0.8466" style="stop-color:#DCA94A"/>
			<stop  offset="1" style="stop-color:#BA7418"/>
		</linearGradient>
		<polygon class="st27" points="160.5,64.9 161.6,67.2 164.1,67.5 162.3,69.3 162.8,71.8 160.5,70.6 158.3,71.8 158.7,69.3 
			156.9,67.5 159.4,67.2 		"/>
		<linearGradient id="SVGID_27_" gradientUnits="userSpaceOnUse" x1="238.4542" y1="66.4421" x2="243.4949" y2="71.4828">
			<stop  offset="0" style="stop-color:#BA7418"/>
			<stop  offset="3.635014e-02" style="stop-color:#C38225"/>
			<stop  offset="0.2537" style="stop-color:#F4D06F"/>
			<stop  offset="0.3529" style="stop-color:#FADD96"/>
			<stop  offset="0.4353" style="stop-color:#FEE6B0"/>
			<stop  offset="0.4848" style="stop-color:#FFE9B9"/>
			<stop  offset="0.5325" style="stop-color:#FEE6AC"/>
			<stop  offset="0.62" style="stop-color:#FBDD8B"/>
			<stop  offset="0.6667" style="stop-color:#F9D876"/>
			<stop  offset="0.7299" style="stop-color:#F1CB6A"/>
			<stop  offset="0.8466" style="stop-color:#DCA94A"/>
			<stop  offset="1" style="stop-color:#BA7418"/>
		</linearGradient>
		<polygon class="st28" points="241,64.9 242.1,67.2 244.6,67.5 242.8,69.3 243.2,71.8 241,70.6 238.7,71.8 239.2,69.3 237.4,67.5 
			239.9,67.2 		"/>
	</g>
	<g class="st29">
		<g class="st30">
			<linearGradient id="SVGID_28_" gradientUnits="userSpaceOnUse" x1="170.913" y1="35.8925" x2="270.769" y2="147.5797">
				<stop  offset="0" style="stop-color:#005770"/>
				<stop  offset="0.2078" style="stop-color:#005A6E"/>
				<stop  offset="0.3364" style="stop-color:#006269"/>
				<stop  offset="0.4435" style="stop-color:#007161"/>
				<stop  offset="0.5388" style="stop-color:#008555"/>
				<stop  offset="0.6263" style="stop-color:#00A045"/>
				<stop  offset="0.7068" style="stop-color:#00C032"/>
				<stop  offset="0.7827" style="stop-color:#00E61B"/>
				<stop  offset="0.7863" style="stop-color:#00E81A"/>
			</linearGradient>
			<path class="st31" d="M212.2,45.7c1.7,1,3.3,2.3,4.8,3.8c9.7,9.7,9.7,25.5,0,35.2c-9.7,9.7-24.3,9.5-33.6-0.7
				c9.3,7.7,22.2-1.3,5.8-11.9c-7.9-5.1-14.8-7.6-10.9-17.4c-6.4,10-5.3,23.6,3.5,32.3c10.1,10.1,26.5,10.1,36.7,0
				c10.2-10.2,10.1-26.5,0-36.6C216.7,48.5,214.5,46.9,212.2,45.7z"/>
			<linearGradient id="SVGID_29_" gradientUnits="userSpaceOnUse" x1="170.9463" y1="35.8627" x2="270.8023" y2="147.55">
				<stop  offset="0" style="stop-color:#005770"/>
				<stop  offset="0.2078" style="stop-color:#005A6E"/>
				<stop  offset="0.3364" style="stop-color:#006269"/>
				<stop  offset="0.4435" style="stop-color:#007161"/>
				<stop  offset="0.5388" style="stop-color:#008555"/>
				<stop  offset="0.6263" style="stop-color:#00A045"/>
				<stop  offset="0.7068" style="stop-color:#00C032"/>
				<stop  offset="0.7827" style="stop-color:#00E61B"/>
				<stop  offset="0.7863" style="stop-color:#00E81A"/>
			</linearGradient>
			<path class="st32" d="M202.4,41.6c0.1,1.2,0.2,2.4,0.2,3.6c0,10.9-4.2,20.6-10.8,26.9c2.3,1.7,4.6,3.8,5.8,6.2
				c1.1,2.1,1.4,4.5,0.1,6.7c-1.3,2.2-3.8,3.2-6.2,3.3c9,0.9,13.3-5.4,14.6-13.5C208.4,61.6,204.5,46.5,202.4,41.6L202.4,41.6z"/>
			<linearGradient id="SVGID_30_" gradientUnits="userSpaceOnUse" x1="173.8583" y1="33.2592" x2="273.7143" y2="144.9464">
				<stop  offset="0" style="stop-color:#005770"/>
				<stop  offset="0.2078" style="stop-color:#005A6E"/>
				<stop  offset="0.3364" style="stop-color:#006269"/>
				<stop  offset="0.4435" style="stop-color:#007161"/>
				<stop  offset="0.5388" style="stop-color:#008555"/>
				<stop  offset="0.6263" style="stop-color:#00A045"/>
				<stop  offset="0.7068" style="stop-color:#00C032"/>
				<stop  offset="0.7827" style="stop-color:#00E61B"/>
				<stop  offset="0.7863" style="stop-color:#00E81A"/>
			</linearGradient>
			<path class="st33" d="M198.1,55.6c0.1-0.3,0.1-0.7,0.1-1c0-3.5-2.8-6.3-6.3-6.3c-3.5,0-6.3,2.8-6.3,6.3c0,3.5,2.8,6.3,6.3,6.3
				c0.5,0,1-0.1,1.5-0.2c-5,3.8-13.4,2.7-13.7-5.1c-0.8,2.2-1.3,4.7-0.2,7c0.8,1.7,2.5,3,4,4c2.2,1.5,4.5,2.8,6.7,4.3
				c2.6,1.7,5.6,4,7.2,6.8c4.1-5.5,6.7-14,6.7-23.6c0-4.5-0.6-8.7-1.6-12.5C202.7,46.4,200.8,51.6,198.1,55.6z"/>
			<linearGradient id="SVGID_31_" gradientUnits="userSpaceOnUse" x1="172.7155" y1="34.281" x2="272.5714" y2="145.9682">
				<stop  offset="0" style="stop-color:#005770"/>
				<stop  offset="0.2078" style="stop-color:#005A6E"/>
				<stop  offset="0.3364" style="stop-color:#006269"/>
				<stop  offset="0.4435" style="stop-color:#007161"/>
				<stop  offset="0.5388" style="stop-color:#008555"/>
				<stop  offset="0.6263" style="stop-color:#00A045"/>
				<stop  offset="0.7068" style="stop-color:#00C032"/>
				<stop  offset="0.7827" style="stop-color:#00E61B"/>
				<stop  offset="0.7863" style="stop-color:#00E81A"/>
			</linearGradient>
			<path class="st34" d="M220.9,60.4c-2.7,15.4-12.8,27.3-25.2,29.3l0,0c1,0.3,3.3,0.7,3.8,0.7c15.2,1,27.5-15.2,22.3-31.1
				C221.5,59.8,221.2,60.1,220.9,60.4z"/>
			<linearGradient id="SVGID_32_" gradientUnits="userSpaceOnUse" x1="173.2625" y1="33.7919" x2="273.1185" y2="145.4792">
				<stop  offset="0" style="stop-color:#005770"/>
				<stop  offset="0.2078" style="stop-color:#005A6E"/>
				<stop  offset="0.3364" style="stop-color:#006269"/>
				<stop  offset="0.4435" style="stop-color:#007161"/>
				<stop  offset="0.5388" style="stop-color:#008555"/>
				<stop  offset="0.6263" style="stop-color:#00A045"/>
				<stop  offset="0.7068" style="stop-color:#00C032"/>
				<stop  offset="0.7827" style="stop-color:#00E61B"/>
				<stop  offset="0.7863" style="stop-color:#00E81A"/>
			</linearGradient>
			<path class="st35" d="M216.5,60.2c0.3,0,0.5,0,0.8,0c1.9-0.3,2.6-2.9,1.4-5.7c-1.2-2.9-3.7-5-5.6-4.7c-1.6,0.2-2.3,1.9-1.9,4.1
				c-2.8-4.2-5.4-9.2-7.3-12.3c2.6,8.5,4.5,13.9,4.6,24.2c0.1,10.9-2.5,21.6-12.9,24c0.1,0,0.7-0.1,0.9-0.1
				c13.3-1.8,23.8-14.4,25.3-30.3c0,0-0.2,0.3-0.3,0.4C220,61.7,218.3,61.5,216.5,60.2z"/>
		</g>
		<g class="st30">
			<linearGradient id="SVGID_33_" gradientUnits="userSpaceOnUse" x1="170.913" y1="35.8925" x2="270.769" y2="147.5797">
				<stop  offset="0" style="stop-color:#005770"/>
				<stop  offset="0.2078" style="stop-color:#005A6E"/>
				<stop  offset="0.3364" style="stop-color:#006269"/>
				<stop  offset="0.4435" style="stop-color:#007161"/>
				<stop  offset="0.5388" style="stop-color:#008555"/>
				<stop  offset="0.6263" style="stop-color:#00A045"/>
				<stop  offset="0.7068" style="stop-color:#00C032"/>
				<stop  offset="0.7827" style="stop-color:#00E61B"/>
				<stop  offset="0.7863" style="stop-color:#00E81A"/>
			</linearGradient>
			<path class="st36" d="M212.2,45.7c1.7,1,3.3,2.3,4.8,3.8c9.7,9.7,9.7,25.5,0,35.2c-9.7,9.7-24.3,9.5-33.6-0.7
				c9.3,7.7,22.2-1.3,5.8-11.9c-7.9-5.1-14.8-7.6-10.9-17.4c-6.4,10-5.3,23.6,3.5,32.3c10.1,10.1,26.5,10.1,36.7,0
				c10.2-10.2,10.1-26.5,0-36.6C216.7,48.5,214.5,46.9,212.2,45.7z"/>
			<linearGradient id="SVGID_34_" gradientUnits="userSpaceOnUse" x1="170.9463" y1="35.8627" x2="270.8023" y2="147.55">
				<stop  offset="0" style="stop-color:#005770"/>
				<stop  offset="0.2078" style="stop-color:#005A6E"/>
				<stop  offset="0.3364" style="stop-color:#006269"/>
				<stop  offset="0.4435" style="stop-color:#007161"/>
				<stop  offset="0.5388" style="stop-color:#008555"/>
				<stop  offset="0.6263" style="stop-color:#00A045"/>
				<stop  offset="0.7068" style="stop-color:#00C032"/>
				<stop  offset="0.7827" style="stop-color:#00E61B"/>
				<stop  offset="0.7863" style="stop-color:#00E81A"/>
			</linearGradient>
			<path class="st37" d="M202.4,41.6c0.1,1.2,0.2,2.4,0.2,3.6c0,10.9-4.2,20.6-10.8,26.9c2.3,1.7,4.6,3.8,5.8,6.2
				c1.1,2.1,1.4,4.5,0.1,6.7c-1.3,2.2-3.8,3.2-6.2,3.3c9,0.9,13.3-5.4,14.6-13.5C208.4,61.6,204.5,46.5,202.4,41.6L202.4,41.6z"/>
			<linearGradient id="SVGID_35_" gradientUnits="userSpaceOnUse" x1="173.8583" y1="33.2592" x2="273.7143" y2="144.9464">
				<stop  offset="0" style="stop-color:#005770"/>
				<stop  offset="0.2078" style="stop-color:#005A6E"/>
				<stop  offset="0.3364" style="stop-color:#006269"/>
				<stop  offset="0.4435" style="stop-color:#007161"/>
				<stop  offset="0.5388" style="stop-color:#008555"/>
				<stop  offset="0.6263" style="stop-color:#00A045"/>
				<stop  offset="0.7068" style="stop-color:#00C032"/>
				<stop  offset="0.7827" style="stop-color:#00E61B"/>
				<stop  offset="0.7863" style="stop-color:#00E81A"/>
			</linearGradient>
			<path class="st38" d="M198.1,55.6c0.1-0.3,0.1-0.7,0.1-1c0-3.5-2.8-6.3-6.3-6.3c-3.5,0-6.3,2.8-6.3,6.3c0,3.5,2.8,6.3,6.3,6.3
				c0.5,0,1-0.1,1.5-0.2c-5,3.8-13.4,2.7-13.7-5.1c-0.8,2.2-1.3,4.7-0.2,7c0.8,1.7,2.5,3,4,4c2.2,1.5,4.5,2.8,6.7,4.3
				c2.6,1.7,5.6,4,7.2,6.8c4.1-5.5,6.7-14,6.7-23.6c0-4.5-0.6-8.7-1.6-12.5C202.7,46.4,200.8,51.6,198.1,55.6z"/>
			<linearGradient id="SVGID_36_" gradientUnits="userSpaceOnUse" x1="172.7155" y1="34.281" x2="272.5714" y2="145.9682">
				<stop  offset="0" style="stop-color:#005770"/>
				<stop  offset="0.2078" style="stop-color:#005A6E"/>
				<stop  offset="0.3364" style="stop-color:#006269"/>
				<stop  offset="0.4435" style="stop-color:#007161"/>
				<stop  offset="0.5388" style="stop-color:#008555"/>
				<stop  offset="0.6263" style="stop-color:#00A045"/>
				<stop  offset="0.7068" style="stop-color:#00C032"/>
				<stop  offset="0.7827" style="stop-color:#00E61B"/>
				<stop  offset="0.7863" style="stop-color:#00E81A"/>
			</linearGradient>
			<path class="st39" d="M220.9,60.4c-2.7,15.4-12.8,27.3-25.2,29.3l0,0c1,0.3,3.3,0.7,3.8,0.7c15.2,1,27.5-15.2,22.3-31.1
				C221.5,59.8,221.2,60.1,220.9,60.4z"/>
			<linearGradient id="SVGID_37_" gradientUnits="userSpaceOnUse" x1="173.2625" y1="33.7919" x2="273.1185" y2="145.4792">
				<stop  offset="0" style="stop-color:#005770"/>
				<stop  offset="0.2078" style="stop-color:#005A6E"/>
				<stop  offset="0.3364" style="stop-color:#006269"/>
				<stop  offset="0.4435" style="stop-color:#007161"/>
				<stop  offset="0.5388" style="stop-color:#008555"/>
				<stop  offset="0.6263" style="stop-color:#00A045"/>
				<stop  offset="0.7068" style="stop-color:#00C032"/>
				<stop  offset="0.7827" style="stop-color:#00E61B"/>
				<stop  offset="0.7863" style="stop-color:#00E81A"/>
			</linearGradient>
			<path class="st40" d="M216.5,60.2c0.3,0,0.5,0,0.8,0c1.9-0.3,2.6-2.9,1.4-5.7c-1.2-2.9-3.7-5-5.6-4.7c-1.6,0.2-2.3,1.9-1.9,4.1
				c-2.8-4.2-5.4-9.2-7.3-12.3c2.6,8.5,4.5,13.9,4.6,24.2c0.1,10.9-2.5,21.6-12.9,24c0.1,0,0.7-0.1,0.9-0.1
				c13.3-1.8,23.8-14.4,25.3-30.3c0,0-0.2,0.3-0.3,0.4C220,61.7,218.3,61.5,216.5,60.2z"/>
		</g>
	</g>
	<g class="st29">
		<linearGradient id="SVGID_38_" gradientUnits="userSpaceOnUse" x1="179.9344" y1="44.5138" x2="230.4344" y2="100.0138">
			<stop  offset="0" style="stop-color:#005770"/>
			<stop  offset="0.2078" style="stop-color:#005A6E"/>
			<stop  offset="0.3364" style="stop-color:#006269"/>
			<stop  offset="0.4435" style="stop-color:#007161"/>
			<stop  offset="0.5388" style="stop-color:#008555"/>
			<stop  offset="0.6263" style="stop-color:#00A045"/>
			<stop  offset="0.7068" style="stop-color:#00C032"/>
			<stop  offset="0.7827" style="stop-color:#00E61B"/>
			<stop  offset="0.7863" style="stop-color:#00E81A"/>
		</linearGradient>
		<path class="st41" d="M202.9,61.5h13.2c3.6,0,6.6-2.9,6.6-6.6h-22.4h-5.1v0c0,0-0.1,0-0.1,0c-9.5,0-17.2,7.7-17.2,17.2
			c0,9.5,7.7,17.2,17.2,17.2c0.5,0,0.9,0,1.3-0.1c0,0,0,0,0,0c8.9-0.7,15.9-8.1,15.9-17.2c0-0.4,0-0.9-0.1-1.3h0.4
			c3.6,0,6.6-2.9,6.6-6.6v-0.2h-8.9H202h-6.8v0c0,0-0.1,0-0.1,0c-4.5,0-8.1,3.6-8.1,8.1c0,4.5,3.6,8.1,8.1,8.1c4,0,7.3-2.9,8-6.7
			h-8.1c-0.7,0-1.3-0.6-1.3-1.3c0-0.4,0.1-0.7,0.4-0.9c0.2-0.2,0.6-0.4,0.9-0.4h0.2v0h10.5c0.1,0.4,0.1,0.8,0.1,1.3
			c0,3.2-1.4,6.1-3.7,8.1c-0.1,0.1-0.3,0.2-0.4,0.3c-0.1,0.1-0.2,0.2-0.4,0.3c-0.1,0.1-0.3,0.2-0.4,0.3c-0.1,0.1-0.3,0.2-0.4,0.3
			c-0.1,0.1-0.3,0.2-0.4,0.2c-0.1,0.1-0.3,0.1-0.5,0.2c-0.1,0.1-0.3,0.1-0.4,0.2c-0.2,0.1-0.3,0.1-0.5,0.2c-0.1,0.1-0.3,0.1-0.4,0.1
			c-0.2,0.1-0.4,0.1-0.6,0.1c-0.1,0-0.3,0.1-0.4,0.1c-0.2,0-0.4,0.1-0.7,0.1c-0.1,0-0.2,0-0.4,0.1c-0.3,0-0.7,0.1-1,0.1
			c-5.9,0-10.7-4.8-10.7-10.7c0-5.9,4.8-10.7,10.7-10.7c0,0,0,0,0,0v0h0.1v0H202.9z"/>
		<g class="st42">
			<linearGradient id="SVGID_39_" gradientUnits="userSpaceOnUse" x1="175.9554" y1="48.1344" x2="226.4554" y2="103.6344">
				<stop  offset="0" style="stop-color:#005770"/>
				<stop  offset="0.2078" style="stop-color:#005A6E"/>
				<stop  offset="0.3364" style="stop-color:#006269"/>
				<stop  offset="0.4435" style="stop-color:#007161"/>
				<stop  offset="0.5388" style="stop-color:#008555"/>
				<stop  offset="0.6263" style="stop-color:#00A045"/>
				<stop  offset="0.7068" style="stop-color:#00C032"/>
				<stop  offset="0.7827" style="stop-color:#00E61B"/>
				<stop  offset="0.7863" style="stop-color:#00E81A"/>
			</linearGradient>
			<path class="st43" d="M194.9,73.5h7.9c0.1-0.2,0.1-0.5,0.2-0.7h-8.1c-0.6,0-1.1-0.4-1.2-1c0,0.1-0.1,0.2-0.1,0.4
				C193.6,72.9,194.2,73.5,194.9,73.5z"/>
			<linearGradient id="SVGID_40_" gradientUnits="userSpaceOnUse" x1="173.5153" y1="50.3547" x2="224.0153" y2="105.8547">
				<stop  offset="0" style="stop-color:#005770"/>
				<stop  offset="0.2078" style="stop-color:#005A6E"/>
				<stop  offset="0.3364" style="stop-color:#006269"/>
				<stop  offset="0.4435" style="stop-color:#007161"/>
				<stop  offset="0.5388" style="stop-color:#008555"/>
				<stop  offset="0.6263" style="stop-color:#00A045"/>
				<stop  offset="0.7068" style="stop-color:#00C032"/>
				<stop  offset="0.7827" style="stop-color:#00E61B"/>
				<stop  offset="0.7863" style="stop-color:#00E81A"/>
			</linearGradient>
			<path class="st44" d="M195.1,82.8c0.4,0,0.7,0,1-0.1c0.1,0,0.2,0,0.4-0.1c0.2,0,0.4-0.1,0.7-0.1c0.1,0,0.3-0.1,0.4-0.1
				c0.2,0,0.4-0.1,0.6-0.1c0.1,0,0.3-0.1,0.4-0.1c0.2-0.1,0.3-0.1,0.5-0.2c0.2-0.1,0.3-0.1,0.4-0.2c0.2-0.1,0.3-0.1,0.5-0.2
				c0.1-0.1,0.3-0.2,0.4-0.2c0.1-0.1,0.3-0.2,0.4-0.3c0.1-0.1,0.3-0.2,0.4-0.3c0.1-0.1,0.3-0.2,0.4-0.3c0.1-0.1,0.3-0.2,0.4-0.3
				c2.3-2,3.7-4.8,3.7-8.1c0-0.1,0-0.2,0-0.3c-0.1,3.1-1.5,5.8-3.7,7.7c-0.1,0.1-0.3,0.2-0.4,0.3c-0.1,0.1-0.2,0.2-0.4,0.3
				c-0.1,0.1-0.3,0.2-0.4,0.3c-0.1,0.1-0.3,0.2-0.4,0.3c-0.1,0.1-0.3,0.2-0.4,0.2c-0.1,0.1-0.3,0.1-0.5,0.2
				c-0.1,0.1-0.3,0.1-0.4,0.2c-0.2,0.1-0.3,0.1-0.5,0.2c-0.1,0.1-0.3,0.1-0.4,0.1c-0.2,0.1-0.4,0.1-0.6,0.1c-0.1,0-0.3,0.1-0.4,0.1
				c-0.2,0-0.4,0.1-0.7,0.1c-0.1,0-0.2,0-0.4,0.1c-0.3,0-0.7,0.1-1,0.1c-5.8,0-10.4-4.6-10.6-10.3c0,0.1,0,0.2,0,0.4
				C184.4,78,189.2,82.8,195.1,82.8z"/>
			<linearGradient id="SVGID_41_" gradientUnits="userSpaceOnUse" x1="181.8619" y1="42.76" x2="232.3619" y2="98.26">
				<stop  offset="0" style="stop-color:#005770"/>
				<stop  offset="0.2078" style="stop-color:#005A6E"/>
				<stop  offset="0.3364" style="stop-color:#006269"/>
				<stop  offset="0.4435" style="stop-color:#007161"/>
				<stop  offset="0.5388" style="stop-color:#008555"/>
				<stop  offset="0.6263" style="stop-color:#00A045"/>
				<stop  offset="0.7068" style="stop-color:#00C032"/>
				<stop  offset="0.7827" style="stop-color:#00E61B"/>
				<stop  offset="0.7863" style="stop-color:#00E81A"/>
			</linearGradient>
			<path class="st45" d="M195.1,54.9C195.1,54.9,195.1,54.9,195.1,54.9L195.1,54.9l5.2,0h22.3c0-0.2,0.1-0.5,0.1-0.7h-22.4h-5.1v0
				c0,0-0.1,0-0.1,0c-9.5,0-17.2,7.7-17.2,17.2c0,0.1,0,0.2,0,0.4C178,62.4,185.7,54.9,195.1,54.9z"/>
			<linearGradient id="SVGID_42_" gradientUnits="userSpaceOnUse" x1="184.2732" y1="40.5659" x2="234.7732" y2="96.0659">
				<stop  offset="0" style="stop-color:#005770"/>
				<stop  offset="0.2078" style="stop-color:#005A6E"/>
				<stop  offset="0.3364" style="stop-color:#006269"/>
				<stop  offset="0.4435" style="stop-color:#007161"/>
				<stop  offset="0.5388" style="stop-color:#008555"/>
				<stop  offset="0.6263" style="stop-color:#00A045"/>
				<stop  offset="0.7068" style="stop-color:#00C032"/>
				<stop  offset="0.7827" style="stop-color:#00E61B"/>
				<stop  offset="0.7863" style="stop-color:#00E81A"/>
			</linearGradient>
			<path class="st46" d="M212.2,70.8c0,0.3,0,0.6,0.1,1c0-0.1,0-0.3,0-0.4C212.3,71.2,212.3,71,212.2,70.8L212.2,70.8z"/>
			<linearGradient id="SVGID_43_" gradientUnits="userSpaceOnUse" x1="181.1428" y1="43.4143" x2="231.6428" y2="98.9143">
				<stop  offset="0" style="stop-color:#005770"/>
				<stop  offset="0.2078" style="stop-color:#005A6E"/>
				<stop  offset="0.3364" style="stop-color:#006269"/>
				<stop  offset="0.4435" style="stop-color:#007161"/>
				<stop  offset="0.5388" style="stop-color:#008555"/>
				<stop  offset="0.6263" style="stop-color:#00A045"/>
				<stop  offset="0.7068" style="stop-color:#00C032"/>
				<stop  offset="0.7827" style="stop-color:#00E61B"/>
				<stop  offset="0.7863" style="stop-color:#00E81A"/>
			</linearGradient>
			<path class="st47" d="M202,63.4h-6.8v0c0,0-0.1,0-0.1,0c-4.5,0-8.1,3.6-8.1,8.1c0,0.1,0,0.2,0,0.4c0.2-4.3,3.7-7.7,8.1-7.7
				c0,0,0.1,0,0.1,0v0h6.8h8.3h8.9c0-0.2,0.1-0.3,0.1-0.5v-0.2h-8.9H202z"/>
		</g>
	</g>
	<g class="st48">
		<g class="st42">
			<g>
				<g>
					<polygon class="st49" points="201.1,81.7 201.1,94.3 216.7,72.4 					"/>
				</g>
				<g>
					<polygon class="st49" points="216.1,68.3 201.1,43.3 201.1,61.5 					"/>
					<polygon class="st49" points="201.1,62.9 201.1,78.4 216,69.7 					"/>
				</g>
				<g>
					<polygon class="st49" points="184.7,68.3 199.8,43.3 199.8,61.5 					"/>
					<polygon class="st49" points="199.8,62.9 199.8,78.4 184.8,69.7 					"/>
				</g>
				<g>
					<polygon class="st49" points="199.7,81.7 199.7,94.3 184.1,72.4 					"/>
				</g>
			</g>
		</g>
		<g class="st42">
			<g>
				<g>
					
						<linearGradient id="SVGID_44_" gradientUnits="userSpaceOnUse" x1="87.619" y1="57.5703" x2="108.119" y2="89.237" gradientTransform="matrix(1 0 0 1 108.25 5.3407)">
						<stop  offset="0" style="stop-color:#005770"/>
						<stop  offset="0.2078" style="stop-color:#005A6E"/>
						<stop  offset="0.3364" style="stop-color:#006269"/>
						<stop  offset="0.4435" style="stop-color:#007161"/>
						<stop  offset="0.5388" style="stop-color:#008555"/>
						<stop  offset="0.6263" style="stop-color:#00A045"/>
						<stop  offset="0.7068" style="stop-color:#00C032"/>
						<stop  offset="0.7827" style="stop-color:#00E61B"/>
						<stop  offset="0.7863" style="stop-color:#00E81A"/>
					</linearGradient>
					<polygon class="st50" points="201.1,81.7 201.1,94.3 216.7,72.4 					"/>
				</g>
				<g>
					
						<linearGradient id="SVGID_45_" gradientUnits="userSpaceOnUse" x1="87.619" y1="57.5703" x2="108.119" y2="89.237" gradientTransform="matrix(1 0 0 1 108.25 5.3407)">
						<stop  offset="0" style="stop-color:#005770"/>
						<stop  offset="0.2078" style="stop-color:#005A6E"/>
						<stop  offset="0.3364" style="stop-color:#006269"/>
						<stop  offset="0.4435" style="stop-color:#007161"/>
						<stop  offset="0.5388" style="stop-color:#008555"/>
						<stop  offset="0.6263" style="stop-color:#00A045"/>
						<stop  offset="0.7068" style="stop-color:#00C032"/>
						<stop  offset="0.7827" style="stop-color:#00E61B"/>
						<stop  offset="0.7863" style="stop-color:#00E81A"/>
					</linearGradient>
					<polygon class="st51" points="216.1,68.3 201.1,43.3 201.1,61.5 					"/>
					
						<linearGradient id="SVGID_46_" gradientUnits="userSpaceOnUse" x1="87.619" y1="57.5703" x2="108.119" y2="89.237" gradientTransform="matrix(1 0 0 1 108.25 5.3407)">
						<stop  offset="0" style="stop-color:#005770"/>
						<stop  offset="0.2078" style="stop-color:#005A6E"/>
						<stop  offset="0.3364" style="stop-color:#006269"/>
						<stop  offset="0.4435" style="stop-color:#007161"/>
						<stop  offset="0.5388" style="stop-color:#008555"/>
						<stop  offset="0.6263" style="stop-color:#00A045"/>
						<stop  offset="0.7068" style="stop-color:#00C032"/>
						<stop  offset="0.7827" style="stop-color:#00E61B"/>
						<stop  offset="0.7863" style="stop-color:#00E81A"/>
					</linearGradient>
					<polygon class="st52" points="201.1,62.9 201.1,78.4 216,69.7 					"/>
				</g>
				<g>
					
						<linearGradient id="SVGID_47_" gradientUnits="userSpaceOnUse" x1="87.619" y1="57.5703" x2="108.119" y2="89.237" gradientTransform="matrix(1 0 0 1 108.25 5.3407)">
						<stop  offset="0" style="stop-color:#005770"/>
						<stop  offset="0.2078" style="stop-color:#005A6E"/>
						<stop  offset="0.3364" style="stop-color:#006269"/>
						<stop  offset="0.4435" style="stop-color:#007161"/>
						<stop  offset="0.5388" style="stop-color:#008555"/>
						<stop  offset="0.6263" style="stop-color:#00A045"/>
						<stop  offset="0.7068" style="stop-color:#00C032"/>
						<stop  offset="0.7827" style="stop-color:#00E61B"/>
						<stop  offset="0.7863" style="stop-color:#00E81A"/>
					</linearGradient>
					<polygon class="st53" points="184.7,68.3 199.8,43.3 199.8,61.5 					"/>
					
						<linearGradient id="SVGID_48_" gradientUnits="userSpaceOnUse" x1="87.619" y1="57.5703" x2="108.119" y2="89.237" gradientTransform="matrix(1 0 0 1 108.25 5.3407)">
						<stop  offset="0" style="stop-color:#005770"/>
						<stop  offset="0.2078" style="stop-color:#005A6E"/>
						<stop  offset="0.3364" style="stop-color:#006269"/>
						<stop  offset="0.4435" style="stop-color:#007161"/>
						<stop  offset="0.5388" style="stop-color:#008555"/>
						<stop  offset="0.6263" style="stop-color:#00A045"/>
						<stop  offset="0.7068" style="stop-color:#00C032"/>
						<stop  offset="0.7827" style="stop-color:#00E61B"/>
						<stop  offset="0.7863" style="stop-color:#00E81A"/>
					</linearGradient>
					<polygon class="st54" points="199.8,62.9 199.8,78.4 184.8,69.7 					"/>
				</g>
				<g>
					
						<linearGradient id="SVGID_49_" gradientUnits="userSpaceOnUse" x1="87.619" y1="57.5703" x2="108.119" y2="89.237" gradientTransform="matrix(1 0 0 1 108.25 5.3407)">
						<stop  offset="0" style="stop-color:#005770"/>
						<stop  offset="0.2078" style="stop-color:#005A6E"/>
						<stop  offset="0.3364" style="stop-color:#006269"/>
						<stop  offset="0.4435" style="stop-color:#007161"/>
						<stop  offset="0.5388" style="stop-color:#008555"/>
						<stop  offset="0.6263" style="stop-color:#00A045"/>
						<stop  offset="0.7068" style="stop-color:#00C032"/>
						<stop  offset="0.7827" style="stop-color:#00E61B"/>
						<stop  offset="0.7863" style="stop-color:#00E81A"/>
					</linearGradient>
					<polygon class="st55" points="199.7,81.7 199.7,94.3 184.1,72.4 					"/>
				</g>
			</g>
		</g>
		<g class="st42">
			<g>
				<g>
					<polygon class="st56" points="201.1,82.8 201.1,95.4 216.7,73.5 					"/>
				</g>
				<g>
					<polygon class="st56" points="216.1,69.4 201.1,44.4 201.1,62.6 					"/>
					<polygon class="st56" points="201.1,64 201.1,79.5 216,70.8 					"/>
				</g>
				<g>
					<polygon class="st56" points="184.7,69.4 199.8,44.4 199.8,62.6 					"/>
					<polygon class="st56" points="199.8,64 199.8,79.5 184.8,70.8 					"/>
				</g>
				<g>
					<polygon class="st56" points="199.7,82.8 199.7,95.4 184.1,73.5 					"/>
				</g>
			</g>
		</g>
	</g>
	<g class="st57">
		<linearGradient id="SVGID_50_" gradientUnits="userSpaceOnUse" x1="185.0605" y1="50.5083" x2="221.5605" y2="97.0083">
			<stop  offset="0" style="stop-color:#005770"/>
			<stop  offset="0.2078" style="stop-color:#005A6E"/>
			<stop  offset="0.3364" style="stop-color:#006269"/>
			<stop  offset="0.4435" style="stop-color:#007161"/>
			<stop  offset="0.5388" style="stop-color:#008555"/>
			<stop  offset="0.6263" style="stop-color:#00A045"/>
			<stop  offset="0.7068" style="stop-color:#00C032"/>
			<stop  offset="0.7827" style="stop-color:#00E61B"/>
			<stop  offset="0.7863" style="stop-color:#00E81A"/>
		</linearGradient>
		<path class="st58" d="M209.6,84.4c-1.5,1.7-4,2.8-7.3,3.4v4.8h-4.6v-4.8c-3.5-0.5-5.9-1.7-7.3-3.7c-0.6-0.9-1.1-2-1.5-3.3
			l-0.4-2.1l-0.2-2.7h7v1.3l0.2,1.6c0.2,0.7,0.4,1.2,0.6,1.5c0.4,0.5,1.2,1.1,2.5,1.6v-9.4c-2.8-1.1-5-2.5-6.7-4.1
			c-1.9-2-2.9-4.4-2.9-7.2c0-2.8,0.7-5,2.1-6.6c1.4-1.6,3.6-2.8,6.6-3.6v-3.2h4.6V51c3.1,0.4,5.3,1.5,6.8,3.3
			c0.7,0.8,1.3,1.9,1.7,3.2c0.4,1.2,0.6,2.6,0.6,4.1h-6.8c0-1.2-0.2-2.3-0.6-3.1c-0.5-1-1.3-1.5-2.5-1.5v8.5c2.2,0.8,4,1.7,5.4,2.6
			c1.5,1,2.7,2.2,3.6,3.7c0.4,0.7,0.8,1.6,1.1,2.5c0.2,0.8,0.4,1.8,0.4,2.9C211.9,80.3,211.1,82.7,209.6,84.4z M198.7,56.9
			c-0.8,0.1-1.5,0.5-2.2,1.1c-0.6,0.6-0.9,1.3-0.9,2.2c0,0.8,0.3,1.6,1,2.4l0.9,0.8l1.3,0.8V56.9z M203.6,75.4
			c-0.4-0.5-1.2-1.1-2.3-1.6v8.2c1-0.2,1.8-0.7,2.5-1.4c0.6-0.7,0.9-1.5,0.9-2.5C204.6,77.1,204.3,76.2,203.6,75.4z"/>
	</g>
</g>
</svg>
