<?xml version="1.0" encoding="utf-8"?>
<!-- Generator: Adobe Illustrator 21.0.0, SVG Export Plug-In . SVG Version: 6.00 Build 0)  -->
<svg version="1.1" id="Layer_1" xmlns="http://www.w3.org/2000/svg" xmlns:xlink="http://www.w3.org/1999/xlink" x="0px" y="0px"
	 viewBox="0 0 18 18" style="enable-background:new 0 0 18 18;" xml:space="preserve">
<style type="text/css">
	.st0{fill:url(#SVGID_1_);}
	.st1{display:none;opacity:0.7;}
	.st2{display:inline;fill:url(#SVGID_2_);}
	.st3{fill:url(#SVGID_3_);}
</style>
<g>
	<linearGradient id="SVGID_1_" gradientUnits="userSpaceOnUse" x1="0" y1="9.4686" x2="18" y2="9.4686">
		<stop  offset="0" style="stop-color:#82D4AB"/>
		<stop  offset="1" style="stop-color:#B6DD8F"/>
	</linearGradient>
	<path class="st0" d="M7,2.6L7,2.6C6.9,2.6,6.9,2.6,7,2.6c-3.9,0-7,3.1-7,6.9s3.1,6.9,6.9,6.9s6.9-3.1,6.9-6.9
		c0-1.2-0.3-2.3-0.8-3.2H9.7c0.9,0.8,1.5,1.9,1.5,3.2c0,2.4-1.9,4.3-4.3,4.3s-4.3-1.9-4.3-4.3s1.9-4.3,4.3-4.3c0,0,0,0,0,0v0h0v0
		h8.4C16.8,5.2,18,4,18,2.6v0H7z"/>
	<g class="st1">
		<linearGradient id="SVGID_2_" gradientUnits="userSpaceOnUse" x1="10.7999" y1="8.6111" x2="0.1432" y2="10.8763">
			<stop  offset="0" style="stop-color:#82D4AB"/>
			<stop  offset="1" style="stop-color:#B6DD8F"/>
		</linearGradient>
		<path class="st2" d="M7,2.6L7,2.6C6.9,2.6,6.9,2.6,7,2.6c-3.9,0-7,3.1-7,6.9s3.1,6.9,6.9,6.9c0.2,0,0.4,0,0.5,0
			c1-1,1.8-2.2,2.3-3.7C9,13.3,8,13.7,6.9,13.7c-2.4,0-4.3-1.9-4.3-4.3s1.9-4.3,4.3-4.3c0,0,0,0,0,0v0h0v0h3.1
			C9.8,4.2,9.5,3.4,9,2.6H7z"/>
	</g>
	<linearGradient id="SVGID_3_" gradientUnits="userSpaceOnUse" x1="3.6777" y1="9.4682" x2="16.6144" y2="9.4682">
		<stop  offset="0" style="stop-color:#82D4AB"/>
		<stop  offset="1" style="stop-color:#B6DD8F"/>
	</linearGradient>
	<path class="st3" d="M7,6.2L7,6.2C6.9,6.2,6.9,6.2,7,6.2c-1.8,0-3.3,1.4-3.3,3.2c0,1.8,1.4,3.2,3.2,3.2c1.6,0,2.9-1.2,3.2-2.7H6.9
		c-0.3,0-0.5-0.2-0.5-0.5c0-0.1,0.1-0.3,0.2-0.4C6.6,9,6.7,9,6.9,9H7v0h7c1.5,0,2.6-1.2,2.6-2.6V6.2H7z"/>
</g>
</svg>
