<?xml version="1.0" encoding="utf-8"?>
<!-- Generator: Adobe Illustrator 21.0.0, SVG Export Plug-In . SVG Version: 6.00 Build 0)  -->
<svg version="1.1" id="Layer_1" xmlns="http://www.w3.org/2000/svg" xmlns:xlink="http://www.w3.org/1999/xlink" x="0px" y="0px"
	 viewBox="0 0 18 18" style="enable-background:new 0 0 18 18;" xml:space="preserve">
<style type="text/css">
	.st0{fill:url(#SVGID_1_);}
	.st1{fill:url(#I_than_1_);}
	.st2{fill:url(#SVGID_2_);}
	.st3{fill:url(#SVGID_3_);}
	.st4{fill:url(#SVGID_4_);}
	.st5{fill:url(#SVGID_5_);}
	.st6{fill:url(#B_1_);}
</style>
<g>
	<g id="I_cham">
		
			<linearGradient id="SVGID_1_" gradientUnits="userSpaceOnUse" x1="-0.4688" y1="18.4307" x2="23.7357" y2="18.4307" gradientTransform="matrix(1 0 0 -1 0 20)">
			<stop  offset="0" style="stop-color:#25F6FF"/>
			<stop  offset="0.2213" style="stop-color:#35D9FF"/>
			<stop  offset="0.6977" style="stop-color:#5C90FF"/>
			<stop  offset="1" style="stop-color:#775FFF"/>
		</linearGradient>
		<circle class="st0" cx="1.5" cy="1.6" r="1.3"/>
	</g>
	
		<linearGradient id="I_than_1_" gradientUnits="userSpaceOnUse" x1="-0.4688" y1="9.0593" x2="23.7357" y2="9.0593" gradientTransform="matrix(1 0 0 -1 0 20)">
		<stop  offset="0" style="stop-color:#25F6FF"/>
		<stop  offset="0.2213" style="stop-color:#35D9FF"/>
		<stop  offset="0.6977" style="stop-color:#5C90FF"/>
		<stop  offset="1" style="stop-color:#775FFF"/>
	</linearGradient>
	<path id="I_than" class="st1" d="M4.2,15.1c-0.7,0-1.3-0.6-1.3-1.2V5.5c0-0.7-0.6-1.3-1.3-1.3S0.2,4.8,0.2,5.5v8.2l0,0
		c0,0.1,0,0.2,0,0.3c0.1,1.6,1.2,3,2.7,3.5c0.4,0.2,0.9,0.2,1.3,0.2l0,0c0.3,0,0.6-0.1,0.8-0.1v-2.9C4.8,15,4.5,15.1,4.2,15.1z"/>
	
		<linearGradient id="SVGID_2_" gradientUnits="userSpaceOnUse" x1="-0.4688" y1="11.8682" x2="23.7357" y2="11.8682" gradientTransform="matrix(1 0 0 -1 0 20)">
		<stop  offset="0" style="stop-color:#25F6FF"/>
		<stop  offset="0.2213" style="stop-color:#35D9FF"/>
		<stop  offset="0.6977" style="stop-color:#5C90FF"/>
		<stop  offset="1" style="stop-color:#775FFF"/>
	</linearGradient>
	<path class="st2" d="M13.3,5.6c-0.1,1-0.7,1.8-1.7,2.2l0,0l0,0C11.3,7.9,11,8,10.8,8c-0.3,0-0.6-0.1-0.8-0.2l0,0l0,0
		C9.8,7.7,9.7,7.7,9.5,7.6l0,0l0,0C9.3,7.5,9.1,7.4,9,7.2c0-0.1-0.1-0.1-0.1-0.1v3.2c0,0,0.1,0,0.1,0.1c0.1,0,0.1,0,0.1,0.1
		c0.6,0.2,1.1,0.3,1.7,0.3c0.6,0,1.2-0.1,1.7-0.3c0.2-0.1,0.4-0.2,0.6-0.3c0.9-0.5,1.6-1.1,2.1-2C15.7,7.4,16,6.5,16,5.6H13.3z"/>
	<g id="r">
		
			<linearGradient id="SVGID_3_" gradientUnits="userSpaceOnUse" x1="-0.4688" y1="10.9234" x2="23.7357" y2="10.9234" gradientTransform="matrix(1 0 0 -1 0 20)">
			<stop  offset="0" style="stop-color:#25F6FF"/>
			<stop  offset="0.2213" style="stop-color:#35D9FF"/>
			<stop  offset="0.6977" style="stop-color:#5C90FF"/>
			<stop  offset="1" style="stop-color:#775FFF"/>
		</linearGradient>
		<path class="st3" d="M10.7,2.4c-1,0-2,0.5-2.5,1.3C8,4.1,7.8,4.5,7.7,4.9C7.6,5.1,7.6,5.3,7.6,5.5v4.2v6.1c0,0,0,0,0-0.1l0.1-0.1
			c0,0,0-0.1,0.1-0.1c0-0.1,0.1-0.1,0.1-0.1c0-0.1,0.1-0.1,0.1-0.1v-0.1c0-0.1,0-0.1,0.1-0.1l0,0v-0.1v-0.1v-0.1
			c0.2-0.4,0.2-0.9,0.2-1.3V10V5.5l0,0c0-0.1,0-0.1,0-0.2l0,0l0,0c0.1-0.6,0.3-1.2,0.7-1.6C9,3.6,9.2,3.4,9.4,3.3l0,0l0,0
			c0.1-0.1,0.3-0.1,0.4-0.2l0,0l0,0C10,3,10.4,2.9,10.6,2.9c0.3,0,0.6,0.1,0.8,0.2l0,0c0.8,0.3,1.4,1,1.6,1.8h0.6
			C13.5,3.5,12.2,2.4,10.7,2.4z"/>
		
			<linearGradient id="SVGID_4_" gradientUnits="userSpaceOnUse" x1="-0.4688" y1="10.8723" x2="23.7357" y2="10.8723" gradientTransform="matrix(1 0 0 -1 0 20)">
			<stop  offset="0" style="stop-color:#25F6FF"/>
			<stop  offset="0.2213" style="stop-color:#35D9FF"/>
			<stop  offset="0.6977" style="stop-color:#5C90FF"/>
			<stop  offset="1" style="stop-color:#775FFF"/>
		</linearGradient>
		<path class="st4" d="M10.7,1.3c-0.9,0-1.8,0.3-2.5,0.9C8.1,2.3,8,2.4,7.8,2.5C7.1,3.2,6.7,4,6.6,4.9c0,0.2-0.1,0.4-0.1,0.5v3.1
			v8.4l0,0l0.1-0.1l0.1-0.1c0,0,0.1,0,0.1-0.1l0.1-0.1l0.1-0.1l0.1-0.1c0.1,0,0.1-0.1,0.1-0.1c0,0,0,0,0.1-0.1l0.1-0.1V9.2V5.3l0,0
			c0-0.2,0-0.3,0.1-0.4c0.1-0.8,0.5-1.5,1-2c0.7-0.6,1.5-1,2.5-1c1.8,0,3.3,1.3,3.6,3.1h0.6c-0.1-0.9-0.5-1.7-1.2-2.4
			C12.9,1.7,11.8,1.3,10.7,1.3z"/>
		
			<linearGradient id="SVGID_5_" gradientUnits="userSpaceOnUse" x1="-0.4688" y1="11.1021" x2="23.7357" y2="11.1021" gradientTransform="matrix(1 0 0 -1 0 20)">
			<stop  offset="0" style="stop-color:#25F6FF"/>
			<stop  offset="0.2213" style="stop-color:#35D9FF"/>
			<stop  offset="0.6977" style="stop-color:#5C90FF"/>
			<stop  offset="1" style="stop-color:#775FFF"/>
		</linearGradient>
		<path class="st5" d="M12.4,0.5c-0.6-0.2-1.1-0.3-1.7-0.3S9.5,0.3,9,0.5c-0.1,0-0.1,0-0.1,0.1C8.6,0.7,8.4,0.8,8.2,0.9
			C6.7,1.7,5.6,3.3,5.5,5.1c0,0.1,0,0.2,0,0.4l0,0v12.1h0.1h0.1c0,0,0,0,0.1,0h0.1c0.1,0,0.1,0,0.1-0.1c0,0,0,0,0.1,0c0,0,0,0,0.1,0
			S6,17.5,6,17.5s0.1-0.1,0.1-0.1l0,0V7.7V5.3l0,0c0-0.2,0-0.3,0.1-0.4c0.2-1.4,1-2.7,2.1-3.4C9,1.1,9.9,0.8,10.8,0.8
			c2.4,0,4.4,1.8,4.6,4.1H16C15.7,2.9,14.3,1.2,12.4,0.5z"/>
	</g>
	
		<linearGradient id="B_1_" gradientUnits="userSpaceOnUse" x1="-0.4688" y1="7.4506" x2="23.7357" y2="7.4506" gradientTransform="matrix(1 0 0 -1 0 20)">
		<stop  offset="0" style="stop-color:#25F6FF"/>
		<stop  offset="0.2213" style="stop-color:#35D9FF"/>
		<stop  offset="0.6977" style="stop-color:#5C90FF"/>
		<stop  offset="1" style="stop-color:#775FFF"/>
	</linearGradient>
	<path id="B" class="st6" d="M15.2,8.1c-0.3-0.2-0.6-0.3-0.9-0.5c-0.5-0.2-1.1-0.3-1.7-0.3V10c0.2,0,0.3,0,0.5,0.1
		c0.1,0,0.2,0.1,0.4,0.1l0,0l0,0c1,0.4,1.7,1.3,1.7,2.4s-0.7,2-1.7,2.4l0,0l0,0c-0.3,0.1-0.5,0.2-0.8,0.2l0,0H8.7
		c-0.2,0.6-0.4,1.1-0.8,1.5v0.1l0,0c-0.1,0.2-0.2,0.3-0.3,0.4c0,0,0,0-0.1,0.1l0,0l0,0c-0.1,0.1-0.1,0.1-0.1,0.1l-0.1,0.1l0,0l0,0
		l-0.1,0.1c-0.1,0-0.1,0.1-0.1,0.1l0,0l0,0c0,0-0.1,0-0.1,0.1l-0.1,0.1l0,0l0,0l-0.1,0.1c-0.1,0-0.1,0.1-0.1,0.1l0,0l0,0
		c0,0,0,0-0.1,0.1s-0.1,0.1-0.2,0.1l0,0c0,0-0.1,0-0.1,0.1h5.9l0,0c0.6,0,1.1-0.1,1.7-0.3c2-0.7,3.5-2.7,3.5-4.9
		C17.7,10.7,16.7,9,15.2,8.1z"/>
</g>
</svg>
