<?xml version="1.0" encoding="utf-8"?>
<!-- Generator: Adobe Illustrator 21.0.0, SVG Export Plug-In . SVG Version: 6.00 Build 0)  -->
<svg version="1.1" id="Layer_1" xmlns="http://www.w3.org/2000/svg" xmlns:xlink="http://www.w3.org/1999/xlink" x="0px" y="0px"
	 viewBox="0 0 128 128" style="enable-background:new 0 0 128 128;" xml:space="preserve">
<style type="text/css">
	.st0{fill:#313F66;}
</style>
<g>
	<g id="I_cham">
		<circle class="st0" cx="16.6" cy="11.1" r="8.9"/>
	</g>
	<path id="I_than" class="st0" d="M35.1,103.9c-4.8,0-8.9-4.1-8.9-8.2V37.9c0-4.8-4.1-8.9-8.9-8.9s-9.6,4.1-9.6,8.9v56.4l0,0
		c0,0.7,0,1.4,0,2.1c0.7,11,8.2,20.6,18.6,24.1c2.7,1.4,6.2,1.4,8.9,1.4l0,0c2.1,0,4.1-0.7,5.5-0.7v-19.9
		C39.3,103.2,37.2,103.9,35.1,103.9z"/>
	<path class="st0" d="M97.7,38.6C97,45.4,92.9,50.9,86,53.7l0,0l0,0c-2.1,0.7-4.1,1.4-5.5,1.4c-2.1,0-4.1-0.7-5.5-1.4l0,0l0,0
		C73.6,53,73,53,71.6,52.3l0,0l0,0c-1.4-0.7-2.7-1.4-3.4-2.7c0-0.7-0.7-0.7-0.7-0.7v22c0,0,0.7,0,0.7,0.7c0.7,0,0.7,0,0.7,0.7
		c4.1,1.4,7.6,2.1,11.7,2.1c4.1,0,8.2-0.7,11.7-2.1c1.4-0.7,2.7-1.4,4.1-2.1c6.2-3.4,11-7.6,14.4-13.7c3.4-5.5,5.5-11.7,5.5-17.9
		H97.7z"/>
	<g id="r">
		<path class="st0" d="M79.8,16.6c-6.9,0-13.7,3.4-17.2,8.9c-1.4,2.7-2.7,5.5-3.4,8.2c-0.7,1.4-0.7,2.7-0.7,4.1v28.9v41.9
			c0,0,0,0,0-0.7l0.7-0.7c0,0,0-0.7,0.7-0.7c0-0.7,0.7-0.7,0.7-0.7c0-0.7,0.7-0.7,0.7-0.7v-0.7c0-0.7,0-0.7,0.7-0.7l0,0v-0.7v-0.7
			v-0.7c1.4-2.7,1.4-6.2,1.4-8.9V68.8V37.9l0,0c0-0.7,0-0.7,0-1.4l0,0l0,0c0.7-4.1,2.1-8.2,4.8-11c0-0.7,1.4-2.1,2.7-2.7l0,0l0,0
			c0.7-0.7,2.1-0.7,2.7-1.4l0,0l0,0c1.4-0.7,4.1-1.4,5.5-1.4c2.1,0,4.1,0.7,5.5,1.4l0,0c5.5,2.1,9.6,6.9,11,12.4h4.1
			C99.1,24.1,90.1,16.6,79.8,16.6z"/>
		<path class="st0" d="M79.8,9c-6.2,0-12.4,2.1-17.2,6.2c-0.7,0.7-1.4,1.4-2.7,2.1c-4.8,4.8-7.6,10.3-8.2,16.5
			c0,1.4-0.7,2.7-0.7,3.4v21.3v57.7l0,0l0.7-0.7l0.7-0.7c0,0,0.7,0,0.7-0.7l0.7-0.7l0.7-0.7l0.7-0.7c0.7,0,0.7-0.7,0.7-0.7
			s0,0,0.7-0.7l0.7-0.7V63.3V36.5l0,0c0-1.4,0-2.1,0.7-2.7c0.7-5.5,3.4-10.3,6.9-13.7c4.8-4.1,10.3-6.9,17.2-6.9
			c12.4,0,22.7,8.9,24.7,21.3h4.1c-0.7-6.2-3.4-11.7-8.2-16.5C94.9,11.8,87.4,9,79.8,9z"/>
		<path class="st0" d="M91.5,3.5c-4.1-1.4-7.6-2.1-11.7-2.1s-8.2,0.7-11.7,2.1c-0.7,0-0.7,0-0.7,0.7c-2.1,0.7-3.4,1.4-4.8,2.1
			c-10.3,5.5-17.9,16.5-18.6,28.9c0,0.7,0,1.4,0,2.7l0,0v83.2h0.7h0.7c0,0,0,0,0.7,0h0.7c0.7,0,0.7,0,0.7-0.7c0,0,0,0,0.7,0
			c0,0,0,0,0.7,0s-1.4,0-1.4,0l0.7-0.7l0,0V53V36.5l0,0c0-1.4,0-2.1,0.7-2.7c1.4-9.6,6.9-18.6,14.4-23.4c4.8-2.7,11-4.8,17.2-4.8
			c16.5,0,30.2,12.4,31.6,28.2h4.1C114.2,20,104.6,8.3,91.5,3.5z"/>
	</g>
	<path id="B" class="st0" d="M110.8,55.8c-2.1-1.4-4.1-2.1-6.2-3.4c-3.4-1.4-7.6-2.1-11.7-2.1v18.6c1.4,0,2.1,0,3.4,0.7
		c0.7,0,1.4,0.7,2.7,0.7l0,0l0,0c6.9,2.7,11.7,8.9,11.7,16.5c0,7.6-4.8,13.7-11.7,16.5l0,0l0,0c-2.1,0.7-3.4,1.4-5.5,1.4l0,0H66.1
		c-1.4,4.1-2.7,7.6-5.5,10.3v0.7l0,0c-0.7,1.4-1.4,2.1-2.1,2.7c0,0,0,0-0.7,0.7l0,0l0,0c-0.7,0.7-0.7,0.7-0.7,0.7l-0.7,0.7l0,0l0,0
		l-0.7,0.7c-0.7,0-0.7,0.7-0.7,0.7l0,0l0,0c0,0-0.7,0-0.7,0.7l-0.7,0.7l0,0l0,0l-0.7,0.7c-0.7,0-0.7,0.7-0.7,0.7l0,0l0,0
		c0,0,0,0-0.7,0.7c-0.7,0.7-0.7,0.7-1.4,0.7l0,0c0,0-0.7,0-0.7,0.7h40.6l0,0c4.1,0,7.6-0.7,11.7-2.1c13.7-4.8,24.1-18.6,24.1-33.7
		C127.9,73.6,121.1,61.9,110.8,55.8z"/>
</g>
</svg>
