<?xml version="1.0" encoding="utf-8"?>
<!-- Generator: Adobe Illustrator 21.0.0, SVG Export Plug-In . SVG Version: 6.00 Build 0)  -->
<svg version="1.1" id="Layer_1" xmlns="http://www.w3.org/2000/svg" xmlns:xlink="http://www.w3.org/1999/xlink" x="0px" y="0px"
	 viewBox="0 0 128 132.8" style="enable-background:new 0 0 128 132.8;" xml:space="preserve">
<style type="text/css">
	.st0{display:none;}
	.st1{display:inline;}
	.st2{filter:url(#Adobe_OpacityMaskFilter);}
	.st3{fill:#FFFFFF;}
	.st4{opacity:0.5;mask:url(#SVGID_1_);}
	.st5{fill:url(#SVGID_2_);}
	.st6{fill:url(#SVGID_3_);}
	.st7{fill:url(#SVGID_4_);}
	.st8{fill:url(#SVGID_5_);}
	.st9{fill:url(#SVGID_6_);}
	.st10{fill:url(#SVGID_7_);}
	.st11{fill:url(#SVGID_8_);}
	.st12{fill:url(#SVGID_9_);}
	.st13{fill:url(#SVGID_10_);}
	.st14{fill:url(#SVGID_11_);}
	.st15{fill:url(#SVGID_12_);}
	.st16{fill:url(#SVGID_13_);}
	.st17{fill:url(#SVGID_14_);}
	.st18{fill:url(#SVGID_15_);}
	.st19{fill:url(#SVGID_16_);}
	.st20{opacity:0.5;}
	.st21{fill:url(#SVGID_17_);}
	.st22{fill:url(#SVGID_18_);}
	.st23{fill:url(#SVGID_19_);}
	.st24{fill:url(#SVGID_20_);}
	.st25{fill:url(#SVGID_21_);}
	.st26{fill:url(#SVGID_22_);}
	.st27{fill:url(#SVGID_23_);}
	.st28{fill:url(#SVGID_24_);}
	.st29{fill:url(#SVGID_25_);}
	.st30{fill:url(#SVGID_26_);}
	.st31{fill:url(#SVGID_27_);}
	.st32{fill:url(#SVGID_28_);}
	.st33{fill:url(#SVGID_29_);}
	.st34{fill:url(#SVGID_30_);}
	.st35{fill:url(#SVGID_31_);}
	.st36{fill:url(#SVGID_32_);}
	.st37{fill:url(#SVGID_33_);}
	.st38{fill:url(#SVGID_34_);}
	.st39{fill:url(#SVGID_35_);}
	.st40{fill:url(#SVGID_36_);}
	.st41{fill:url(#SVGID_37_);}
	.st42{fill:url(#SVGID_38_);}
	.st43{fill:url(#SVGID_39_);}
	.st44{fill:url(#SVGID_40_);}
</style>
<g id="Layer_2">
</g>
<g>
	<g class="st0">
		<path class="st1" d="M64.3,11.6c25.3,0,45.9,20.6,45.9,45.9s-20.6,45.9-45.9,45.9S18.4,82.8,18.4,57.5S39,11.6,64.3,11.6
			 M64.3,5.3c-28.8,0-52.2,23.4-52.2,52.2s23.4,52.2,52.2,52.2s52.2-23.4,52.2-52.2S93.1,5.3,64.3,5.3L64.3,5.3z"/>
	</g>
</g>
<defs>
	<filter id="Adobe_OpacityMaskFilter" filterUnits="userSpaceOnUse" x="-48.7" y="-80.5" width="271.9" height="271.9">
		<feColorMatrix  type="matrix" values="1 0 0 0 0  0 1 0 0 0  0 0 1 0 0  0 0 0 1 0"/>
	</filter>
</defs>
<mask maskUnits="userSpaceOnUse" x="-48.7" y="-80.5" width="271.9" height="271.9" id="SVGID_1_">
	<g class="st2">
		<g>
			<polygon class="st3" points="10.9,19.6 10.9,138.8 64.1,138.8 117.3,138.8 117.2,19.6 64.1,10.5 			"/>
		</g>
	</g>
</mask>
<g class="st4">
	<g>
		
			<linearGradient id="SVGID_2_" gradientUnits="userSpaceOnUse" x1="1258.8334" y1="-76.3333" x2="1258.8334" y2="176.9502" gradientTransform="matrix(0 1 -1 0 39.959 -1177.7095)">
			<stop  offset="0" style="stop-color:#6B6B6B"/>
			<stop  offset="3.102066e-02" style="stop-color:#717171"/>
			<stop  offset="7.308919e-02" style="stop-color:#828282"/>
			<stop  offset="0.1215" style="stop-color:#9F9F9F"/>
			<stop  offset="0.1746" style="stop-color:#C7C7C7"/>
			<stop  offset="0.231" style="stop-color:#F9F9F9"/>
			<stop  offset="0.2373" style="stop-color:#FFFFFF"/>
			<stop  offset="0.5478" style="stop-color:#A3A3A3"/>
			<stop  offset="0.5492" style="stop-color:#FFFFFF"/>
			<stop  offset="0.6776" style="stop-color:#F2F2F2"/>
			<stop  offset="0.8182" style="stop-color:#DEDEDE"/>
			<stop  offset="0.8904" style="stop-color:#CBCBCB"/>
			<stop  offset="1" style="stop-color:#A7A7A7"/>
		</linearGradient>
		<polygon class="st5" points="2.7,191.1 222.9,-29.2 223.3,-28.8 3,191.4 		"/>
	</g>
	<g>
		
			<linearGradient id="SVGID_3_" gradientUnits="userSpaceOnUse" x1="1255.1669" y1="-76.3333" x2="1255.1669" y2="176.9502" gradientTransform="matrix(0 1 -1 0 39.959 -1177.7095)">
			<stop  offset="0" style="stop-color:#6B6B6B"/>
			<stop  offset="3.102066e-02" style="stop-color:#717171"/>
			<stop  offset="7.308919e-02" style="stop-color:#828282"/>
			<stop  offset="0.1215" style="stop-color:#9F9F9F"/>
			<stop  offset="0.1746" style="stop-color:#C7C7C7"/>
			<stop  offset="0.231" style="stop-color:#F9F9F9"/>
			<stop  offset="0.2373" style="stop-color:#FFFFFF"/>
			<stop  offset="0.5478" style="stop-color:#A3A3A3"/>
			<stop  offset="0.5492" style="stop-color:#FFFFFF"/>
			<stop  offset="0.6776" style="stop-color:#F2F2F2"/>
			<stop  offset="0.8182" style="stop-color:#DEDEDE"/>
			<stop  offset="0.8904" style="stop-color:#CBCBCB"/>
			<stop  offset="1" style="stop-color:#A7A7A7"/>
		</linearGradient>
		<polygon class="st6" points="-1,187.4 219.3,-32.8 219.6,-32.5 -0.7,187.8 		"/>
	</g>
	<g>
		
			<linearGradient id="SVGID_4_" gradientUnits="userSpaceOnUse" x1="1251.5006" y1="-76.3333" x2="1251.5006" y2="176.9502" gradientTransform="matrix(0 1 -1 0 39.959 -1177.7095)">
			<stop  offset="0" style="stop-color:#6B6B6B"/>
			<stop  offset="3.102066e-02" style="stop-color:#717171"/>
			<stop  offset="7.308919e-02" style="stop-color:#828282"/>
			<stop  offset="0.1215" style="stop-color:#9F9F9F"/>
			<stop  offset="0.1746" style="stop-color:#C7C7C7"/>
			<stop  offset="0.231" style="stop-color:#F9F9F9"/>
			<stop  offset="0.2373" style="stop-color:#FFFFFF"/>
			<stop  offset="0.5478" style="stop-color:#A3A3A3"/>
			<stop  offset="0.5492" style="stop-color:#FFFFFF"/>
			<stop  offset="0.6776" style="stop-color:#F2F2F2"/>
			<stop  offset="0.8182" style="stop-color:#DEDEDE"/>
			<stop  offset="0.8904" style="stop-color:#CBCBCB"/>
			<stop  offset="1" style="stop-color:#A7A7A7"/>
		</linearGradient>
		<polygon class="st7" points="-4.7,183.8 215.6,-36.5 215.9,-36.2 -4.3,184.1 		"/>
	</g>
	<g>
		
			<linearGradient id="SVGID_5_" gradientUnits="userSpaceOnUse" x1="1247.8344" y1="-76.3333" x2="1247.8344" y2="176.9502" gradientTransform="matrix(0 1 -1 0 39.959 -1177.7095)">
			<stop  offset="0" style="stop-color:#6B6B6B"/>
			<stop  offset="3.102066e-02" style="stop-color:#717171"/>
			<stop  offset="7.308919e-02" style="stop-color:#828282"/>
			<stop  offset="0.1215" style="stop-color:#9F9F9F"/>
			<stop  offset="0.1746" style="stop-color:#C7C7C7"/>
			<stop  offset="0.231" style="stop-color:#F9F9F9"/>
			<stop  offset="0.2373" style="stop-color:#FFFFFF"/>
			<stop  offset="0.5478" style="stop-color:#A3A3A3"/>
			<stop  offset="0.5492" style="stop-color:#FFFFFF"/>
			<stop  offset="0.6776" style="stop-color:#F2F2F2"/>
			<stop  offset="0.8182" style="stop-color:#DEDEDE"/>
			<stop  offset="0.8904" style="stop-color:#CBCBCB"/>
			<stop  offset="1" style="stop-color:#A7A7A7"/>
		</linearGradient>
		<polygon class="st8" points="-8.3,180.1 211.9,-40.2 212.3,-39.8 -8,180.4 		"/>
	</g>
	<g>
		
			<linearGradient id="SVGID_6_" gradientUnits="userSpaceOnUse" x1="1244.168" y1="-76.3333" x2="1244.168" y2="176.9502" gradientTransform="matrix(0 1 -1 0 39.959 -1177.7095)">
			<stop  offset="0" style="stop-color:#6B6B6B"/>
			<stop  offset="3.102066e-02" style="stop-color:#717171"/>
			<stop  offset="7.308919e-02" style="stop-color:#828282"/>
			<stop  offset="0.1215" style="stop-color:#9F9F9F"/>
			<stop  offset="0.1746" style="stop-color:#C7C7C7"/>
			<stop  offset="0.231" style="stop-color:#F9F9F9"/>
			<stop  offset="0.2373" style="stop-color:#FFFFFF"/>
			<stop  offset="0.5478" style="stop-color:#A3A3A3"/>
			<stop  offset="0.5492" style="stop-color:#FFFFFF"/>
			<stop  offset="0.6776" style="stop-color:#F2F2F2"/>
			<stop  offset="0.8182" style="stop-color:#DEDEDE"/>
			<stop  offset="0.8904" style="stop-color:#CBCBCB"/>
			<stop  offset="1" style="stop-color:#A7A7A7"/>
		</linearGradient>
		<polygon class="st9" points="-12,176.4 208.3,-43.8 208.6,-43.5 -11.7,176.8 		"/>
	</g>
	<g>
		
			<linearGradient id="SVGID_7_" gradientUnits="userSpaceOnUse" x1="1240.5017" y1="-76.3333" x2="1240.5017" y2="176.9502" gradientTransform="matrix(0 1 -1 0 39.959 -1177.7095)">
			<stop  offset="0" style="stop-color:#6B6B6B"/>
			<stop  offset="3.102066e-02" style="stop-color:#717171"/>
			<stop  offset="7.308919e-02" style="stop-color:#828282"/>
			<stop  offset="0.1215" style="stop-color:#9F9F9F"/>
			<stop  offset="0.1746" style="stop-color:#C7C7C7"/>
			<stop  offset="0.231" style="stop-color:#F9F9F9"/>
			<stop  offset="0.2373" style="stop-color:#FFFFFF"/>
			<stop  offset="0.5478" style="stop-color:#A3A3A3"/>
			<stop  offset="0.5492" style="stop-color:#FFFFFF"/>
			<stop  offset="0.6776" style="stop-color:#F2F2F2"/>
			<stop  offset="0.8182" style="stop-color:#DEDEDE"/>
			<stop  offset="0.8904" style="stop-color:#CBCBCB"/>
			<stop  offset="1" style="stop-color:#A7A7A7"/>
		</linearGradient>
		<polygon class="st10" points="-15.7,172.8 204.6,-47.5 204.9,-47.2 -15.3,173.1 		"/>
	</g>
	<g>
		
			<linearGradient id="SVGID_8_" gradientUnits="userSpaceOnUse" x1="1236.8354" y1="-76.3333" x2="1236.8354" y2="176.9502" gradientTransform="matrix(0 1 -1 0 39.959 -1177.7095)">
			<stop  offset="0" style="stop-color:#6B6B6B"/>
			<stop  offset="3.102066e-02" style="stop-color:#717171"/>
			<stop  offset="7.308919e-02" style="stop-color:#828282"/>
			<stop  offset="0.1215" style="stop-color:#9F9F9F"/>
			<stop  offset="0.1746" style="stop-color:#C7C7C7"/>
			<stop  offset="0.231" style="stop-color:#F9F9F9"/>
			<stop  offset="0.2373" style="stop-color:#FFFFFF"/>
			<stop  offset="0.5478" style="stop-color:#A3A3A3"/>
			<stop  offset="0.5492" style="stop-color:#FFFFFF"/>
			<stop  offset="0.6776" style="stop-color:#F2F2F2"/>
			<stop  offset="0.8182" style="stop-color:#DEDEDE"/>
			<stop  offset="0.8904" style="stop-color:#CBCBCB"/>
			<stop  offset="1" style="stop-color:#A7A7A7"/>
		</linearGradient>
		<polygon class="st11" points="-19.3,169.1 200.9,-51.2 201.3,-50.8 -19,169.4 		"/>
	</g>
	<g>
		
			<linearGradient id="SVGID_9_" gradientUnits="userSpaceOnUse" x1="1233.1689" y1="-76.3333" x2="1233.1689" y2="176.9502" gradientTransform="matrix(0 1 -1 0 39.959 -1177.7095)">
			<stop  offset="0" style="stop-color:#6B6B6B"/>
			<stop  offset="3.102066e-02" style="stop-color:#717171"/>
			<stop  offset="7.308919e-02" style="stop-color:#828282"/>
			<stop  offset="0.1215" style="stop-color:#9F9F9F"/>
			<stop  offset="0.1746" style="stop-color:#C7C7C7"/>
			<stop  offset="0.231" style="stop-color:#F9F9F9"/>
			<stop  offset="0.2373" style="stop-color:#FFFFFF"/>
			<stop  offset="0.5478" style="stop-color:#A3A3A3"/>
			<stop  offset="0.5492" style="stop-color:#FFFFFF"/>
			<stop  offset="0.6776" style="stop-color:#F2F2F2"/>
			<stop  offset="0.8182" style="stop-color:#DEDEDE"/>
			<stop  offset="0.8904" style="stop-color:#CBCBCB"/>
			<stop  offset="1" style="stop-color:#A7A7A7"/>
		</linearGradient>
		<polygon class="st12" points="-23,165.4 197.3,-54.8 197.6,-54.5 -22.7,165.8 		"/>
	</g>
	<g>
		
			<linearGradient id="SVGID_10_" gradientUnits="userSpaceOnUse" x1="1229.5024" y1="-76.3333" x2="1229.5024" y2="176.9502" gradientTransform="matrix(0 1 -1 0 39.959 -1177.7095)">
			<stop  offset="0" style="stop-color:#6B6B6B"/>
			<stop  offset="3.102066e-02" style="stop-color:#717171"/>
			<stop  offset="7.308919e-02" style="stop-color:#828282"/>
			<stop  offset="0.1215" style="stop-color:#9F9F9F"/>
			<stop  offset="0.1746" style="stop-color:#C7C7C7"/>
			<stop  offset="0.231" style="stop-color:#F9F9F9"/>
			<stop  offset="0.2373" style="stop-color:#FFFFFF"/>
			<stop  offset="0.5478" style="stop-color:#A3A3A3"/>
			<stop  offset="0.5492" style="stop-color:#FFFFFF"/>
			<stop  offset="0.6776" style="stop-color:#F2F2F2"/>
			<stop  offset="0.8182" style="stop-color:#DEDEDE"/>
			<stop  offset="0.8904" style="stop-color:#CBCBCB"/>
			<stop  offset="1" style="stop-color:#A7A7A7"/>
		</linearGradient>
		<polygon class="st13" points="-26.7,161.8 193.6,-58.5 193.9,-58.2 -26.3,162.1 		"/>
	</g>
	<g>
		
			<linearGradient id="SVGID_11_" gradientUnits="userSpaceOnUse" x1="1225.8363" y1="-76.3333" x2="1225.8363" y2="176.9502" gradientTransform="matrix(0 1 -1 0 39.959 -1177.7095)">
			<stop  offset="0" style="stop-color:#6B6B6B"/>
			<stop  offset="3.102066e-02" style="stop-color:#717171"/>
			<stop  offset="7.308919e-02" style="stop-color:#828282"/>
			<stop  offset="0.1215" style="stop-color:#9F9F9F"/>
			<stop  offset="0.1746" style="stop-color:#C7C7C7"/>
			<stop  offset="0.231" style="stop-color:#F9F9F9"/>
			<stop  offset="0.2373" style="stop-color:#FFFFFF"/>
			<stop  offset="0.5478" style="stop-color:#A3A3A3"/>
			<stop  offset="0.5492" style="stop-color:#FFFFFF"/>
			<stop  offset="0.6776" style="stop-color:#F2F2F2"/>
			<stop  offset="0.8182" style="stop-color:#DEDEDE"/>
			<stop  offset="0.8904" style="stop-color:#CBCBCB"/>
			<stop  offset="1" style="stop-color:#A7A7A7"/>
		</linearGradient>
		<polygon class="st14" points="-30.3,158.1 189.9,-62.2 190.3,-61.8 -30,158.4 		"/>
	</g>
	<g>
		
			<linearGradient id="SVGID_12_" gradientUnits="userSpaceOnUse" x1="1222.17" y1="-76.3333" x2="1222.17" y2="176.9502" gradientTransform="matrix(0 1 -1 0 39.959 -1177.7095)">
			<stop  offset="0" style="stop-color:#6B6B6B"/>
			<stop  offset="3.102066e-02" style="stop-color:#717171"/>
			<stop  offset="7.308919e-02" style="stop-color:#828282"/>
			<stop  offset="0.1215" style="stop-color:#9F9F9F"/>
			<stop  offset="0.1746" style="stop-color:#C7C7C7"/>
			<stop  offset="0.231" style="stop-color:#F9F9F9"/>
			<stop  offset="0.2373" style="stop-color:#FFFFFF"/>
			<stop  offset="0.5478" style="stop-color:#A3A3A3"/>
			<stop  offset="0.5492" style="stop-color:#FFFFFF"/>
			<stop  offset="0.6776" style="stop-color:#F2F2F2"/>
			<stop  offset="0.8182" style="stop-color:#DEDEDE"/>
			<stop  offset="0.8904" style="stop-color:#CBCBCB"/>
			<stop  offset="1" style="stop-color:#A7A7A7"/>
		</linearGradient>
		<polygon class="st15" points="-34,154.4 186.3,-65.8 186.6,-65.5 -33.7,154.8 		"/>
	</g>
	<g>
		
			<linearGradient id="SVGID_13_" gradientUnits="userSpaceOnUse" x1="1218.5035" y1="-76.3333" x2="1218.5035" y2="176.9502" gradientTransform="matrix(0 1 -1 0 39.959 -1177.7095)">
			<stop  offset="0" style="stop-color:#6B6B6B"/>
			<stop  offset="3.102066e-02" style="stop-color:#717171"/>
			<stop  offset="7.308919e-02" style="stop-color:#828282"/>
			<stop  offset="0.1215" style="stop-color:#9F9F9F"/>
			<stop  offset="0.1746" style="stop-color:#C7C7C7"/>
			<stop  offset="0.231" style="stop-color:#F9F9F9"/>
			<stop  offset="0.2373" style="stop-color:#FFFFFF"/>
			<stop  offset="0.5478" style="stop-color:#A3A3A3"/>
			<stop  offset="0.5492" style="stop-color:#FFFFFF"/>
			<stop  offset="0.6776" style="stop-color:#F2F2F2"/>
			<stop  offset="0.8182" style="stop-color:#DEDEDE"/>
			<stop  offset="0.8904" style="stop-color:#CBCBCB"/>
			<stop  offset="1" style="stop-color:#A7A7A7"/>
		</linearGradient>
		<polygon class="st16" points="-37.7,150.8 182.6,-69.5 182.9,-69.2 -37.3,151.1 		"/>
	</g>
	<g>
		
			<linearGradient id="SVGID_14_" gradientUnits="userSpaceOnUse" x1="1214.8373" y1="-76.3333" x2="1214.8373" y2="176.9502" gradientTransform="matrix(0 1 -1 0 39.959 -1177.7095)">
			<stop  offset="0" style="stop-color:#6B6B6B"/>
			<stop  offset="3.102066e-02" style="stop-color:#717171"/>
			<stop  offset="7.308919e-02" style="stop-color:#828282"/>
			<stop  offset="0.1215" style="stop-color:#9F9F9F"/>
			<stop  offset="0.1746" style="stop-color:#C7C7C7"/>
			<stop  offset="0.231" style="stop-color:#F9F9F9"/>
			<stop  offset="0.2373" style="stop-color:#FFFFFF"/>
			<stop  offset="0.5478" style="stop-color:#A3A3A3"/>
			<stop  offset="0.5492" style="stop-color:#FFFFFF"/>
			<stop  offset="0.6776" style="stop-color:#F2F2F2"/>
			<stop  offset="0.8182" style="stop-color:#DEDEDE"/>
			<stop  offset="0.8904" style="stop-color:#CBCBCB"/>
			<stop  offset="1" style="stop-color:#A7A7A7"/>
		</linearGradient>
		<polygon class="st17" points="-41.3,147.1 178.9,-73.2 179.3,-72.8 -41,147.4 		"/>
	</g>
	<g>
		
			<linearGradient id="SVGID_15_" gradientUnits="userSpaceOnUse" x1="1211.1711" y1="-76.3333" x2="1211.1711" y2="176.9502" gradientTransform="matrix(0 1 -1 0 39.959 -1177.7095)">
			<stop  offset="0" style="stop-color:#6B6B6B"/>
			<stop  offset="3.102066e-02" style="stop-color:#717171"/>
			<stop  offset="7.308919e-02" style="stop-color:#828282"/>
			<stop  offset="0.1215" style="stop-color:#9F9F9F"/>
			<stop  offset="0.1746" style="stop-color:#C7C7C7"/>
			<stop  offset="0.231" style="stop-color:#F9F9F9"/>
			<stop  offset="0.2373" style="stop-color:#FFFFFF"/>
			<stop  offset="0.5478" style="stop-color:#A3A3A3"/>
			<stop  offset="0.5492" style="stop-color:#FFFFFF"/>
			<stop  offset="0.6776" style="stop-color:#F2F2F2"/>
			<stop  offset="0.8182" style="stop-color:#DEDEDE"/>
			<stop  offset="0.8904" style="stop-color:#CBCBCB"/>
			<stop  offset="1" style="stop-color:#A7A7A7"/>
		</linearGradient>
		<polygon class="st18" points="-45,143.4 175.3,-76.8 175.6,-76.5 -44.7,143.8 		"/>
	</g>
	<g>
		
			<linearGradient id="SVGID_16_" gradientUnits="userSpaceOnUse" x1="1207.5046" y1="-76.3333" x2="1207.5046" y2="176.9502" gradientTransform="matrix(0 1 -1 0 39.959 -1177.7095)">
			<stop  offset="0" style="stop-color:#6B6B6B"/>
			<stop  offset="3.102066e-02" style="stop-color:#717171"/>
			<stop  offset="7.308919e-02" style="stop-color:#828282"/>
			<stop  offset="0.1215" style="stop-color:#9F9F9F"/>
			<stop  offset="0.1746" style="stop-color:#C7C7C7"/>
			<stop  offset="0.231" style="stop-color:#F9F9F9"/>
			<stop  offset="0.2373" style="stop-color:#FFFFFF"/>
			<stop  offset="0.5478" style="stop-color:#A3A3A3"/>
			<stop  offset="0.5492" style="stop-color:#FFFFFF"/>
			<stop  offset="0.6776" style="stop-color:#F2F2F2"/>
			<stop  offset="0.8182" style="stop-color:#DEDEDE"/>
			<stop  offset="0.8904" style="stop-color:#CBCBCB"/>
			<stop  offset="1" style="stop-color:#A7A7A7"/>
		</linearGradient>
		<polygon class="st19" points="-48.7,139.8 171.6,-80.5 171.9,-80.2 -48.3,140.1 		"/>
	</g>
</g>
<g class="st20">
	<linearGradient id="SVGID_17_" gradientUnits="userSpaceOnUse" x1="64.0658" y1="148.8006" x2="64.0658" y2="3.2108">
		<stop  offset="0" style="stop-color:#3067FF;stop-opacity:0"/>
		<stop  offset="0.9957" style="stop-color:#FE6FD8"/>
	</linearGradient>
	<path class="st21" d="M64.1,5.2l58.3,10l0.1,131.6H64.1H5.8L5.7,15.2L64.1,5.2 M64.1,3.2L3.7,13.6l0.1,135.2h60.3h60.3l-0.1-135.2
		L64.1,3.2L64.1,3.2z"/>
</g>
<g>
	<linearGradient id="SVGID_18_" gradientUnits="userSpaceOnUse" x1="64.0823" y1="138.8349" x2="64.0823" y2="10.5241">
		<stop  offset="0" style="stop-color:#202E69;stop-opacity:0"/>
		<stop  offset="1" style="stop-color:#32003B"/>
	</linearGradient>
	<polygon class="st22" points="10.9,19.6 10.9,138.8 64.1,138.8 117.3,138.8 117.2,19.6 64.1,10.5 	"/>
	<linearGradient id="SVGID_19_" gradientUnits="userSpaceOnUse" x1="64.0823" y1="10.5241" x2="64.0823" y2="138.8349">
		<stop  offset="4.300004e-03" style="stop-color:#8C4399;stop-opacity:0.5"/>
		<stop  offset="1" style="stop-color:#4E3075;stop-opacity:0"/>
	</linearGradient>
	<path class="st23" d="M64.1,12.5l51.1,8.8l0.1,115.6H64.1H12.9L12.8,21.3L64.1,12.5 M64.1,10.5l-53.3,9.1l0.1,119.2h53.2h53.2
		l-0.1-119.2L64.1,10.5L64.1,10.5z"/>
</g>
<g>
	<linearGradient id="SVGID_20_" gradientUnits="userSpaceOnUse" x1="-28.8333" y1="26.9957" x2="89.3852" y2="26.9957">
		<stop  offset="0" style="stop-color:#FFB3FF"/>
		<stop  offset="0.2768" style="stop-color:#FED4AB"/>
		<stop  offset="0.6011" style="stop-color:#B2FEAB"/>
		<stop  offset="0.9957" style="stop-color:#FFFE51"/>
	</linearGradient>
	<polygon class="st24" points="48.5,26.9 51.3,26 51.4,23.1 53.2,25.5 56,24.7 54.3,27.1 55.8,29.5 53.1,28.6 51.2,30.9 51.2,28 	
		"/>
	
		<linearGradient id="SVGID_21_" gradientUnits="userSpaceOnUse" x1="-28.8333" y1="39.9417" x2="89.3852" y2="39.9417" gradientTransform="matrix(0.8353 0.5498 -0.5498 0.8353 77.6295 -13.6739)">
		<stop  offset="0" style="stop-color:#FFB3FF"/>
		<stop  offset="0.2768" style="stop-color:#FED4AB"/>
		<stop  offset="0.6011" style="stop-color:#B2FEAB"/>
		<stop  offset="0.9957" style="stop-color:#FFFE51"/>
	</linearGradient>
	<polygon class="st25" points="57.4,22.2 62.4,22.2 64.2,17.5 65.8,22.3 70.8,22.5 66.8,25.5 68.1,30.4 64,27.5 59.8,30.2 
		61.3,25.4 	"/>
	<linearGradient id="SVGID_22_" gradientUnits="userSpaceOnUse" x1="-28.8333" y1="27.0663" x2="89.3852" y2="27.0663">
		<stop  offset="0" style="stop-color:#FFB3FF"/>
		<stop  offset="0.2768" style="stop-color:#FED4AB"/>
		<stop  offset="0.6011" style="stop-color:#B2FEAB"/>
		<stop  offset="0.9957" style="stop-color:#FFFE51"/>
	</linearGradient>
	<polygon class="st26" points="72.1,28.5 74.2,26.5 73,23.8 75.6,25.2 77.8,23.3 77.3,26.1 79.8,27.6 77,28.1 76.3,30.9 75,28.3 	
		"/>
</g>
<g>
	<linearGradient id="SVGID_23_" gradientUnits="userSpaceOnUse" x1="5.0053" y1="58.2933" x2="107.3386" y2="59.2933">
		<stop  offset="0" style="stop-color:#FFB3FF"/>
		<stop  offset="0.2768" style="stop-color:#FED4AB"/>
		<stop  offset="0.6011" style="stop-color:#B2FEAB"/>
		<stop  offset="0.9957" style="stop-color:#FFFE51"/>
	</linearGradient>
	<path class="st27" d="M71.5,48.5c-3.5,0-6.7,1.8-8.6,4.5c-0.8,1.2-1.4,2.6-1.7,4.1c-0.1,0.6-0.2,1.2-0.2,1.8v14.2
		c0.6,0.4,1.2,0.8,1.9,1.2V58.9h0c0-0.2,0-0.4,0-0.5v0v0c0.1-2.1,1-4,2.4-5.4c0.6-0.6,1.2-1.1,2-1.5l0,0l0,0
		c0.4-0.2,0.9-0.4,1.3-0.6h0h0c0.9-0.3,1.8-0.5,2.8-0.5s1.9,0.2,2.9,0.5h0c2.8,1,4.9,3.4,5.5,6.2h1.9C80.9,52.2,76.7,48.5,71.5,48.5
		z M77.4,42.4c-1.8-0.7-3.8-1-5.9-1c-2,0-4,0.4-5.8,1c-0.1,0-0.2,0.1-0.3,0.1c-0.8,0.3-1.7,0.7-2.4,1.1c-5.1,2.8-8.6,8.1-9,14.2
		c0,0.4,0,0.8,0,1.2l0,0c0,0.4,0,0.8,0,1.2c0.1,2.3,0.7,4.5,1.7,6.4v-8l0,0c0-0.5,0-0.9,0.1-1.4c0.5-4.8,3.3-9,7.2-11.5
		c2.5-1.6,5.4-2.5,8.6-2.5c8.1,0,14.9,6.1,15.8,14H89C88.3,50.3,83.7,44.6,77.4,42.4z M81.5,49c-2.6-2.6-6.2-4.1-9.9-4.1
		c-3.1,0-6.1,1-8.6,2.9c-0.5,0.4-0.9,0.8-1.4,1.2c-2.2,2.2-3.6,5-4,8.1c-0.1,0.6-0.1,1.2-0.1,1.8v10.6c0.5,0.7,1.2,1.4,1.8,2V58.5h0
		c0-0.5,0.1-0.9,0.1-1.4c0.4-2.7,1.7-5.1,3.5-6.9c2.2-2.2,5.3-3.5,8.6-3.5c6.1,0,11.2,4.5,12.1,10.4h1.8
		C85.1,54.1,83.7,51.2,81.5,49z M80.1,59.5c-0.2,3.4-2.5,6.3-5.7,7.4l0,0l0,0c-0.9,0.3-1.9,0.5-2.9,0.5c-1,0-1.9-0.2-2.8-0.5h0h0
		c-0.4-0.2-0.9-0.4-1.3-0.6l0,0l0,0c-0.7-0.4-1.4-0.9-2-1.5c-0.1-0.1-0.2-0.2-0.3-0.3v10.7c0.1,0,0.2,0.1,0.3,0.1
		c0.1,0,0.2,0.1,0.3,0.1c1.8,0.6,3.8,1,5.8,1c2.1,0,4-0.4,5.9-1c0.7-0.2,1.3-0.5,1.9-0.8c3-1.5,5.6-3.8,7.3-6.7
		c1.5-2.5,2.4-5.3,2.5-8.4L80.1,59.5L80.1,59.5z"/>
	<linearGradient id="SVGID_24_" gradientUnits="userSpaceOnUse" x1="4.7702" y1="82.3498" x2="107.1035" y2="83.3498">
		<stop  offset="0" style="stop-color:#FFB3FF"/>
		<stop  offset="0.2768" style="stop-color:#FED4AB"/>
		<stop  offset="0.6011" style="stop-color:#B2FEAB"/>
		<stop  offset="0.9957" style="stop-color:#FFFE51"/>
	</linearGradient>
	<path class="st28" d="M86.6,68c-1-0.6-2-1.1-3.1-1.5c-1.8-0.6-3.7-1-5.7-1v9c0.5,0,1,0.1,1.5,0.2c0.4,0.1,0.8,0.2,1.1,0.3l0,0l0,0
		c3.4,1.2,5.7,4.4,5.7,8.1s-2.3,6.8-5.7,8.1l0,0l0,0c-0.8,0.3-1.7,0.5-2.6,0.5v9c2,0,3.9-0.4,5.7-1c6.8-2.4,11.7-8.9,11.7-16.6
		C95.2,76.6,91.8,71,86.6,68z"/>
	<linearGradient id="SVGID_25_" gradientUnits="userSpaceOnUse" x1="44.9048" y1="119.5848" x2="44.9048" y2="42.1342">
		<stop  offset="0" style="stop-color:#30B3FF"/>
		<stop  offset="0.9957" style="stop-color:#6FFEF7"/>
	</linearGradient>
	<path class="st29" d="M44.9,86.8v0.6c0-0.1,0-0.2,0-0.3C44.9,87,44.9,86.9,44.9,86.8z"/>
	<linearGradient id="SVGID_26_" gradientUnits="userSpaceOnUse" x1="-28.8333" y1="71.7299" x2="89.3852" y2="71.7299">
		<stop  offset="0" style="stop-color:#FFB3FF"/>
		<stop  offset="0.2768" style="stop-color:#FED4AB"/>
		<stop  offset="0.6011" style="stop-color:#B2FEAB"/>
		<stop  offset="0.9957" style="stop-color:#FFFE51"/>
	</linearGradient>
	<path class="st30" d="M63,43.6v2c-3.9,2.5-6.6,6.7-7.2,11.5c0,0.4-0.1,0.9-0.1,1.4l0,0v40.6h0c-0.1,0-0.2,0.1-0.3,0.2
		c-0.1,0-0.2,0.1-0.3,0.2c0,0-0.1,0-0.1,0s-0.1,0-0.1,0c-0.1,0-0.2,0.1-0.3,0.1c-0.1,0-0.1,0-0.2,0.1c0,0-0.1,0-0.1,0
		c0,0-0.1,0-0.1,0c-0.1,0-0.1,0-0.2,0.1v-41c0-0.4,0-0.8,0-1.2C54.4,51.7,57.9,46.4,63,43.6z"/>
	<linearGradient id="SVGID_27_" gradientUnits="userSpaceOnUse" x1="-28.8333" y1="72.8846" x2="89.3852" y2="72.8846">
		<stop  offset="0" style="stop-color:#FFB3FF"/>
		<stop  offset="0.2768" style="stop-color:#FED4AB"/>
		<stop  offset="0.6011" style="stop-color:#B2FEAB"/>
		<stop  offset="0.9957" style="stop-color:#FFFE51"/>
	</linearGradient>
	<path class="st31" d="M63,47.8v2.4c-1.9,1.8-3.1,4.2-3.5,6.9c-0.1,0.4-0.1,0.9-0.1,1.4h0v37.9c-0.1,0.1-0.1,0.1-0.2,0.2
		c0,0-0.1,0.1-0.1,0.1c-0.1,0.1-0.2,0.2-0.3,0.3c-0.1,0.1-0.1,0.1-0.2,0.2c-0.1,0-0.1,0.1-0.2,0.1c-0.1,0.1-0.2,0.1-0.2,0.2
		c0,0-0.1,0.1-0.1,0.1c-0.1,0.1-0.1,0.1-0.2,0.2c-0.1,0-0.1,0.1-0.2,0.1c0,0,0,0-0.1,0.1v-39c0-0.6,0-1.2,0.1-1.8
		c0.4-3.1,1.8-5.9,4-8.1C62,48.6,62.5,48.2,63,47.8z"/>
	<linearGradient id="SVGID_28_" gradientUnits="userSpaceOnUse" x1="-28.8333" y1="73.4923" x2="89.3852" y2="73.4923">
		<stop  offset="0" style="stop-color:#FFB3FF"/>
		<stop  offset="0.2768" style="stop-color:#FED4AB"/>
		<stop  offset="0.6011" style="stop-color:#B2FEAB"/>
		<stop  offset="0.9957" style="stop-color:#FFFE51"/>
	</linearGradient>
	<path class="st32" d="M61.3,57.1c0.3-1.5,0.9-2.9,1.7-4.1v34.1c0,1.6-0.3,3.1-0.8,4.5c0,0.1-0.1,0.2-0.1,0.2c0,0.1-0.1,0.1-0.1,0.2
		c0,0.1,0,0.1-0.1,0.2c0,0,0,0,0,0c0,0.1-0.1,0.2-0.1,0.3c0,0,0,0.1-0.1,0.2c0,0.1-0.1,0.2-0.2,0.4c0,0.1-0.1,0.2-0.1,0.3
		c0,0.1-0.1,0.2-0.1,0.2c0,0.1-0.1,0.2-0.1,0.2c0,0,0,0.1-0.1,0.1v-35C61.1,58.3,61.2,57.7,61.3,57.1z"/>
	<g>
		<g>
			<linearGradient id="SVGID_29_" gradientUnits="userSpaceOnUse" x1="-28.8333" y1="45.8715" x2="89.3852" y2="45.8715">
				<stop  offset="0" style="stop-color:#FFB3FF"/>
				<stop  offset="0.2768" style="stop-color:#FED4AB"/>
				<stop  offset="0.6011" style="stop-color:#B2FEAB"/>
				<stop  offset="0.9957" style="stop-color:#FFFE51"/>
			</linearGradient>
			<circle class="st33" cx="40.4" cy="45.9" r="4.5"/>
		</g>
		<linearGradient id="SVGID_30_" gradientUnits="userSpaceOnUse" x1="-28.8333" y1="77.248" x2="89.3852" y2="77.248">
			<stop  offset="0" style="stop-color:#FFB3FF"/>
			<stop  offset="0.2768" style="stop-color:#FED4AB"/>
			<stop  offset="0.6011" style="stop-color:#B2FEAB"/>
			<stop  offset="0.9957" style="stop-color:#FFFE51"/>
		</linearGradient>
		<path class="st34" d="M44.9,59.1v40.7c-5-1.8-8.7-6.4-9-11.9V59.1c0-2.5,2-4.5,4.5-4.5C42.9,54.6,44.9,56.7,44.9,59.1z"/>
		<linearGradient id="SVGID_31_" gradientUnits="userSpaceOnUse" x1="-28.8333" y1="93.8691" x2="89.3852" y2="93.8691">
			<stop  offset="0" style="stop-color:#FFB3FF"/>
			<stop  offset="0.2768" style="stop-color:#FED4AB"/>
			<stop  offset="0.6011" style="stop-color:#B2FEAB"/>
			<stop  offset="0.9957" style="stop-color:#FFFE51"/>
		</linearGradient>
		<path class="st35" d="M49.4,91.6c1,0,2-0.3,2.7-0.9v9.7c-0.9,0.2-1.8,0.3-2.7,0.3l0,0c-1.6,0-3.1-0.3-4.5-0.8
			c-5-1.8-8.7-6.4-9-11.9c0-0.3,0-0.6,0-0.9h9.1v0.3C45.1,89.7,47,91.6,49.4,91.6z"/>
		<linearGradient id="SVGID_32_" gradientUnits="userSpaceOnUse" x1="-28.8333" y1="96.1299" x2="89.3852" y2="96.1299">
			<stop  offset="0" style="stop-color:#FFB3FF"/>
			<stop  offset="0.2768" style="stop-color:#FED4AB"/>
			<stop  offset="0.6011" style="stop-color:#B2FEAB"/>
			<stop  offset="0.9957" style="stop-color:#FFFE51"/>
		</linearGradient>
		<path class="st36" d="M49.4,91.6h2.7v8.8c-0.9,0.2-1.8,0.3-2.7,0.3l0,0V91.6z"/>
	</g>
	<linearGradient id="SVGID_33_" gradientUnits="userSpaceOnUse" x1="-28.8333" y1="95.7409" x2="89.3852" y2="95.7409">
		<stop  offset="0" style="stop-color:#FFB3FF"/>
		<stop  offset="0.2768" style="stop-color:#FED4AB"/>
		<stop  offset="0.6011" style="stop-color:#B2FEAB"/>
		<stop  offset="0.9957" style="stop-color:#FFFE51"/>
	</linearGradient>
	<path class="st37" d="M55.7,91.6v7.5h0c-0.1,0-0.2,0.1-0.3,0.2c-0.1,0-0.2,0.1-0.3,0.2c0,0-0.1,0-0.1,0c0,0-0.1,0-0.1,0
		c-0.1,0-0.2,0.1-0.3,0.1c-0.1,0-0.1,0-0.2,0.1c0,0-0.1,0-0.1,0c0,0-0.1,0-0.1,0c-0.1,0-0.1,0-0.2,0.1v-8.3L55.7,91.6L55.7,91.6z"/>
	<linearGradient id="SVGID_34_" gradientUnits="userSpaceOnUse" x1="-28.8333" y1="94.7868" x2="89.3852" y2="94.7868">
		<stop  offset="0" style="stop-color:#FFB3FF"/>
		<stop  offset="0.2768" style="stop-color:#FED4AB"/>
		<stop  offset="0.6011" style="stop-color:#B2FEAB"/>
		<stop  offset="0.9957" style="stop-color:#FFFE51"/>
	</linearGradient>
	<path class="st38" d="M57.5,91.6h1.8v4.8c-0.1,0.1-0.1,0.1-0.2,0.2c0,0-0.1,0.1-0.1,0.1c-0.1,0.1-0.2,0.2-0.3,0.3
		c-0.1,0.1-0.1,0.1-0.2,0.2c-0.1,0-0.1,0.1-0.2,0.1c-0.1,0.1-0.2,0.1-0.2,0.2c0,0-0.1,0.1-0.1,0.1c-0.1,0.1-0.1,0.1-0.2,0.2
		c-0.1,0-0.1,0.1-0.2,0.1c0,0,0,0-0.1,0.1L57.5,91.6L57.5,91.6L57.5,91.6z"/>
	<linearGradient id="SVGID_35_" gradientUnits="userSpaceOnUse" x1="-28.8333" y1="92.7813" x2="89.3852" y2="92.7813">
		<stop  offset="0" style="stop-color:#FFB3FF"/>
		<stop  offset="0.2768" style="stop-color:#FED4AB"/>
		<stop  offset="0.6011" style="stop-color:#B2FEAB"/>
		<stop  offset="0.9957" style="stop-color:#FFFE51"/>
	</linearGradient>
	<path class="st39" d="M62.2,91.6c0,0.1-0.1,0.2-0.1,0.2c0,0.1-0.1,0.1-0.1,0.2c0,0.1,0,0.1-0.1,0.2c0,0,0,0,0,0
		c0,0.1-0.1,0.2-0.1,0.3c0,0,0,0.1-0.1,0.2c0,0.1-0.1,0.2-0.2,0.4c0,0.1-0.1,0.2-0.1,0.3c0,0.1-0.1,0.2-0.1,0.2
		c0,0.1-0.1,0.2-0.1,0.2c0,0,0,0.1-0.1,0.1v-2.3L62.2,91.6L62.2,91.6L62.2,91.6z"/>
	<linearGradient id="SVGID_36_" gradientUnits="userSpaceOnUse" x1="4.6416" y1="95.5059" x2="106.975" y2="96.5059">
		<stop  offset="0" style="stop-color:#FFB3FF"/>
		<stop  offset="0.2768" style="stop-color:#FED4AB"/>
		<stop  offset="0.6011" style="stop-color:#B2FEAB"/>
		<stop  offset="0.9957" style="stop-color:#FFFE51"/>
	</linearGradient>
	<path class="st40" d="M77.8,91.6v9h-20c0.1,0,0.1-0.1,0.2-0.1c0,0,0,0,0,0c0.2-0.1,0.3-0.2,0.4-0.3c0,0,0.1-0.1,0.1-0.1l0,0l0,0
		c0.1-0.1,0.2-0.1,0.3-0.2c0.1,0,0.1-0.1,0.2-0.1l0,0l0.1,0c0.1,0,0.1-0.1,0.2-0.2c0,0,0.1-0.1,0.1-0.1l0,0l0,0
		c0.1-0.1,0.2-0.1,0.2-0.2c0,0,0.1-0.1,0.1-0.1l0,0l0.1,0c0.1-0.1,0.1-0.1,0.2-0.2c0.1-0.1,0.2-0.2,0.3-0.3l0,0l0,0
		c0,0,0.1-0.1,0.1-0.1c0.4-0.4,0.8-0.8,1.1-1.3l0,0l0.1-0.1c1.2-1.6,2.2-3.4,2.7-5.3L77.8,91.6L77.8,91.6z"/>
	<g>
		<linearGradient id="SVGID_37_" gradientUnits="userSpaceOnUse" x1="166.4635" y1="110.268" x2="35.3023" y2="27.0383">
			<stop  offset="0" style="stop-color:#30B3FF"/>
			<stop  offset="0.9957" style="stop-color:#6FFEF7"/>
		</linearGradient>
		<path class="st41" d="M83.6,57.1h-1.8c0,0,0,0,0,0L83.6,57.1C83.6,57.1,83.6,57.1,83.6,57.1z"/>
		<linearGradient id="SVGID_38_" gradientUnits="userSpaceOnUse" x1="167.5155" y1="108.6102" x2="36.3543" y2="25.3804">
			<stop  offset="0" style="stop-color:#30B3FF"/>
			<stop  offset="0.9957" style="stop-color:#6FFEF7"/>
		</linearGradient>
		<path class="st42" d="M87.3,57.1h-1.8c0,0,0,0,0,0L87.3,57.1C87.3,57.1,87.3,57.1,87.3,57.1z"/>
	</g>
	<g>
		<linearGradient id="SVGID_39_" gradientUnits="userSpaceOnUse" x1="-28.8333" y1="58.9253" x2="89.3852" y2="58.9253">
			<stop  offset="0" style="stop-color:#FFB3FF"/>
			<stop  offset="0.2768" style="stop-color:#FED4AB"/>
			<stop  offset="0.6011" style="stop-color:#B2FEAB"/>
			<stop  offset="0.9957" style="stop-color:#FFFE51"/>
		</linearGradient>
		<circle class="st43" cx="71.5" cy="58.9" r="2.4"/>
	</g>
</g>
<g>
	<path class="st3" d="M26,125.9v-11.4h2.3v11.4H26z"/>
	<path class="st3" d="M30.3,125.9v-11.4h2.5c0.6,0,1.1,0.1,1.5,0.2s0.8,0.3,1.1,0.5c0.3,0.2,0.6,0.5,0.7,0.9
		c0.2,0.4,0.3,0.9,0.3,1.4c0,0.2,0,0.4,0,0.6c0,0.2-0.1,0.4-0.1,0.6c-0.1,0.2-0.1,0.5-0.3,0.6c-0.1,0.2-0.3,0.4-0.5,0.5
		c-0.2,0.2-0.4,0.3-0.7,0.4c0.7,2.2,1.3,4,1.8,5.5h-2.4l-1.3-5.3h-0.4v5.3H30.3z M32.6,119.2h0.7c0.2,0,0.3-0.1,0.5-0.2
		c0.1-0.1,0.2-0.3,0.3-0.4c0.1-0.2,0.1-0.3,0.1-0.5c0-0.2,0-0.3,0-0.4c0-0.1,0-0.3,0-0.4c0-0.1-0.1-0.3-0.1-0.5
		c0-0.2-0.1-0.3-0.2-0.4c-0.1-0.1-0.2-0.2-0.4-0.2h-0.8V119.2z"/>
	<path class="st3" d="M37.9,122.1v-3.8c0-2.7,1.1-4,3.3-4c2.2,0,3.3,1.3,3.3,4v3.8c0,0.5,0,0.9-0.1,1.3c-0.1,0.4-0.2,0.8-0.3,1.1
		c-0.2,0.3-0.4,0.6-0.6,0.9c-0.3,0.2-0.6,0.4-1,0.6c-0.4,0.1-0.8,0.2-1.3,0.2c-0.5,0-0.9-0.1-1.3-0.2c-0.4-0.1-0.7-0.3-1-0.6
		c-0.2-0.2-0.5-0.5-0.6-0.9c-0.2-0.3-0.3-0.7-0.3-1.1C37.9,123,37.9,122.6,37.9,122.1z M42.3,122.6v-4.9c0-1.1-0.3-1.7-1-1.7
		c-0.2,0-0.4,0.1-0.5,0.2c-0.1,0.1-0.2,0.2-0.3,0.4c-0.1,0.2-0.1,0.4-0.1,0.5c0,0.2,0,0.4,0,0.6v4.9c0,1.1,0.3,1.7,1,1.7
		C41.9,124.3,42.3,123.8,42.3,122.6z"/>
	<path class="st3" d="M46.5,125.9v-11.4h2.4c0.4,0,0.8,0,1.1,0.1s0.6,0.1,1,0.3c0.3,0.1,0.6,0.3,0.8,0.5c0.2,0.2,0.4,0.5,0.5,0.9
		c0.1,0.4,0.2,0.8,0.2,1.3c0,0.6-0.1,1.1-0.4,1.4c-0.3,0.3-0.7,0.6-1.3,0.8c1.4,0.3,2,1.3,2,2.9c0,1.1-0.3,2-0.8,2.5
		s-1.4,0.8-2.5,0.8H46.5z M48.8,119h0.4c0.2,0,0.4,0,0.5-0.1c0.1-0.1,0.3-0.2,0.3-0.4c0.1-0.2,0.1-0.3,0.2-0.5c0-0.2,0-0.4,0-0.6
		c0-0.2,0-0.4,0-0.5c0-0.1-0.1-0.3-0.1-0.4c0-0.1-0.1-0.2-0.2-0.2c-0.1-0.1-0.2-0.1-0.2-0.1c-0.1,0-0.2-0.1-0.3-0.1
		c-0.1,0-0.2,0-0.3,0c-0.1,0-0.2,0-0.4,0V119z M48.8,124.3H49c0.3,0,0.5,0,0.7-0.1c0.2-0.1,0.3-0.2,0.4-0.4c0.1-0.2,0.2-0.4,0.2-0.6
		c0-0.2,0-0.5,0-0.9c0-0.6-0.1-1.1-0.3-1.4c-0.2-0.3-0.6-0.5-1.1-0.5h-0.2V124.3z"/>
	<path class="st3" d="M54.2,122.1v-3.8c0-2.7,1.1-4,3.3-4c2.2,0,3.3,1.3,3.3,4v3.8c0,0.5,0,0.9-0.1,1.3c-0.1,0.4-0.2,0.8-0.3,1.1
		c-0.2,0.3-0.4,0.6-0.6,0.9c-0.3,0.2-0.6,0.4-1,0.6s-0.8,0.2-1.3,0.2c-0.5,0-0.9-0.1-1.3-0.2c-0.4-0.1-0.7-0.3-1-0.6
		c-0.2-0.2-0.5-0.5-0.6-0.9c-0.2-0.3-0.3-0.7-0.3-1.1C54.2,123,54.2,122.6,54.2,122.1z M58.6,122.6v-4.9c0-1.1-0.3-1.7-1-1.7
		c-0.2,0-0.4,0.1-0.5,0.2c-0.1,0.1-0.2,0.2-0.3,0.4c-0.1,0.2-0.1,0.4-0.1,0.5c0,0.2,0,0.4,0,0.6v4.9c0,1.1,0.3,1.7,1,1.7
		C58.2,124.3,58.6,123.8,58.6,122.6z"/>
	<path class="st3" d="M63.7,125.9v-9.7H62v-1.7h5.6v1.7H66v9.7H63.7z"/>
	<path class="st3" d="M72.2,122.1v-3.8c0-2.7,1.1-4,3.3-4c0.5,0,0.9,0.1,1.2,0.2c0.4,0.1,0.7,0.3,0.9,0.5s0.4,0.5,0.6,0.8
		c0.2,0.3,0.3,0.7,0.3,1c0.1,0.4,0.1,0.8,0.1,1.2v1h-2.3V118c0-0.2,0-0.4,0-0.5c0-0.1,0-0.3-0.1-0.5c0-0.2-0.1-0.3-0.1-0.5
		c-0.1-0.1-0.2-0.2-0.3-0.3c-0.1-0.1-0.3-0.1-0.4-0.1c-0.7,0-1,0.6-1,1.7v4.9c0,1.1,0.3,1.7,1,1.7c0.2,0,0.4-0.1,0.5-0.2
		c0.1-0.1,0.2-0.3,0.3-0.5c0.1-0.2,0.1-0.4,0.1-0.6c0-0.2,0-0.4,0-0.7v-1.2h2.3v1c0,0.4,0,0.8-0.1,1.2c-0.1,0.4-0.2,0.7-0.3,1.1
		c-0.2,0.3-0.3,0.6-0.6,0.9c-0.2,0.2-0.5,0.4-0.9,0.6s-0.8,0.2-1.3,0.2c-0.5,0-0.9-0.1-1.3-0.2c-0.4-0.1-0.7-0.3-0.9-0.6
		c-0.2-0.2-0.5-0.5-0.6-0.9c-0.2-0.3-0.3-0.7-0.3-1.1C72.2,123,72.2,122.5,72.2,122.1z"/>
	<path class="st3" d="M80.3,122.1v-3.8c0-2.7,1.1-4,3.3-4c2.2,0,3.3,1.3,3.3,4v3.8c0,0.5,0,0.9-0.1,1.3c-0.1,0.4-0.2,0.8-0.3,1.1
		c-0.2,0.3-0.4,0.6-0.6,0.9c-0.3,0.2-0.6,0.4-1,0.6c-0.4,0.1-0.8,0.2-1.3,0.2c-0.5,0-0.9-0.1-1.3-0.2c-0.4-0.1-0.7-0.3-1-0.6
		c-0.2-0.2-0.5-0.5-0.6-0.9c-0.2-0.3-0.3-0.7-0.3-1.1C80.3,123,80.3,122.6,80.3,122.1z M84.7,122.6v-4.9c0-1.1-0.3-1.7-1-1.7
		c-0.2,0-0.4,0.1-0.5,0.2c-0.1,0.1-0.2,0.2-0.3,0.4c-0.1,0.2-0.1,0.4-0.1,0.5c0,0.2,0,0.4,0,0.6v4.9c0,1.1,0.3,1.7,1,1.7
		C84.3,124.3,84.7,123.8,84.7,122.6z"/>
	<path class="st3" d="M88.8,125.9v-11.4h2.3v11.4H88.8z"/>
	<path class="st3" d="M93.1,125.9v-11.4h1.7l2.5,6v-6h1.9v11.4h-1.6l-2.5-6.3v6.3H93.1z"/>
</g>
<linearGradient id="SVGID_40_" gradientUnits="userSpaceOnUse" x1="-491.706" y1="540.1255" x2="-491.706" y2="540.1255" gradientTransform="matrix(0.5591 -0.8291 0.8291 0.5591 -205.4682 -663.7861)">
	<stop  offset="0" style="stop-color:#AA68FF"/>
	<stop  offset="0.9957" style="stop-color:#E96FFE"/>
</linearGradient>
<path class="st44" d="M-32.6,45.9"/>
</svg>
