<?xml version="1.0" encoding="utf-8"?>
<!-- Generator: Adobe Illustrator 21.0.0, SVG Export Plug-In . SVG Version: 6.00 Build 0)  -->
<svg version="1.1" id="Layer_1" xmlns="http://www.w3.org/2000/svg" xmlns:xlink="http://www.w3.org/1999/xlink" x="0px" y="0px"
	 viewBox="0 0 128 132.8" style="enable-background:new 0 0 128 132.8;" xml:space="preserve">
<style type="text/css">
	.st0{fill:#9EE4FF;}
	.st1{display:none;}
	.st2{display:inline;}
	.st3{opacity:0.1;fill:url(#SVGID_1_);enable-background:new    ;}
	.st4{opacity:0.1;fill:url(#SVGID_2_);enable-background:new    ;}
	.st5{opacity:0.1;fill:url(#SVGID_3_);enable-background:new    ;}
	.st6{opacity:0.1;fill:url(#SVGID_4_);enable-background:new    ;}
	.st7{fill:#0090D8;}
	.st8{fill:#0061A3;}
	.st9{fill:#00CBE0;}
	.st10{fill:url(#SVGID_5_);}
	.st11{fill:#00BBCE;}
	.st12{fill:url(#SVGID_6_);}
</style>
<g id="Layer_2">
</g>
<g id="Layer_1_1_">
	<g>
		<polygon class="st0" points="69.1,126.1 66.5,128.6 67.2,132.2 63.9,130.5 60.7,132.3 61.3,128.6 58.6,126 62.2,125.5 63.9,122.2 
			65.5,125.5 		"/>
		<polygon class="st0" points="53.9,126.1 51.3,128.6 51.9,132.2 48.6,130.5 45.4,132.3 46.1,128.6 43.4,126 47,125.5 48.7,122.2 
			50.3,125.5 		"/>
		<polygon class="st0" points="84.4,126.1 81.8,128.6 82.4,132.2 79.1,130.5 75.9,132.3 76.6,128.6 73.9,126 77.5,125.5 79.2,122.2 
			80.8,125.5 		"/>
		<polygon class="st0" points="99.7,126.1 97,128.6 97.7,132.2 94.4,130.5 91.2,132.3 91.9,128.6 89.1,126 92.8,125.5 94.4,122.2 
			96,125.5 		"/>
		<polygon class="st0" points="38.6,126.1 36,128.6 36.7,132.2 33.4,130.5 30.1,132.3 30.8,128.6 28.1,126 31.7,125.5 33.4,122.2 
			35,125.5 		"/>
	</g>
</g>
<g>
	<g class="st1">
		<path class="st2" d="M64.3,11.6c25.3,0,45.9,20.6,45.9,45.9s-20.6,45.9-45.9,45.9S18.4,82.8,18.4,57.5S39,11.6,64.3,11.6
			 M64.3,5.3c-28.8,0-52.2,23.4-52.2,52.2s23.4,52.2,52.2,52.2s52.2-23.4,52.2-52.2S93.1,5.3,64.3,5.3L64.3,5.3z"/>
	</g>
	<g>
		
			<radialGradient id="SVGID_1_" cx="4.9565" cy="100.0226" r="63.4215" gradientTransform="matrix(1 0 0 -1 0 134)" gradientUnits="userSpaceOnUse">
			<stop  offset="0" style="stop-color:#007ACB"/>
			<stop  offset="1" style="stop-color:#0C92D7"/>
		</radialGradient>
		<path class="st3" d="M14.4,48.3c0,0,21.3,14.6,31.7,15s24.4-4.4,24.4-4.4s23.2-12.7,43.8-6.7c0,0-1.9,58.7-51.8,56
			C67.1,107,11.5,104.1,14.4,48.3z"/>
		
			<radialGradient id="SVGID_2_" cx="26.229" cy="82.2664" r="47.7369" gradientTransform="matrix(1 0 0 -1 0 134)" gradientUnits="userSpaceOnUse">
			<stop  offset="0" style="stop-color:#19ABFF"/>
			<stop  offset="1" style="stop-color:#0C92D7"/>
		</radialGradient>
		<path class="st4" d="M110.7,51.4c0,0-24.4-3.8-51.8,14.2s-44.5,0.8-44.5,0.8s19,51.8,60.8,40.5S109.6,56.2,110.7,51.4z"/>
		
			<radialGradient id="SVGID_3_" cx="42.9015" cy="77.4103" r="53.7361" gradientTransform="matrix(1 0 0 -1 0 134)" gradientUnits="userSpaceOnUse">
			<stop  offset="0" style="stop-color:#007ACB"/>
			<stop  offset="1" style="stop-color:#0C92D7"/>
		</radialGradient>
		<path class="st5" d="M111.5,51.9c0,0-37,13.4-57.2,31.9c0,0-15.2,9.8-28.6,9.4c0,0,34.4,32.8,71.8,2.1
			C97.5,95.3,111.3,73.1,111.5,51.9z"/>
		
			<radialGradient id="SVGID_4_" cx="58.2131" cy="54.3774" r="36.4475" gradientTransform="matrix(1 0 0 -1 0 134)" gradientUnits="userSpaceOnUse">
			<stop  offset="0" style="stop-color:#19ABFF"/>
			<stop  offset="1" style="stop-color:#01F2FF"/>
		</radialGradient>
		<path class="st6" d="M109.6,77.1c0,0-22.1-0.8-39.7,14.6c0,0-16.3,14.4-24.6,14C45.3,105.7,88.1,116.8,109.6,77.1z"/>
	</g>
	<rect x="42.6" y="25.5" class="st7" width="16.3" height="6.3"/>
	<path id="L_2_" class="st8" d="M42.5,25.5c-2,0-3.7,1.6-3.7,3.7v56.3c0,2,1.6,3.7,3.7,3.7h2c0.9,0,1.6-0.7,1.6-1.6V29.2
		C46.1,27.2,44.5,25.5,42.5,25.5L42.5,25.5z"/>
	<path id="COIN_1_" class="st9" d="M57.9,71.8c-1.5-1.1-5.3-4.2-6.8-9.3c-0.7-2.4-0.8-4.6-0.8-5.1c0-4.8,2-9.2,5.1-12.3
		c3.2-3.2,7.5-5.1,12.3-5.1h8.5c1.7,0,3.1,1.4,3.1,3.1l0,0c0,1.7-1.4,3.1-3.1,3.1h-8.3c-6.1,0-11.2,4.9-11.3,11
		c-0.1,6.2,5,11.3,11.2,11.3h3.3h5c0.9,0,1.7,0.4,2.3,0.9c0.6,0.6,1,1.5,0.9,2.5c-0.1,1.7-1.6,3-3.3,3h-4.9c-1,0.1-2.7-0.1-3.9-0.2
		C62.9,74.5,60.1,73.1,57.9,71.8z"/>
	
		<radialGradient id="SVGID_5_" cx="33.0507" cy="119.9679" r="79.3601" gradientTransform="matrix(1 0 0 -1 0 134)" gradientUnits="userSpaceOnUse">
		<stop  offset="0" style="stop-color:#9EE4FF"/>
		<stop  offset="1" style="stop-color:#0C92D7"/>
	</radialGradient>
	<path class="st10" d="M109.8,32C96.5,8.2,67.5-1.1,43.1,9.8c-1.7,0.7-2.3,2.8-1.4,4.4l0,0c0.8,1.4,2.5,2,4,1.3
		c4.3-1.9,8.8-3.1,13.5-3.7c5.9-0.7,11.8-0.2,17.6,1.4c5.7,1.6,11,4.3,15.7,7.9c4.9,3.8,8.9,8.4,11.9,13.8s4.9,11.3,5.6,17.4
		c0.7,5.9,0.2,11.8-1.4,17.6c-1.6,5.7-4.3,11-7.9,15.7c-2.9,3.7-6.3,6.9-10.2,9.6c0,0-0.1,0-0.1,0.1c-0.9,0.6-1.8,1.2-2.8,1.7
		c-2.4,1.4-4.8,2.5-7.3,3.5c-1,0.4-2,0.7-3.1,1c-0.2,0.1-0.4,0.1-0.6,0.2l0,0c-2.4,0.7-4.8,1.1-7.2,1.4c-5.9,0.7-11.8,0.2-17.6-1.4
		c-5.7-1.6-11-4.3-15.7-7.9C31.3,90,27.3,85.4,24.2,80c-3-5.4-4.9-11.3-5.6-17.4C18,56.7,18.5,50.8,20.1,45c1.6-5.7,4.3-11,7.9-15.7
		c2.9-3.7,6.3-6.9,10.2-9.6c1.3-0.9,1.7-2.7,0.9-4.1l0,0c-0.9-1.6-3-2.1-4.5-1.1C12.7,29.7,5.5,59.3,18.8,83
		c12.3,22,38.2,31.6,61.4,24.2c0.2-0.1,0.4-0.1,0.6-0.2h0.1c1.1-0.4,2.2-0.8,3.3-1.2c0.4-0.2,0.9-0.4,1.3-0.6c0,0,0.1,0,0.1-0.1
		c1.7-0.8,3.4-1.7,5.1-2.6c1-0.6,2-1.2,3-1.9c0.1-0.1,0.2-0.1,0.3-0.2C115.9,85.3,123.1,55.7,109.8,32z"/>
	<circle class="st7" cx="67.2" cy="57.5" r="5.2"/>
	<circle class="st11" cx="82.7" cy="85" r="3.1"/>
	<g>
		<path class="st8" d="M77.5,85c0-0.8,0.2-1.6,0.6-2.3c-0.8,0.2-1.5,0.2-2.3,0.2H43.4v6.3h32c1.2,0,2.5-0.1,3.6-0.4
			C78.1,87.9,77.5,86.5,77.5,85z"/>
		<path class="st7" d="M85.5,57.4c4.6-3.1,7.6-8.4,7.6-14.4c0-4.8-2-9.2-5.1-12.3c-3.2-3.2-7.5-5.1-12.3-5.1H51.4
			c-1.7,0-3.1,1.4-3.1,3.1s1.4,3.1,3.1,3.1h24.2c6.1,0,11.2,4.9,11.3,11c0.1,6.2-5,11.3-11.2,11.3h-3.3h-5c-0.9,0-1.7,0.4-2.3,0.9
			c-0.6,0.6-1,1.5-0.9,2.5c0.1,1.7,1.6,3,3.3,3h4.9h3.2c6.1,0,11.2,4.9,11.3,11c0,3.2-1.3,6.2-3.5,8.3c2.3,0.3,4.1,2.1,4.5,4.3
			c3.2-3.1,5.2-7.4,5.3-12.2c0-3.1-0.7-6-2.1-8.5C89.7,61.1,87.8,59,85.5,57.4z"/>
	</g>
	<rect x="46.1" y="25.5" class="st7" width="10.4" height="6.3"/>
</g>
<linearGradient id="SVGID_6_" gradientUnits="userSpaceOnUse" x1="64.3" y1="17.5" x2="64.3" y2="135.5" gradientTransform="matrix(1 0 0 -1 0 134)">
	<stop  offset="0" style="stop-color:#018BFF"/>
	<stop  offset="6.952398e-02" style="stop-color:#01F2FF;stop-opacity:0.8587"/>
	<stop  offset="0.4919" style="stop-color:#01F2FF;stop-opacity:0"/>
	<stop  offset="1" style="stop-color:#01F2FF;stop-opacity:0"/>
</linearGradient>
<path class="st12" d="M64.3-0.5c32,0,58,26,58,58s-26,58-58,58s-58-26-58-58S32.3-0.5,64.3-0.5 M64.3-1.5c-32.6,0-59,26.4-59,59
	s26.4,59,59,59s59-26.4,59-59S96.9-1.5,64.3-1.5L64.3-1.5z"/>
</svg>
