<?xml version="1.0" encoding="utf-8"?>
<!-- Generator: Adobe Illustrator 21.0.0, SVG Export Plug-In . SVG Version: 6.00 Build 0)  -->
<svg version="1.1" xmlns="http://www.w3.org/2000/svg" xmlns:xlink="http://www.w3.org/1999/xlink" x="0px" y="0px"
	 viewBox="0 0 128 128" style="enable-background:new 0 0 128 128;" xml:space="preserve">
<style type="text/css">
	.st0{fill:url(#SVGID_1_);}
	.st1{fill:url(#SVGID_2_);}
	.st2{fill:url(#SVGID_3_);}
	.st3{fill:url(#SVGID_4_);}
	.st4{fill:url(#SVGID_5_);}
	.st5{fill:url(#SVGID_6_);}
	.st6{fill:url(#SVGID_7_);}
	.st7{fill:url(#SVGID_8_);}
	.st8{display:none;fill:url(#SVGID_9_);}
	.st9{display:none;fill:url(#SVGID_10_);}
	.st10{display:none;fill:url(#SVGID_11_);}
	.st11{fill:url(#SVGID_12_);}
	.st12{fill:url(#SVGID_13_);}
	.st13{fill:url(#SVGID_14_);}
	.st14{fill:url(#SVGID_15_);}
	.st15{fill:url(#SVGID_16_);}
	.st16{fill:url(#SVGID_17_);}
	.st17{fill:url(#SVGID_18_);}
	.st18{fill:url(#SVGID_19_);}
	.st19{opacity:0.7;}
	.st20{fill:url(#SVGID_20_);}
	.st21{fill:url(#SVGID_21_);}
	.st22{fill:url(#SVGID_22_);}
	.st23{fill:url(#SVGID_23_);}
</style>
<g id="Layer_2">
</g>
<g id="Layer_1">
	<g>
		<linearGradient id="SVGID_1_" gradientUnits="userSpaceOnUse" x1="53.2787" y1="115.2346" x2="59.6756" y2="115.2346">
			<stop  offset="0" style="stop-color:#FFE55A"/>
			<stop  offset="1" style="stop-color:#FFEC88"/>
		</linearGradient>
		<polygon class="st0" points="56.5,112.2 57.5,114.2 59.7,114.5 58.1,116.1 58.5,118.3 56.5,117.2 54.5,118.3 54.9,116.1 
			53.3,114.5 55.5,114.2 		"/>
		<linearGradient id="SVGID_2_" gradientUnits="userSpaceOnUse" x1="40.2787" y1="112.2346" x2="46.6756" y2="112.2346">
			<stop  offset="0" style="stop-color:#FFE55A"/>
			<stop  offset="1" style="stop-color:#FFEC88"/>
		</linearGradient>
		<polygon class="st1" points="43.5,109.2 44.5,111.2 46.7,111.5 45.1,113.1 45.5,115.3 43.5,114.2 41.5,115.3 41.9,113.1 
			40.3,111.5 42.5,111.2 		"/>
		<linearGradient id="SVGID_3_" gradientUnits="userSpaceOnUse" x1="67.2787" y1="114.2346" x2="73.6756" y2="114.2346">
			<stop  offset="0" style="stop-color:#FFE55A"/>
			<stop  offset="1" style="stop-color:#FFEC88"/>
		</linearGradient>
		<polygon class="st2" points="70.5,111.2 71.5,113.2 73.7,113.5 72.1,115.1 72.5,117.3 70.5,116.2 68.5,117.3 68.9,115.1 
			67.3,113.5 69.5,113.2 		"/>
		<linearGradient id="SVGID_4_" gradientUnits="userSpaceOnUse" x1="79.2787" y1="109.2346" x2="85.6756" y2="109.2346">
			<stop  offset="0" style="stop-color:#FFE55A"/>
			<stop  offset="1" style="stop-color:#FFEC88"/>
		</linearGradient>
		<polygon class="st3" points="82.5,106.2 83.5,108.2 85.7,108.5 84.1,110.1 84.5,112.3 82.5,111.2 80.5,112.3 80.9,110.1 
			79.3,108.5 81.5,108.2 		"/>
		<linearGradient id="SVGID_5_" gradientUnits="userSpaceOnUse" x1="90.2787" y1="101.2346" x2="96.6756" y2="101.2346">
			<stop  offset="0" style="stop-color:#FFE55A"/>
			<stop  offset="1" style="stop-color:#FFEC88"/>
		</linearGradient>
		<polygon class="st4" points="93.5,98.2 94.5,100.2 96.7,100.5 95.1,102.1 95.5,104.3 93.5,103.2 91.5,104.3 91.9,102.1 
			90.3,100.5 92.5,100.2 		"/>
		
			<linearGradient id="SVGID_6_" gradientUnits="userSpaceOnUse" x1="78.7365" y1="83.7686" x2="85.1337" y2="83.7686" gradientTransform="matrix(0.4626 -0.8866 0.8866 0.4626 -11.2083 125.7571)">
			<stop  offset="0" style="stop-color:#FFE55A"/>
			<stop  offset="1" style="stop-color:#FFEC88"/>
		</linearGradient>
		<polygon class="st5" points="98.3,90.5 100.5,90.5 101.8,88.7 102.4,90.8 104.6,91.5 102.7,92.8 102.7,95 101,93.7 98.8,94.4 
			99.6,92.3 		"/>
		
			<linearGradient id="SVGID_7_" gradientUnits="userSpaceOnUse" x1="104.1037" y1="79.527" x2="110.5009" y2="79.527" gradientTransform="matrix(0.4626 -0.8866 0.8866 0.4626 -11.2083 125.7571)">
			<stop  offset="0" style="stop-color:#FFE55A"/>
			<stop  offset="1" style="stop-color:#FFEC88"/>
		</linearGradient>
		<polygon class="st6" points="106.2,66 107.6,67.8 106.8,69.9 108.9,69.2 110.7,70.6 110.7,68.3 112.5,67.1 110.4,66.4 109.8,64.2 
			108.5,66.1 		"/>
		
			<linearGradient id="SVGID_8_" gradientUnits="userSpaceOnUse" x1="91.7575" y1="83.1041" x2="98.1541" y2="83.1041" gradientTransform="matrix(0.4626 -0.8866 0.8866 0.4626 -11.2083 125.7571)">
			<stop  offset="0" style="stop-color:#FFE55A"/>
			<stop  offset="1" style="stop-color:#FFEC88"/>
		</linearGradient>
		<polygon class="st7" points="103.7,78.6 105,80.4 104.3,82.5 106.4,81.8 108.2,83.2 108.2,80.9 110,79.7 107.9,79 107.2,76.8 
			105.9,78.7 		"/>
		<linearGradient id="SVGID_9_" gradientUnits="userSpaceOnUse" x1="47.6544" y1="9.3743" x2="54.0503" y2="9.3743">
			<stop  offset="0" style="stop-color:#B47A1A"/>
			<stop  offset="5.284686e-02" style="stop-color:#B9811E"/>
			<stop  offset="0.1288" style="stop-color:#C69429"/>
			<stop  offset="0.2187" style="stop-color:#DCB33C"/>
			<stop  offset="0.3185" style="stop-color:#FADE56"/>
			<stop  offset="0.3333" style="stop-color:#FFE55A"/>
			<stop  offset="0.5161" style="stop-color:#FFEC88"/>
			<stop  offset="0.6613" style="stop-color:#FFE55A"/>
			<stop  offset="1" style="stop-color:#B47A1A"/>
		</linearGradient>
		<polygon class="st8" points="54.1,8.7 51.8,8.3 50.9,6.3 49.9,8.3 47.7,8.6 49.2,10.2 48.8,12.4 50.8,11.4 52.8,12.4 52.4,10.2 		
			"/>
		<linearGradient id="SVGID_10_" gradientUnits="userSpaceOnUse" x1="76.2827" y1="9.3743" x2="82.6785" y2="9.3743">
			<stop  offset="0" style="stop-color:#B47A1A"/>
			<stop  offset="5.284686e-02" style="stop-color:#B9811E"/>
			<stop  offset="0.1288" style="stop-color:#C69429"/>
			<stop  offset="0.2187" style="stop-color:#DCB33C"/>
			<stop  offset="0.3185" style="stop-color:#FADE56"/>
			<stop  offset="0.3333" style="stop-color:#FFE55A"/>
			<stop  offset="0.5161" style="stop-color:#FFEC88"/>
			<stop  offset="0.6613" style="stop-color:#FFE55A"/>
			<stop  offset="1" style="stop-color:#B47A1A"/>
		</linearGradient>
		<polygon class="st9" points="82.7,8.7 80.5,8.3 79.5,6.3 78.5,8.3 76.3,8.6 77.9,10.2 77.4,12.4 79.4,11.4 81.4,12.4 81.1,10.2 		
			"/>
		<linearGradient id="SVGID_11_" gradientUnits="userSpaceOnUse" x1="62.4678" y1="6.0588" x2="68.8639" y2="6.0588">
			<stop  offset="0" style="stop-color:#B47A1A"/>
			<stop  offset="5.284686e-02" style="stop-color:#B9811E"/>
			<stop  offset="0.1288" style="stop-color:#C69429"/>
			<stop  offset="0.2187" style="stop-color:#DCB33C"/>
			<stop  offset="0.3185" style="stop-color:#FADE56"/>
			<stop  offset="0.3333" style="stop-color:#FFE55A"/>
			<stop  offset="0.5161" style="stop-color:#FFEC88"/>
			<stop  offset="0.6613" style="stop-color:#FFE55A"/>
			<stop  offset="1" style="stop-color:#B47A1A"/>
		</linearGradient>
		<polygon class="st10" points="68.9,5.4 66.7,5 65.7,3 64.7,5 62.5,5.3 64,6.9 63.6,9 65.6,8 67.6,9.1 67.2,6.9 		"/>
		<g>
			<g>
				<linearGradient id="SVGID_12_" gradientUnits="userSpaceOnUse" x1="35.0472" y1="18.9747" x2="35.0555" y2="18.9747">
					<stop  offset="0" style="stop-color:#92E97F"/>
					<stop  offset="0.4997" style="stop-color:#3E9840"/>
				</linearGradient>
				<path class="st11" d="M35,19L35,19C35.1,19,35.1,19,35,19z"/>
				<radialGradient id="SVGID_13_" cx="35.0514" cy="18.9747" r="3.248762e-03" gradientUnits="userSpaceOnUse">
					<stop  offset="0" style="stop-color:#B47A1A"/>
					<stop  offset="5.284686e-02" style="stop-color:#B9811E"/>
					<stop  offset="0.1288" style="stop-color:#C69429"/>
					<stop  offset="0.2187" style="stop-color:#DCB33C"/>
					<stop  offset="0.3185" style="stop-color:#FADE56"/>
					<stop  offset="0.3333" style="stop-color:#FFE55A"/>
					<stop  offset="0.5161" style="stop-color:#FFEC88"/>
					<stop  offset="0.6613" style="stop-color:#FFE55A"/>
					<stop  offset="1" style="stop-color:#B47A1A"/>
				</radialGradient>
				<path class="st12" d="M35.1,19C35.1,19,35.1,19,35.1,19L35.1,19C35.1,19,35.1,19,35.1,19L35.1,19z"/>
			</g>
			<g>
				<linearGradient id="SVGID_14_" gradientUnits="userSpaceOnUse" x1="35.1372" y1="19.1537" x2="35.1434" y2="19.1537">
					<stop  offset="0" style="stop-color:#92E97F"/>
					<stop  offset="0.4997" style="stop-color:#3E9840"/>
				</linearGradient>
				<path class="st13" d="M35.1,19.2C35.1,19.2,35.1,19.2,35.1,19.2C35.1,19.2,35.1,19.2,35.1,19.2z"/>
				<radialGradient id="SVGID_15_" cx="35.1403" cy="19.1537" r="2.493616e-03" gradientUnits="userSpaceOnUse">
					<stop  offset="0" style="stop-color:#B47A1A"/>
					<stop  offset="5.284686e-02" style="stop-color:#B9811E"/>
					<stop  offset="0.1288" style="stop-color:#C69429"/>
					<stop  offset="0.2187" style="stop-color:#DCB33C"/>
					<stop  offset="0.3185" style="stop-color:#FADE56"/>
					<stop  offset="0.3333" style="stop-color:#FFE55A"/>
					<stop  offset="0.5161" style="stop-color:#FFEC88"/>
					<stop  offset="0.6613" style="stop-color:#FFE55A"/>
					<stop  offset="1" style="stop-color:#B47A1A"/>
				</radialGradient>
				<path class="st14" d="M35.1,19.2C35.1,19.2,35.1,19.2,35.1,19.2C35.1,19.2,35.1,19.2,35.1,19.2L35.1,19.2z M35.1,19.2
					C35.1,19.2,35.1,19.2,35.1,19.2C35.1,19.2,35.1,19.2,35.1,19.2C35.1,19.2,35.1,19.2,35.1,19.2L35.1,19.2z M35.1,19.2
					C35.1,19.2,35.1,19.2,35.1,19.2C35.1,19.2,35.1,19.2,35.1,19.2L35.1,19.2z"/>
			</g>
			<g>
				<linearGradient id="SVGID_16_" gradientUnits="userSpaceOnUse" x1="3" y1="61.1033" x2="44" y2="61.1033">
					<stop  offset="0" style="stop-color:#92E97F"/>
					<stop  offset="0.4997" style="stop-color:#3E9840"/>
				</linearGradient>
				<path class="st15" d="M36.4,21.3c1.1,0.1,2.3,0.1,3.4,0c2.2-0.2,4.1-0.7,4.1-0.7c0,0-0.4-0.8-1.7-1.5c-0.7-0.3-1.5-0.6-2.7-0.6
					c-1.1,0-2.4,0.1-3.9,0.5c-0.2,0.1-0.4,0.1-0.5,0.2c0,0,0,0,0,0L35,19c0,0,0,0,0,0c1.5-1.1,2.7-2,3.6-2.9
					c0.9-0.9,1.5-1.7,1.8-2.3c0.8-1.3,0.7-2.3,0.7-2.3c0,0-0.6,0.2-1.4,0.6c-0.8,0.4-1.9,1-3,1.8c-1,0.8-2,1.7-2.7,2.8
					c-0.7,1-1,2.1-0.7,3.2c-2.1,1.2-4.2,2.5-6.1,4c1.3-1.3,2.3-2.5,3-3.5c0.7-1,1.1-1.9,1.4-2.6c0.5-1.5,0.3-2.3,0.3-2.3
					c0,0-2.1,1.2-3.8,3.2c-0.9,1-1.7,2.1-2.1,3.2c-0.5,1.1-0.6,2.3-0.1,3.2c-1.9,1.6-3.7,3.3-5.4,5.1c1.1-1.6,1.8-2.9,2.3-4
					c0.5-1.1,0.8-2.1,0.9-2.8c0.2-1.5-0.2-2.4-0.2-2.4c0,0-1.8,1.6-3.2,3.8c-0.7,1.1-1.3,2.3-1.5,3.5c-0.2,1.2-0.1,2.3,0.5,3.2
					c-1.7,2-3.2,4.1-4.5,6.3c0.7-1.7,1.2-3.1,1.5-4.4c0.3-1.2,0.4-2.2,0.3-3c-0.1-1.5-0.6-2.3-0.6-2.3c0,0-1.5,1.9-2.4,4.3
					c-0.5,1.2-0.8,2.5-0.8,3.8c0,1.2,0.3,2.3,1.1,3.1c-1.2,2.1-2.2,4.4-3.1,6.7c0.4-1.8,0.6-3.3,0.7-4.6c0.1-1.2,0-2.2-0.2-3
					c-0.3-1.5-1-2.1-1-2.1c0,0-1.1,2.1-1.6,4.7c-0.2,1.3-0.3,2.6-0.1,3.8c0.2,1.2,0.7,2.2,1.6,2.8c-0.8,2.3-1.4,4.6-1.8,7
					c0.1-1.9,0-3.4-0.2-4.6c-0.2-1.2-0.4-2.2-0.8-2.9c-0.6-1.4-1.4-1.9-1.4-1.9c0,0-0.7,2.3-0.7,4.9c0,1.3,0.2,2.7,0.6,3.8
					c0.4,1.1,1.1,2,2.1,2.5c-0.3,2.5-0.5,5-0.5,7.5c-0.3-1.9-0.6-3.3-1-4.5c-0.4-1.2-0.8-2-1.3-2.7c-0.9-1.3-1.7-1.6-1.7-1.6
					c0,0-0.2,2.4,0.3,5c0.2,1.3,0.7,2.6,1.3,3.6c0.6,1,1.5,1.8,2.5,2.1c0.1,2.5,0.4,5.1,0.9,7.6c-0.6-1.8-1.2-3.1-1.8-4.2
					c-0.6-1.1-1.2-1.8-1.8-2.4c-1.1-1.1-2-1.3-2-1.3c0,0,0.2,2.4,1.2,4.8c0.5,1.2,1.1,2.4,2,3.3c0.8,0.9,1.8,1.5,2.9,1.5
					c0.6,2.3,1.3,4.6,2.2,6.9c-0.9-1.6-1.8-2.9-2.6-3.8c-0.8-0.9-1.5-1.6-2.2-2c-1.3-0.9-2.2-0.9-2.2-0.9c0,0,0.2,0.6,0.5,1.4
					c0.3,0.9,0.8,2,1.5,3.1C7,80.9,7.8,82,8.8,82.7c1,0.7,2,1.1,3.1,1c1,2.3,2.2,4.5,3.6,6.6c-1.2-1.4-2.3-2.5-3.2-3.3
					c-1-0.8-1.8-1.3-2.5-1.6C8.3,84.9,7.4,85,7.4,85c0,0,1.1,2.2,2.8,4.1c0.9,1,1.9,1.8,3,2.4c1.1,0.5,2.2,0.7,3.2,0.4
					c1.5,2.1,3.1,4.1,4.8,6c-1.5-1.2-2.7-2-3.8-2.6c-1.1-0.6-2-0.9-2.8-1.1c-1.5-0.3-2.4,0-2.4,0c0,0,1.5,1.9,3.6,3.5
					c1,0.8,2.2,1.4,3.4,1.8c1.2,0.3,2.3,0.3,3.2-0.2c1.7,1.7,3.6,3.2,5.5,4.7c-1.7-0.9-3-1.5-4.2-1.9c-1.2-0.4-2.1-0.5-2.9-0.6
					c-1.5-0.1-2.3,0.4-2.3,0.4c0,0,1.8,1.6,4.1,2.8c1.2,0.6,2.5,1,3.7,1.1c1.2,0.1,2.3-0.1,3.1-0.8c2.1,1.4,4.3,2.6,6.5,3.7
					c-1.8-0.6-3.3-0.9-4.5-1.1c-1.2-0.2-2.2-0.1-3,0c-1.5,0.2-2.2,0.8-2.2,0.8c0,0,2,1.3,4.6,1.9c1.3,0.3,2.6,0.5,3.8,0.4
					c1.2-0.1,2.3-0.5,2.9-1.4l0.1-0.2c0.1-1.1-0.2-2.1-0.8-3.1c-0.6-1-1.4-1.9-2.1-2.7c-1.5-1.6-3.1-2.8-3.1-2.8
					c0,0-0.4,0.8-0.1,2.3c0.1,0.7,0.5,1.6,1.2,2.5c0.7,1,1.7,2,3.3,3.1c-2.3-1.1-4.4-2.3-6.5-3.7c0.3-1,0.2-2.1-0.2-3.2
					c-0.4-1.1-1-2.1-1.6-3c-1.2-1.9-2.5-3.4-2.5-3.4c0,0-0.6,0.7-0.5,2.2c0,0.7,0.2,1.6,0.7,2.7c0.5,1.1,1.3,2.3,2.7,3.6
					c-1.9-1.4-3.8-3-5.5-4.6c0.5-0.9,0.5-2,0.4-3.2c-0.2-1.1-0.6-2.2-1-3.3c-0.9-2.1-1.8-3.8-1.8-3.8c0,0-0.7,0.6-0.9,2.1
					c-0.1,0.7-0.1,1.6,0.2,2.8c0.3,1.1,0.9,2.5,2,4c-1.8-1.8-3.4-3.8-4.8-5.9c0.7-0.8,0.9-1.9,0.9-3c0-1.1-0.2-2.3-0.4-3.4
					c-0.5-2.2-1.1-4-1.1-4c0,0-0.8,0.5-1.3,1.8c-0.3,0.7-0.4,1.6-0.4,2.8c0.1,1.2,0.4,2.6,1.2,4.3c-1.3-2.1-2.5-4.3-3.5-6.6
					c0.8-0.7,1.3-1.7,1.5-2.8c0.2-1.1,0.3-2.3,0.3-3.4c0-2.2-0.3-4.2-0.3-4.2c0,0-0.9,0.3-1.6,1.6c-0.4,0.6-0.7,1.5-0.9,2.7
					c-0.2,1.2-0.1,2.7,0.3,4.5c-0.9-2.2-1.6-4.5-2.2-6.8c0.9-0.5,1.5-1.4,2-2.5c0.4-1,0.7-2.2,0.9-3.3c0.4-2.2,0.4-4.2,0.4-4.2
					c0,0-0.9,0.2-1.9,1.3c-0.5,0.5-1,1.3-1.3,2.5c-0.4,1.1-0.6,2.6-0.5,4.5c-0.5-2.5-0.8-5-0.9-7.6c1-0.3,1.8-1.1,2.4-2.1
					c0.6-0.9,1.1-2,1.5-3.1c0.8-2.1,1.2-4,1.2-4c0,0-0.9,0-2.1,0.9c-0.6,0.4-1.2,1.1-1.8,2.2c-0.6,1-1.1,2.4-1.3,4.3
					c0-2.5,0.1-5,0.5-7.5c1.1-0.2,2-0.8,2.8-1.6c0.8-0.8,1.5-1.8,2-2.8c1.1-1.9,1.9-3.7,1.9-3.7c0,0-0.9-0.2-2.2,0.5
					c-0.6,0.3-1.4,0.9-2.2,1.8c-0.7,0.9-1.5,2.2-2.1,4c0.4-2.4,1-4.7,1.8-7c1.1,0,2.1-0.4,3-1.1c0.9-0.7,1.8-1.5,2.5-2.3
					c1.5-1.7,2.6-3.3,2.6-3.3c0,0-0.9-0.3-2.3,0.1c-0.7,0.2-1.5,0.6-2.4,1.4c-0.9,0.8-1.9,1.9-2.8,3.5c0.9-2.3,1.9-4.5,3.1-6.6
					c1,0.2,2.1,0,3.1-0.5c1-0.5,2-1.2,2.9-1.8c1.8-1.4,3.1-2.8,3.1-2.8c0,0-0.8-0.5-2.2-0.3c-0.7,0.1-1.6,0.3-2.7,0.9
					c-1,0.6-2.2,1.5-3.4,3c1.3-2.2,2.8-4.3,4.5-6.2c1,0.4,2.1,0.4,3.2,0.1c1.1-0.3,2.2-0.8,3.2-1.3c2-1,3.6-2.1,3.6-2.1
					c0,0-0.7-0.6-2.1-0.8c-0.7-0.1-1.7,0-2.8,0.4c-1.1,0.4-2.4,1.1-3.9,2.3c1.7-1.8,3.5-3.5,5.4-5.1c0.9,0.6,2,0.8,3.1,0.7
					c1.1-0.1,2.3-0.3,3.4-0.6c2.1-0.6,3.9-1.4,3.9-1.4c0,0-0.5-0.7-1.9-1.1c-0.7-0.2-1.6-0.3-2.8-0.1c-1.2,0.2-2.6,0.6-4.2,1.5
					c1.9-1.5,3.9-2.8,6.1-3.9C34.3,20.8,35.3,21.1,36.4,21.3z"/>
				<radialGradient id="SVGID_17_" cx="23.5" cy="61.1033" r="37.9551" gradientUnits="userSpaceOnUse">
					<stop  offset="0" style="stop-color:#B47A1A"/>
					<stop  offset="5.284686e-02" style="stop-color:#B9811E"/>
					<stop  offset="0.1288" style="stop-color:#C69429"/>
					<stop  offset="0.2187" style="stop-color:#DCB33C"/>
					<stop  offset="0.3185" style="stop-color:#FADE56"/>
					<stop  offset="0.3333" style="stop-color:#FFE55A"/>
					<stop  offset="0.5161" style="stop-color:#FFEC88"/>
					<stop  offset="0.6613" style="stop-color:#FFE55A"/>
					<stop  offset="1" style="stop-color:#B47A1A"/>
				</radialGradient>
				<path class="st16" d="M40.6,12.3c-0.1,0.3-0.2,0.7-0.5,1.2c-0.4,0.7-1,1.5-1.8,2.2c-0.9,0.9-2,1.8-3.5,2.8l-0.3,0.2l0.1,0.4
					l0.1,0.4h0.1l0,0.2h0.4l0.2,0l0.1,0c0.2-0.1,0.3-0.1,0.5-0.1c1.2-0.4,2.3-0.5,3.3-0.5c0.1,0,0.3,0,0.4,0c1,0,1.8,0.2,2.5,0.6
					c0.5,0.2,0.8,0.5,1,0.7c-0.7,0.1-2,0.4-3.3,0.5c-0.7,0.1-1.3,0.1-1.9,0.1c-0.5,0-1,0-1.4-0.1c-1.2-0.2-2-0.5-2.6-1.1
					c-0.2-0.8,0.1-1.8,0.7-2.7c0.6-0.9,1.4-1.8,2.5-2.6c1.1-0.8,2.2-1.4,2.9-1.7C40.2,12.5,40.4,12.4,40.6,12.3 M31.5,16.2
					c0,0.3-0.1,0.8-0.3,1.3c-0.3,0.8-0.7,1.6-1.3,2.5c-0.7,1-1.7,2.1-2.9,3.4l0.4,0.4l0.3,0.5c1.4-0.8,2.8-1.3,4.1-1.4
					c0.4,0,0.7-0.1,1-0.1c0.5,0,1.1,0.1,1.5,0.2c0.5,0.1,0.9,0.3,1.1,0.5c-0.7,0.3-1.9,0.7-3.1,1.1c-1.3,0.4-2.3,0.6-3.3,0.6
					c-0.1,0-0.3,0-0.4,0c-1,0-1.7-0.2-2.3-0.6c-0.3-0.8-0.3-1.7,0.2-2.8c0.4-1,1.1-2,2-3C29.6,17.6,30.8,16.7,31.5,16.2 M23.2,21.8
					c0,0.3,0,0.8,0,1.3c-0.1,0.8-0.4,1.7-0.8,2.7c-0.5,1.1-1.3,2.4-2.3,3.9l0.5,0.4l0.4,0.4c1.2-1,2.5-1.8,3.7-2.2
					c0.7-0.2,1.5-0.4,2.1-0.4c0.2,0,0.3,0,0.4,0c0.5,0,0.9,0.2,1.2,0.3c-0.6,0.4-1.7,1-2.9,1.6c-1.2,0.6-2.2,1-3.1,1.2
					c-0.5,0.1-1,0.2-1.4,0.2c-0.5,0-1-0.1-1.4-0.3c-0.5-0.7-0.6-1.7-0.4-2.8c0.2-1,0.7-2.2,1.4-3.4C21.6,23.6,22.6,22.5,23.2,21.8
					 M15.9,29.1c0.1,0.3,0.2,0.8,0.2,1.3c0,0.8-0.1,1.8-0.3,2.8c-0.3,1.2-0.8,2.6-1.5,4.3l0.5,0.3l0.5,0.3c1-1.2,2.1-2.2,3.2-2.8
					c0.8-0.5,1.7-0.8,2.5-0.8c0.2,0,0.3,0,0.5,0c0.3,0,0.6,0,0.8,0.1c-0.6,0.5-1.5,1.3-2.5,2.2c-1.1,0.8-2,1.4-2.8,1.8
					c-0.8,0.4-1.5,0.5-2.1,0.5c-0.2,0-0.5,0-0.7-0.1c-0.6-0.6-0.9-1.5-0.9-2.7c0-1,0.3-2.3,0.8-3.6C14.7,31.1,15.4,29.9,15.9,29.1
					 M10.3,37.3c0.2,0.3,0.3,0.7,0.4,1.2c0.2,0.8,0.3,1.8,0.2,2.8c-0.1,1.3-0.3,2.7-0.7,4.5l0.6,0.2l0.5,0.3
					c0.8-1.4,1.7-2.5,2.7-3.4c0.7-0.6,1.5-1,2.3-1.3c0.4-0.1,0.8-0.2,1.2-0.2c0,0,0,0,0,0C17.1,42,16.4,43,15.5,44
					c-0.9,1-1.7,1.7-2.4,2.3c-0.9,0.7-1.8,1-2.6,1l-0.1,0c-0.7-0.5-1.2-1.3-1.4-2.5c-0.2-1-0.2-2.3,0.1-3.7
					C9.4,39.5,10,38.1,10.3,37.3 M6.4,46.2c0.2,0.3,0.4,0.6,0.7,1.1c0.3,0.8,0.6,1.7,0.7,2.7c0.2,1.2,0.2,2.7,0.2,4.5l0.6,0.1
					l0.6,0.1c0.5-1.5,1.2-2.8,2-3.8c0.6-0.7,1.3-1.3,2-1.7c0.5-0.2,0.9-0.3,1.2-0.4c-0.3,0.7-0.9,1.8-1.6,2.9c-0.7,1.2-1.3,2-2,2.7
					c-0.8,0.8-1.6,1.3-2.4,1.4c-0.8-0.4-1.4-1.1-1.8-2.2c-0.4-1-0.6-2.2-0.6-3.6C5.9,48.6,6.2,47.1,6.4,46.2 M4,56.1
					c0.3,0.2,0.6,0.5,0.9,1c0.5,0.7,0.9,1.5,1.2,2.6c0.4,1.2,0.7,2.6,1,4.4l0.6,0l0.6,0c0.2-1.6,0.6-3,1.3-4.1c0.5-0.8,1-1.5,1.6-2
					c0.4-0.3,0.8-0.5,1.1-0.6c-0.2,0.7-0.5,1.9-1,3.2c-0.5,1.3-0.9,2.2-1.4,3c-0.6,1-1.3,1.6-2.1,1.9c-0.8-0.2-1.6-0.8-2.2-1.8
					c-0.6-0.9-1-2.1-1.2-3.4C4,58.5,4,57,4,56.1 M11.9,65.9c-0.1,0.8-0.2,2-0.4,3.3c-0.2,1.3-0.5,2.4-0.9,3.2
					c-0.5,1.1-1,1.8-1.7,2.2c-0.9-0.1-1.7-0.5-2.5-1.4c-0.7-0.8-1.4-1.9-1.9-3.2c-0.6-1.5-0.9-2.9-1-3.8c0.3,0.2,0.6,0.4,1,0.8
					c0.6,0.6,1.1,1.3,1.7,2.3c0.6,1.1,1.2,2.4,1.8,4.1l0.6-0.2l0.6-0.1c-0.1-1.6,0.1-3,0.5-4.3c0.3-0.9,0.7-1.7,1.2-2.3
					C11.3,66.4,11.7,66.1,11.9,65.9 M13.1,74.1c0.1,0.8,0.2,2,0.2,3.3c0,1.4-0.1,2.4-0.3,3.3c-0.2,1.1-0.7,2-1.3,2.5
					c-0.1,0-0.2,0-0.3,0c-0.8,0-1.6-0.3-2.4-0.9c-0.8-0.6-1.7-1.6-2.4-2.8c-0.7-1.1-1.2-2.3-1.5-3C5.1,76.4,5.1,76.2,5,76
					c0.3,0.1,0.7,0.3,1.2,0.6c0.7,0.5,1.4,1.1,2.1,1.9c0.8,1,1.6,2.2,2.5,3.7l0.5-0.3l0.6-0.2c-0.4-1.6-0.5-3-0.3-4.3
					c0.1-1,0.4-1.8,0.8-2.5C12.6,74.7,12.9,74.3,13.1,74.1 M15.9,82.2c0.2,0.7,0.6,1.9,0.8,3.2c0.3,1.3,0.4,2.4,0.4,3.3
					c0,1.2-0.3,2-0.8,2.7c-0.3,0.1-0.6,0.1-0.9,0.1c-0.6,0-1.3-0.2-1.9-0.5c-0.9-0.5-1.9-1.2-2.9-2.3c-1.1-1.2-1.9-2.4-2.4-3.2
					c0.3,0.1,0.8,0.2,1.3,0.4c0.8,0.3,1.6,0.8,2.4,1.5c1,0.8,2,1.8,3.2,3.2l0.5-0.4l0.5-0.3c-0.7-1.5-1-2.9-1.1-4.2
					c-0.1-1,0.1-1.8,0.3-2.6C15.5,82.8,15.7,82.4,15.9,82.2 M20.2,89.7c0.4,0.7,0.9,1.8,1.4,3c0.5,1.3,0.8,2.3,1,3.2
					c0.2,1.1,0.1,2.1-0.3,2.8c-0.4,0.2-0.9,0.3-1.5,0.3c-0.4,0-0.9-0.1-1.3-0.2c-1-0.3-2.1-0.9-3.3-1.7c-1.3-0.9-2.3-2-2.9-2.7
					c0,0,0.1,0,0.1,0c0.4,0,0.8,0,1.2,0.1c0.8,0.2,1.7,0.5,2.6,1c1.1,0.6,2.3,1.4,3.7,2.5l0.4-0.4l0.5-0.4c-0.9-1.3-1.6-2.6-1.9-3.9
					c-0.2-0.9-0.3-1.8-0.2-2.6C19.9,90.4,20,90,20.2,89.7 M25.5,96c0.5,0.6,1.2,1.6,1.9,2.7c0.7,1.1,1.2,2.1,1.5,2.9
					c0.4,1.1,0.5,2,0.2,2.8c-0.6,0.4-1.3,0.7-2.2,0.7c-0.2,0-0.4,0-0.5,0c-1-0.1-2.3-0.5-3.5-1.1c-1.4-0.7-2.7-1.6-3.4-2.1
					c0.3-0.1,0.6-0.1,1.1-0.1c0.1,0,0.2,0,0.3,0c0.8,0,1.8,0.2,2.8,0.5c1.2,0.4,2.5,1,4.1,1.8l0.3-0.5l0.4-0.5
					c-1.2-1.1-2-2.3-2.6-3.5c-0.4-0.9-0.6-1.7-0.6-2.5C25.4,96.8,25.5,96.3,25.5,96 M32.2,101.4c0.6,0.5,1.5,1.3,2.4,2.3
					c0.9,1,1.6,1.8,2.1,2.6c0.6,1,0.8,1.9,0.7,2.7l0,0c-0.6,0.6-1.4,1-2.6,1.1c-0.2,0-0.5,0-0.7,0c-0.9,0-1.9-0.1-2.9-0.4
					c-1.5-0.4-2.9-1-3.7-1.5c0.3-0.1,0.7-0.3,1.3-0.3c0.4-0.1,0.8-0.1,1.2-0.1c0.5,0,1,0,1.6,0.1c1.2,0.2,2.7,0.5,4.4,1l0.2-0.5
					l0.3-0.5c-1.3-0.9-2.4-1.9-3.2-2.9c-0.6-0.8-0.9-1.6-1.1-2.4C32.1,102.2,32.1,101.7,32.2,101.4 M41.2,11.5c0,0-0.6,0.2-1.4,0.6
					c-0.8,0.4-1.9,1-3,1.8c-1,0.8-2,1.7-2.7,2.8c-0.7,1-1,2.1-0.7,3.2c-2.1,1.2-4.2,2.5-6.1,4c1.3-1.3,2.3-2.5,3-3.5
					c0.7-1,1.1-1.9,1.4-2.6c0.5-1.5,0.3-2.3,0.3-2.3c0,0,0,0,0,0c0,0-2.1,1.2-3.8,3.2c-0.9,1-1.7,2.1-2.1,3.2
					c-0.5,1.1-0.6,2.3-0.1,3.2c-1.9,1.6-3.7,3.3-5.4,5.1c1.1-1.6,1.8-2.9,2.3-4c0.5-1.1,0.8-2.1,0.9-2.8c0.2-1.5-0.2-2.4-0.2-2.4
					c0,0,0,0,0,0c0,0,0,0,0,0c0,0-1.8,1.6-3.2,3.8c-0.7,1.1-1.3,2.3-1.5,3.5c-0.2,1.2-0.1,2.3,0.5,3.2c-1.7,2-3.2,4.1-4.5,6.3
					c0.7-1.7,1.2-3.1,1.5-4.4c0.3-1.2,0.4-2.2,0.3-3c-0.1-1.5-0.6-2.3-0.6-2.3c0,0,0,0,0,0c0,0-1.5,1.9-2.4,4.3
					c-0.5,1.2-0.8,2.5-0.8,3.8c0,1.2,0.3,2.3,1.1,3.1c-1.2,2.1-2.2,4.4-3.1,6.7c0.4-1.8,0.6-3.3,0.7-4.6c0.1-1.2,0-2.2-0.2-3
					c-0.3-1.5-1-2.1-1-2.1c0,0,0,0,0,0c0,0,0,0,0,0c0,0-1.1,2.1-1.6,4.7c-0.2,1.3-0.3,2.6-0.1,3.8c0.2,1.2,0.7,2.2,1.6,2.8
					c-0.8,2.3-1.4,4.6-1.8,7c0.1-1.9,0-3.4-0.2-4.6c-0.2-1.2-0.4-2.2-0.8-2.9c-0.6-1.4-1.4-1.9-1.4-1.9c0,0,0,0,0,0
					c0,0-0.7,2.3-0.7,4.9c0,1.3,0.2,2.7,0.6,3.8c0.4,1.1,1.1,2,2.1,2.5c-0.3,2.5-0.5,5-0.5,7.5c-0.3-1.9-0.6-3.3-1-4.5
					c-0.4-1.2-0.8-2-1.3-2.7c-0.9-1.3-1.7-1.6-1.7-1.6c0,0,0,0,0,0c0,0-0.2,2.4,0.3,5c0.2,1.3,0.7,2.6,1.3,3.6
					c0.6,1,1.5,1.8,2.5,2.1c0.1,2.5,0.4,5.1,0.9,7.6c-0.6-1.8-1.2-3.1-1.8-4.2c-0.6-1.1-1.2-1.8-1.8-2.4c-1.1-1.1-2-1.3-2-1.3
					c0,0,0,0,0,0c0,0,0,0,0,0c0,0,0.2,2.4,1.2,4.8c0.5,1.2,1.1,2.4,2,3.3c0.8,0.9,1.8,1.5,2.9,1.5c0.6,2.3,1.3,4.6,2.2,6.9
					c-0.9-1.6-1.8-2.9-2.6-3.8c-0.8-0.9-1.5-1.6-2.2-2c-1.2-0.8-2.1-0.9-2.2-0.9c0,0,0,0,0,0h0c0,0,0.2,0.6,0.5,1.4
					c0.3,0.9,0.8,2,1.5,3.1C7,80.9,7.8,82,8.8,82.7c0.8,0.6,1.7,1,2.7,1c0.1,0,0.3,0,0.4,0c1,2.3,2.2,4.5,3.6,6.6
					c-1.2-1.4-2.3-2.5-3.2-3.3c-1-0.8-1.8-1.3-2.5-1.6c-0.9-0.4-1.6-0.5-2-0.5c-0.2,0-0.3,0-0.3,0c0,0,0,0,0,0c0,0,1.1,2.2,2.8,4.1
					c0.9,1,1.9,1.8,3,2.4c0.7,0.4,1.5,0.6,2.2,0.6c0.4,0,0.7-0.1,1.1-0.2c1.5,2.1,3.1,4.1,4.8,6c-1.5-1.2-2.7-2-3.8-2.6
					c-1.1-0.6-2-0.9-2.8-1.1C14.2,94,13.8,94,13.4,94c-0.7,0-1.1,0.1-1.1,0.2c0,0,0,0,0,0c0,0,1.5,1.9,3.6,3.5
					c1,0.8,2.2,1.4,3.4,1.8c0.5,0.1,1,0.2,1.5,0.2c0.6,0,1.2-0.1,1.8-0.4c1.7,1.7,3.6,3.2,5.5,4.7c-1.7-0.9-3-1.5-4.2-1.9
					c-1.2-0.4-2.1-0.5-2.9-0.6c-0.1,0-0.2,0-0.3,0c-1.4,0-2,0.4-2,0.4c0,0,0,0,0,0c0,0,1.8,1.6,4.1,2.8c1.2,0.6,2.5,1,3.7,1.1
					c0.2,0,0.4,0,0.6,0c1,0,1.9-0.2,2.6-0.8c2.1,1.4,4.3,2.6,6.5,3.7c-1.8-0.6-3.3-0.9-4.5-1.1c-0.6-0.1-1.2-0.1-1.7-0.1
					c-0.5,0-0.9,0-1.3,0.1c-1.5,0.2-2.2,0.8-2.2,0.8c0,0,2.1,1.3,4.6,1.9c1,0.3,2.1,0.4,3.1,0.4c0.3,0,0.5,0,0.8,0
					c1.2-0.1,2.3-0.5,2.9-1.4l0.1-0.2c0.1-1.1-0.2-2.1-0.8-3.1c-0.6-1-1.4-1.9-2.1-2.7c-1.5-1.6-3.1-2.8-3.1-2.8
					c0,0-0.4,0.8-0.1,2.3c0.1,0.7,0.5,1.6,1.2,2.5c0.7,1,1.7,2,3.3,3.1c-2.3-1.1-4.4-2.3-6.5-3.7c0.3-1,0.2-2.1-0.2-3.2
					c-0.4-1.1-1-2.1-1.6-3c-1.2-1.9-2.5-3.4-2.5-3.4c0,0-0.6,0.7-0.5,2.2c0,0.7,0.2,1.6,0.7,2.7c0.5,1.1,1.3,2.3,2.7,3.6
					c-1.9-1.4-3.8-3-5.5-4.6c0.5-0.9,0.5-2,0.4-3.2c-0.2-1.1-0.6-2.2-1-3.3c-0.9-2.1-1.8-3.8-1.8-3.8c0,0-0.7,0.6-0.9,2.1
					c-0.1,0.7-0.1,1.6,0.2,2.8c0.3,1.1,0.9,2.5,2,4c-1.8-1.8-3.4-3.8-4.8-5.9c0.7-0.8,0.9-1.9,0.9-3c0-1.1-0.2-2.3-0.4-3.4
					c-0.5-2.2-1.1-4-1.1-4c0,0-0.8,0.5-1.3,1.8c-0.3,0.7-0.4,1.6-0.4,2.8c0.1,1.2,0.4,2.6,1.2,4.3c-1.3-2.1-2.5-4.3-3.5-6.6
					c0.8-0.7,1.3-1.7,1.5-2.8c0.2-1.1,0.3-2.3,0.3-3.4c0-2.2-0.3-4.2-0.3-4.2c0,0-0.9,0.3-1.6,1.6c-0.4,0.6-0.7,1.5-0.9,2.7
					c-0.2,1.2-0.1,2.7,0.3,4.5c-0.9-2.2-1.6-4.5-2.2-6.8c0.9-0.5,1.5-1.4,2-2.5c0.4-1,0.7-2.2,0.9-3.3c0.4-2.2,0.4-4.2,0.4-4.2
					c0,0-0.9,0.2-1.9,1.3c-0.5,0.5-1,1.3-1.3,2.5c-0.4,1.1-0.6,2.6-0.5,4.5c-0.5-2.5-0.8-5-0.9-7.6c1-0.3,1.8-1.1,2.4-2.1
					c0.6-0.9,1.1-2,1.5-3.1c0.8-2.1,1.2-4,1.2-4c0,0-0.9,0-2.1,0.9c-0.6,0.4-1.2,1.1-1.8,2.2c-0.6,1-1.1,2.4-1.3,4.3
					c0-2.5,0.1-5,0.5-7.5c1.1-0.2,2-0.8,2.8-1.6c0.8-0.8,1.5-1.8,2-2.8c1.1-1.9,1.9-3.7,1.9-3.7c0,0,0,0,0,0c0,0-0.1,0-0.3,0
					c-0.4,0-1,0.1-1.9,0.5c-0.6,0.3-1.4,0.9-2.2,1.8c-0.7,0.9-1.5,2.2-2.1,4c0.4-2.4,1-4.7,1.8-7c0,0,0.1,0,0.1,0c1,0,2-0.4,2.9-1.1
					c0.9-0.7,1.8-1.5,2.5-2.3c1.5-1.7,2.6-3.3,2.6-3.3c0,0,0,0,0,0c0,0-0.3-0.1-0.9-0.1c-0.4,0-0.8,0-1.3,0.2
					c-0.7,0.2-1.5,0.6-2.4,1.4c-0.9,0.8-1.9,1.9-2.8,3.5c0.9-2.3,1.9-4.5,3.1-6.6c0.3,0.1,0.5,0.1,0.8,0.1c0.8,0,1.6-0.2,2.3-0.6
					c1-0.5,2-1.2,2.9-1.8c1.8-1.4,3.1-2.8,3.1-2.8c0,0,0,0,0,0c0,0-0.6-0.4-1.7-0.4c-0.2,0-0.3,0-0.5,0c-0.7,0.1-1.6,0.3-2.7,0.9
					c-1,0.6-2.2,1.5-3.4,3c1.3-2.2,2.8-4.3,4.5-6.2c0.5,0.2,1.1,0.3,1.6,0.3c0.5,0,1-0.1,1.5-0.2c1.1-0.3,2.2-0.8,3.2-1.3
					c2-1,3.6-2.1,3.6-2.1c0,0,0,0,0,0c0,0-0.7-0.6-2.1-0.8c-0.2,0-0.3,0-0.5,0c-0.6,0-1.4,0.1-2.3,0.4c-1.1,0.4-2.4,1.1-3.9,2.3
					c1.7-1.8,3.5-3.5,5.4-5.1c0.8,0.5,1.7,0.7,2.7,0.7c0.1,0,0.3,0,0.4,0c1.1-0.1,2.3-0.3,3.4-0.6c2.1-0.6,3.9-1.4,3.9-1.4
					c0,0,0,0,0,0c0,0-0.5-0.7-1.9-1.1c-0.5-0.1-1-0.2-1.7-0.2c-0.3,0-0.7,0-1.1,0.1c-1.2,0.2-2.6,0.6-4.2,1.5
					c1.9-1.5,3.9-2.8,6.1-3.9c0.8,0.8,1.8,1.1,2.9,1.3c0.5,0.1,1,0.1,1.5,0.1c0.7,0,1.3,0,2-0.1c2.2-0.2,4.1-0.7,4.1-0.7
					c0,0-0.4-0.8-1.7-1.5c-0.7-0.3-1.5-0.6-2.7-0.6c-0.1,0-0.3,0-0.4,0c-1,0-2.1,0.1-3.5,0.6c-0.2,0.1-0.4,0.1-0.5,0.2c0,0,0,0,0,0
					c0,0,0,0,0,0L35,19c0,0,0,0,0,0c0,0,0,0,0,0l0,0c0,0,0,0,0,0c1.5-1.1,2.7-2,3.6-2.9c0.9-0.9,1.5-1.7,1.8-2.3
					C41.2,12.4,41.2,11.5,41.2,11.5L41.2,11.5z M44,20.6C44,20.6,44,20.6,44,20.6L44,20.6C44,20.6,44,20.6,44,20.6L44,20.6z
					 M36.4,23.7C36.4,23.7,36.4,23.7,36.4,23.7C36.4,23.7,36.4,23.7,36.4,23.7L36.4,23.7z M16,28.1C16,28.1,16,28.1,16,28.1
					C16,28.1,16,28.1,16,28.1C16,28.1,16,28.1,16,28.1L16,28.1z M29.4,28.3C29.4,28.3,29.4,28.3,29.4,28.3
					C29.4,28.3,29.4,28.3,29.4,28.3L29.4,28.3z M23.2,34.3C23.2,34.3,23.2,34.3,23.2,34.3C23.2,34.3,23.2,34.3,23.2,34.3L23.2,34.3z
					 M18.5,41.1C18.5,41.1,18.5,41.1,18.5,41.1C18.5,41.1,18.5,41.1,18.5,41.1L18.5,41.1z M6.1,45.3C6.1,45.3,6.1,45.3,6.1,45.3
					C6.1,45.3,6.1,45.3,6.1,45.3C6.1,45.3,6.1,45.3,6.1,45.3L6.1,45.3z M15,48.5C15,48.5,15,48.5,15,48.5C15,48.5,15,48.5,15,48.5
					L15,48.5z M3.6,55.2C3.6,55.2,3.6,55.2,3.6,55.2C3.6,55.2,3.6,55.2,3.6,55.2C3.6,55.2,3.6,55.2,3.6,55.2L3.6,55.2z M13,56.6
					C13,56.6,13,56.6,13,56.6C13,56.6,13,56.6,13,56.6L13,56.6z M12.5,65.2C12.5,65.2,12.5,65.2,12.5,65.2
					C12.5,65.2,12.5,65.2,12.5,65.2L12.5,65.2z M13.5,73.3C13.5,73.3,13.5,73.3,13.5,73.3C13.5,73.3,13.5,73.3,13.5,73.3L13.5,73.3z
					 M16.1,81.3C16.1,81.3,16.1,81.3,16.1,81.3C16.1,81.3,16.1,81.3,16.1,81.3L16.1,81.3z M20.2,88.8C20.2,88.8,20.2,88.8,20.2,88.8
					C20.2,88.8,20.2,88.8,20.2,88.8L20.2,88.8z M25.4,95.1C25.4,95.1,25.4,95.1,25.4,95.1C25.4,95.1,25.4,95.1,25.4,95.1L25.4,95.1z
					 M31.9,100.5C31.9,100.5,31.9,100.5,31.9,100.5C31.9,100.5,31.9,100.5,31.9,100.5L31.9,100.5z M26.5,108.3
					C26.5,108.3,26.5,108.3,26.5,108.3L26.5,108.3C26.5,108.3,26.5,108.3,26.5,108.3L26.5,108.3z"/>
			</g>
		</g>
	</g>
	<g>
		<g>
			<g>
				<linearGradient id="SVGID_18_" gradientUnits="userSpaceOnUse" x1="58.3185" y1="18.859" x2="94.3724" y2="92.7803">
					<stop  offset="0" style="stop-color:#FFE55A"/>
					<stop  offset="0.5161" style="stop-color:#FFEC88"/>
					<stop  offset="0.6613" style="stop-color:#FFE55A"/>
					<stop  offset="1" style="stop-color:#B47A1A"/>
				</linearGradient>
				<path class="st17" d="M60.3,22.6L60.3,22.6c-0.1,0-0.2,0-0.2,0C37.4,22.6,19,41,19,63.7s18.4,41.1,41.1,41.1
					s41.1-18.4,41.1-41.1c0-7-1.7-13.5-4.8-19.3H76.7c5.4,4.7,8.8,11.6,8.8,19.3c0,14-11.4,25.4-25.4,25.4S34.7,77.7,34.7,63.7
					s11.4-25.4,25.4-25.4c0,0,0,0,0,0v0h0.2v0h50c8.7,0,15.7-7,15.7-15.7v0H60.3z"/>
				<radialGradient id="SVGID_19_" cx="72.5" cy="63.7351" r="47.7109" gradientUnits="userSpaceOnUse">
					<stop  offset="0" style="stop-color:#B47A1A"/>
					<stop  offset="5.284686e-02" style="stop-color:#B9811E"/>
					<stop  offset="0.1288" style="stop-color:#C69429"/>
					<stop  offset="0.2187" style="stop-color:#DCB33C"/>
					<stop  offset="0.3185" style="stop-color:#FADE56"/>
					<stop  offset="0.3333" style="stop-color:#FFE55A"/>
					<stop  offset="0.5161" style="stop-color:#FFEC88"/>
					<stop  offset="0.6613" style="stop-color:#FFE55A"/>
					<stop  offset="1" style="stop-color:#B47A1A"/>
				</radialGradient>
				<path class="st18" d="M125.2,23.4c-0.4,7.9-6.9,14.2-14.9,14.2H61.1v0h-0.7h-0.2l-0.7,0v0C45.3,38,34,49.6,34,63.7
					c0,14.4,11.7,26.2,26.2,26.2c14.4,0,26.2-11.7,26.2-26.2c0-7-2.8-13.6-7.7-18.5H96c2.9,5.7,4.5,12.1,4.5,18.5
					c0,22.3-18.1,40.4-40.4,40.4S19.7,86,19.7,63.7s18.1-40.4,40.4-40.4l0.1,0c0,0,0.1,0,0.1,0l0.8,0v0H125.2 M126,22.6H60.3v0
					c-0.1,0-0.2,0-0.2,0C37.4,22.6,19,41,19,63.7c0,22.7,18.4,41.1,41.1,41.1s41.1-18.4,41.1-41.1c0-7-1.7-13.5-4.8-19.3H76.7
					c5.4,4.7,8.8,11.6,8.8,19.3c0,14-11.4,25.4-25.4,25.4c-14,0-25.4-11.4-25.4-25.4c0-14,11.4-25.4,25.4-25.4c0,0,0,0,0,0v0h0.2v0
					h50C119,38.3,126,31.3,126,22.6L126,22.6L126,22.6z"/>
			</g>
			<g class="st19">
				<linearGradient id="SVGID_20_" gradientUnits="userSpaceOnUse" x1="80.6364" y1="46.4142" x2="77.2427" y2="47.1356">
					<stop  offset="0" style="stop-color:#FFE55A"/>
					<stop  offset="1" style="stop-color:#FFEC88"/>
				</linearGradient>
				<path class="st20" d="M80.9,49.1c-0.2-1.6-0.4-3.1-0.7-4.6h-3.5C78.3,45.9,79.7,47.4,80.9,49.1z"/>
				<linearGradient id="SVGID_21_" gradientUnits="userSpaceOnUse" x1="83.1995" y1="58.6381" x2="19.8512" y2="72.1032">
					<stop  offset="0" style="stop-color:#FFE55A"/>
					<stop  offset="1" style="stop-color:#FFEC88"/>
				</linearGradient>
				<path class="st21" d="M60.3,22.6L60.3,22.6c-0.1,0-0.2,0-0.2,0C37.4,22.6,19,41,19,63.7s18.4,41.1,41.1,41.1
					c1.1,0,2.1-0.1,3.2-0.1c5.8-5.8,10.5-13.4,13.7-22c-4.5,4-10.4,6.4-16.9,6.4c-14,0-25.4-11.4-25.4-25.4s11.4-25.4,25.4-25.4
					c0,0,0,0,0,0v0h0.2v0h18.5c-1.5-5.7-3.6-10.9-6.3-15.7H60.3z"/>
			</g>
			<g>
				<linearGradient id="SVGID_22_" gradientUnits="userSpaceOnUse" x1="40.8616" y1="63.733" x2="117.7631" y2="63.733">
					<stop  offset="0" style="stop-color:#92E97F"/>
					<stop  offset="0.4997" style="stop-color:#3E9840"/>
				</linearGradient>
				<path class="st22" d="M60.3,44.5L60.3,44.5c-0.1,0-0.2,0-0.2,0c-10.6,0-19.3,8.6-19.3,19.3c0,10.6,8.6,19.2,19.3,19.2
					c9.6,0,17.5-7,19-16.1H59.8c-1.7,0-3.1-1.4-3.1-3.1c0-0.9,0.4-1.6,0.9-2.2c0.6-0.6,1.3-0.9,2.2-0.9h0.6v0h41.7
					c8.7,0,15.7-7,15.7-15.7v-0.5H60.3z"/>
				<radialGradient id="SVGID_23_" cx="79.3124" cy="63.733" r="30.405" gradientUnits="userSpaceOnUse">
					<stop  offset="0" style="stop-color:#B47A1A"/>
					<stop  offset="5.284686e-02" style="stop-color:#B9811E"/>
					<stop  offset="0.1288" style="stop-color:#C69429"/>
					<stop  offset="0.2187" style="stop-color:#DCB33C"/>
					<stop  offset="0.3185" style="stop-color:#FADE56"/>
					<stop  offset="0.3333" style="stop-color:#FFE55A"/>
					<stop  offset="0.5161" style="stop-color:#FFEC88"/>
					<stop  offset="0.6613" style="stop-color:#FFE55A"/>
					<stop  offset="1" style="stop-color:#B47A1A"/>
				</radialGradient>
				<path class="st23" d="M117,45.2c-0.1,8.1-6.8,14.7-15,14.7h-41v0h-0.7h-0.6c-1,0-2,0.4-2.7,1.1c-0.7,0.7-1.1,1.7-1.1,2.7
					c0,2.1,1.7,3.9,3.9,3.9h18.4c-1.8,8.5-9.3,14.6-18.1,14.6c-10.2,0-18.5-8.3-18.5-18.5c0-10.2,8.3-18.5,18.5-18.5l0.1,0
					c0,0,0.1,0,0.1,0l0.8,0v0H117 M117.8,44.5H60.3v0c-0.1,0-0.2,0-0.2,0c-10.6,0-19.3,8.6-19.3,19.3c0,10.6,8.6,19.2,19.3,19.2
					c9.6,0,17.5-7,19-16.1H59.8c-1.7,0-3.1-1.4-3.1-3.1c0-0.9,0.4-1.6,0.9-2.2c0.6-0.6,1.3-0.9,2.2-0.9h0.6v0h41.7
					c8.7,0,15.7-7,15.7-15.7V44.5L117.8,44.5z"/>
			</g>
		</g>
	</g>
</g>
</svg>
