<?xml version="1.0" encoding="utf-8"?>
<!-- Generator: Adobe Illustrator 21.0.0, SVG Export Plug-In . SVG Version: 6.00 Build 0)  -->
<svg version="1.1" id="Layer_1" xmlns="http://www.w3.org/2000/svg" xmlns:xlink="http://www.w3.org/1999/xlink" x="0px" y="0px"
	 viewBox="0 0 90 90" style="enable-background:new 0 0 90 90;" xml:space="preserve">
<style type="text/css">
	.st0{fill:url(#SVGID_1_);}
	.st1{fill:url(#SVGID_2_);}
	.st2{fill:url(#SVGID_3_);}
	.st3{fill:url(#SVGID_4_);}
	.st4{fill:url(#SVGID_5_);}
	.st5{fill:url(#SVGID_6_);}
	.st6{fill:url(#SVGID_7_);}
	.st7{fill:url(#SVGID_8_);}
	.st8{fill:url(#SVGID_9_);}
	.st9{fill:url(#SVGID_10_);}
	.st10{fill:url(#SVGID_11_);}
	.st11{fill:url(#SVGID_12_);}
	.st12{fill:url(#SVGID_13_);}
	.st13{fill:url(#SVGID_14_);}
	.st14{opacity:0.1;fill:#FFFFFF;enable-background:new    ;}
	.st15{fill:url(#SVGID_15_);}
	.st16{fill:url(#SVGID_16_);}
	.st17{fill:url(#SVGID_17_);}
	.st18{fill:url(#SVGID_18_);}
	.st19{fill:url(#SVGID_19_);}
	.st20{fill:url(#SVGID_20_);}
</style>
<linearGradient id="SVGID_1_" gradientUnits="userSpaceOnUse" x1="-214.2982" y1="-75.4848" x2="-214.2982" y2="12.908" gradientTransform="matrix(0.5591 -0.8291 -0.8291 -0.5591 138.923 -150.1679)">
	<stop  offset="0" style="stop-color:#733C8C"/>
	<stop  offset="0.2121" style="stop-color:#7733A1"/>
	<stop  offset="0.2402" style="stop-color:#722F91"/>
	<stop  offset="0.2883" style="stop-color:#6B2B7B"/>
	<stop  offset="0.3415" style="stop-color:#66286C"/>
	<stop  offset="0.4032" style="stop-color:#632663"/>
	<stop  offset="0.4935" style="stop-color:#622560"/>
	<stop  offset="0.4981" style="stop-color:#662A68"/>
	<stop  offset="0.5129" style="stop-color:#71357E"/>
	<stop  offset="0.5292" style="stop-color:#783E8D"/>
	<stop  offset="0.5481" style="stop-color:#7D4296"/>
	<stop  offset="0.5758" style="stop-color:#7E4499"/>
	<stop  offset="0.6082" style="stop-color:#8140A4"/>
	<stop  offset="0.6618" style="stop-color:#843BAF"/>
	<stop  offset="0.7186" style="stop-color:#853AB3"/>
	<stop  offset="0.9913" style="stop-color:#622D96"/>
</linearGradient>
<path class="st0" d="M8.4,20.3C-5.2,40.5,0.1,68,20.3,81.7c20.3,13.6,47.8,8.3,61.4-12C95.4,49.5,90,22,69.8,8.3
	C49.5-5.3,22.1,0,8.4,20.3z M77.3,66.7c-12,17.8-36.1,22.5-53.9,10.5S0.9,41.1,12.9,23.3S49,0.8,66.8,12.8S89.3,48.9,77.3,66.7z"/>
<radialGradient id="SVGID_2_" cx="-214.2982" cy="-31.3297" r="41.0526" gradientTransform="matrix(0.5591 -0.8291 -0.8291 -0.5591 138.923 -150.1679)" gradientUnits="userSpaceOnUse">
	<stop  offset="0" style="stop-color:#1F0D2B"/>
	<stop  offset="1" style="stop-color:#12001A"/>
</radialGradient>
<path class="st1" d="M79.1,67.9C66.4,86.7,40.9,91.7,22.1,79s-23.7-38.2-11-56.9C23.7,3.3,49.2-1.7,68,11S91.8,49.2,79.1,67.9z"/>
<linearGradient id="SVGID_3_" gradientUnits="userSpaceOnUse" x1="-214.2567" y1="-63.0312" x2="-214.2567" y2="0.5105" gradientTransform="matrix(0.5591 -0.8291 -0.8291 -0.5591 138.923 -150.1679)">
	<stop  offset="0" style="stop-color:#AA68FF"/>
	<stop  offset="0.9957" style="stop-color:#E96FFE"/>
</linearGradient>
<path class="st2" d="M18.7,27.2c-9.8,14.6-6,34.3,8.6,44.1s34.3,6,44.1-8.6s6-34.3-8.6-44.1C48.3,8.8,28.5,12.7,18.7,27.2z
	 M69.8,61.7c-9.2,13.6-27.7,17.2-41.4,8s-17.2-27.7-8-41.4c9.2-13.6,27.7-17.2,41.4-8S79,48,69.8,61.7z"/>
<radialGradient id="SVGID_4_" cx="-214.2702" cy="-31.3297" r="22.5023" gradientTransform="matrix(0.5591 -0.8291 -0.8291 -0.5591 138.923 -150.1679)" gradientUnits="userSpaceOnUse">
	<stop  offset="0" style="stop-color:#4D2780"/>
	<stop  offset="1" style="stop-color:#12001A"/>
</radialGradient>
<circle class="st3" cx="45.1" cy="45" r="22.5"/>
<g>
	
		<linearGradient id="SVGID_5_" gradientUnits="userSpaceOnUse" x1="24.8408" y1="16.6" x2="28.3115" y2="16.6" gradientTransform="matrix(1 0 0 -1 0 92)">
		<stop  offset="0" style="stop-color:#793BC9"/>
		<stop  offset="0.9957" style="stop-color:#E96FFE"/>
	</linearGradient>
	<polygon class="st4" points="28.3,74.8 27.4,75.7 27.9,76.9 26.7,76.3 25.7,77.1 26,75.8 24.8,75.2 26.1,75 26.4,73.7 27,74.9 	"/>
	
		<linearGradient id="SVGID_6_" gradientUnits="userSpaceOnUse" x1="32.9642" y1="12.7" x2="36.3853" y2="12.7" gradientTransform="matrix(1 0 0 -1 0 92)">
		<stop  offset="0" style="stop-color:#793BC9"/>
		<stop  offset="0.9957" style="stop-color:#E96FFE"/>
	</linearGradient>
	<polygon class="st5" points="33,79.3 34.2,78.9 34.3,77.5 35.1,78.6 36.4,78.3 35.6,79.4 36.3,80.5 35.1,80.1 34.2,81.1 34.2,79.8 
			"/>
	
		<linearGradient id="SVGID_7_" gradientUnits="userSpaceOnUse" x1="42.0933" y1="11.3" x2="45.6482" y2="11.3" gradientTransform="matrix(1 0 0 -1 0 92)">
		<stop  offset="0" style="stop-color:#793BC9"/>
		<stop  offset="0.9957" style="stop-color:#E96FFE"/>
	</linearGradient>
	<polygon class="st6" points="42.1,81 43.2,80.3 42.9,79 44,79.8 45.1,79.1 44.7,80.4 45.6,81.3 44.3,81.2 43.8,82.4 43.4,81.2 	"/>
	
		<linearGradient id="SVGID_8_" gradientUnits="userSpaceOnUse" x1="51.5036" y1="12.1" x2="55.0409" y2="12.1" gradientTransform="matrix(1 0 0 -1 0 92)">
		<stop  offset="0" style="stop-color:#793BC9"/>
		<stop  offset="0.9957" style="stop-color:#E96FFE"/>
	</linearGradient>
	<polygon class="st7" points="51.5,80.6 52.4,79.6 51.9,78.4 53.1,79 54.1,78.2 53.9,79.5 55,80.1 53.7,80.4 53.4,81.6 52.8,80.5 	
		"/>
	
		<linearGradient id="SVGID_9_" gradientUnits="userSpaceOnUse" x1="59.915" y1="15.7" x2="63.4753" y2="15.7" gradientTransform="matrix(1 0 0 -1 0 92)">
		<stop  offset="0" style="stop-color:#793BC9"/>
		<stop  offset="0.9957" style="stop-color:#E96FFE"/>
	</linearGradient>
	<polygon class="st8" points="60.5,77.9 60.9,76.7 59.9,75.8 61.2,75.8 61.7,74.6 62.1,75.9 63.5,76 62.4,76.7 62.7,78 61.6,77.2 	
		"/>
</g>
<g>
	
		<linearGradient id="SVGID_10_" gradientUnits="userSpaceOnUse" x1="26" y1="77.55" x2="29.4622" y2="77.55" gradientTransform="matrix(1 0 0 -1 0 92)">
		<stop  offset="0" style="stop-color:#793BC9"/>
		<stop  offset="0.9957" style="stop-color:#E96FFE"/>
	</linearGradient>
	<polygon class="st9" points="29.5,15.1 28.6,14.2 29.1,13 27.9,13.6 26.9,12.7 27.1,14 26,14.7 27.3,14.9 27.6,16.2 28.2,15 	"/>
	
		<linearGradient id="SVGID_11_" gradientUnits="userSpaceOnUse" x1="34.2" y1="81.3" x2="37.6" y2="81.3" gradientTransform="matrix(1 0 0 -1 0 92)">
		<stop  offset="0" style="stop-color:#793BC9"/>
		<stop  offset="0.9957" style="stop-color:#E96FFE"/>
	</linearGradient>
	<polygon class="st10" points="34.2,10.7 35.5,11.1 35.5,12.5 36.3,11.4 37.6,11.8 36.8,10.7 37.6,9.6 36.3,9.9 35.5,8.9 35.4,10.2 
			"/>
	
		<linearGradient id="SVGID_12_" gradientUnits="userSpaceOnUse" x1="43.3619" y1="82.5" x2="46.9208" y2="82.5" gradientTransform="matrix(1 0 0 -1 0 92)">
		<stop  offset="0" style="stop-color:#793BC9"/>
		<stop  offset="0.9957" style="stop-color:#E96FFE"/>
	</linearGradient>
	<polygon class="st11" points="43.4,9.1 44.5,9.9 44.1,11.2 45.2,10.4 46.3,11.1 45.9,9.8 46.9,9 45.6,9 45.1,7.8 44.7,9 	"/>
	
		<linearGradient id="SVGID_13_" gradientUnits="userSpaceOnUse" x1="52.7621" y1="81.55" x2="56.2906" y2="81.55" gradientTransform="matrix(1 0 0 -1 0 92)">
		<stop  offset="0" style="stop-color:#793BC9"/>
		<stop  offset="0.9957" style="stop-color:#E96FFE"/>
	</linearGradient>
	<polygon class="st12" points="52.8,9.8 53.7,10.7 53.1,11.9 54.3,11.3 55.3,12.2 55.1,10.9 56.3,10.3 55,10 54.7,8.7 54.1,9.9 	"/>
	
		<linearGradient id="SVGID_14_" gradientUnits="userSpaceOnUse" x1="61.0814" y1="77.8" x2="64.6438" y2="77.8" gradientTransform="matrix(1 0 0 -1 0 92)">
		<stop  offset="0" style="stop-color:#793BC9"/>
		<stop  offset="0.9957" style="stop-color:#E96FFE"/>
	</linearGradient>
	<polygon class="st13" points="61.7,12.6 62.1,13.8 61.1,14.7 62.4,14.7 62.9,15.9 63.3,14.7 64.6,14.6 63.6,13.8 63.9,12.5 
		62.8,13.3 	"/>
</g>
<path class="st14" d="M12.2,22.9C0,41,4.8,65.6,22.9,77.8c0.2,0.1,0.3,0.2,0.5,0.3L30.9,67c-0.2-0.1-0.3-0.2-0.5-0.3
	c-12-8.1-15.1-24.3-7.1-36.3c8.1-12,24.3-15.1,36.3-7.1c0.2,0.1,0.3,0.2,0.5,0.3l7.5-11.2c-0.2-0.1-0.3-0.2-0.5-0.3
	C49.1-0.1,24.5,4.7,12.2,22.9z"/>
<path class="st14" d="M26.4,32.4c-7,10.3-4.2,24.3,6.1,31.2c0.2,0.1,0.3,0.2,0.5,0.3l25.2-37.3c-0.2-0.1-0.3-0.2-0.5-0.3
	C47.3,19.4,33.4,22.1,26.4,32.4z"/>
<g>
	
		<linearGradient id="SVGID_15_" gradientUnits="userSpaceOnUse" x1="61.5428" y1="32.4908" x2="27.7095" y2="56.3241" gradientTransform="matrix(1 0 0 -1 0 92)">
		<stop  offset="0" style="stop-color:#AA68FF"/>
		<stop  offset="0.9957" style="stop-color:#E96FFE"/>
	</linearGradient>
	<polygon class="st15" points="44.3,54.1 44.3,38.9 29.5,45.4 	"/>
	
		<linearGradient id="SVGID_16_" gradientUnits="userSpaceOnUse" x1="66.3643" y1="39.3353" x2="32.531" y2="63.1686" gradientTransform="matrix(1 0 0 -1 0 92)">
		<stop  offset="0" style="stop-color:#AA68FF"/>
		<stop  offset="0.9957" style="stop-color:#E96FFE"/>
	</linearGradient>
	<polygon class="st16" points="44.3,37.8 44.3,20 29.9,44.1 	"/>
	
		<linearGradient id="SVGID_17_" gradientUnits="userSpaceOnUse" x1="70.5668" y1="45.3012" x2="36.7335" y2="69.1345" gradientTransform="matrix(1 0 0 -1 0 92)">
		<stop  offset="0" style="stop-color:#AA68FF"/>
		<stop  offset="0.9957" style="stop-color:#E96FFE"/>
	</linearGradient>
	<polygon class="st17" points="45.3,20 45.3,37.8 59.8,44.2 	"/>
	
		<linearGradient id="SVGID_18_" gradientUnits="userSpaceOnUse" x1="63.2047" y1="34.8501" x2="29.3714" y2="58.6834" gradientTransform="matrix(1 0 0 -1 0 92)">
		<stop  offset="0" style="stop-color:#AA68FF"/>
		<stop  offset="0.9957" style="stop-color:#E96FFE"/>
	</linearGradient>
	<polygon class="st18" points="45.3,38.9 45.3,54.1 60.1,45.4 	"/>
	
		<linearGradient id="SVGID_19_" gradientUnits="userSpaceOnUse" x1="54.0865" y1="21.9061" x2="20.2532" y2="45.7394" gradientTransform="matrix(1 0 0 -1 0 92)">
		<stop  offset="0" style="stop-color:#AA68FF"/>
		<stop  offset="0.9957" style="stop-color:#E96FFE"/>
	</linearGradient>
	<polygon class="st19" points="44.3,69.3 44.3,57.1 29.6,48.5 	"/>
	
		<linearGradient id="SVGID_20_" gradientUnits="userSpaceOnUse" x1="58.8803" y1="28.7112" x2="25.047" y2="52.5446" gradientTransform="matrix(1 0 0 -1 0 92)">
		<stop  offset="0" style="stop-color:#AA68FF"/>
		<stop  offset="0.9957" style="stop-color:#E96FFE"/>
	</linearGradient>
	<polygon class="st20" points="45.3,69.3 60,48.5 45.3,57.1 	"/>
</g>
</svg>
