<?xml version="1.0" encoding="utf-8"?>
<!-- Generator: Adobe Illustrator 21.0.0, SVG Export Plug-In . SVG Version: 6.00 Build 0)  -->
<svg version="1.1" id="Layer_1" xmlns="http://www.w3.org/2000/svg" xmlns:xlink="http://www.w3.org/1999/xlink" x="0px" y="0px"
	 viewBox="0 0 90 90" style="enable-background:new 0 0 90 90;" xml:space="preserve">
<style type="text/css">
	.st0{fill:url(#SVGID_1_);}
	.st1{fill:url(#SVGID_2_);}
	.st2{fill:url(#SVGID_3_);}
	.st3{fill:url(#SVGID_4_);}
	.st4{fill:url(#SVGID_5_);}
	.st5{fill:url(#SVGID_6_);}
	.st6{fill:url(#SVGID_7_);}
	.st7{fill:url(#SVGID_8_);}
	.st8{fill:url(#SVGID_9_);}
	.st9{fill:url(#SVGID_10_);}
	.st10{fill:url(#SVGID_11_);}
	.st11{fill:url(#SVGID_12_);}
	.st12{fill:url(#SVGID_13_);}
	.st13{fill:url(#SVGID_14_);}
	.st14{opacity:0.1;fill:#FFFFFF;enable-background:new    ;}
	.st15{fill:url(#SVGID_15_);}
	.st16{fill:url(#I_than_1_);}
	.st17{fill:url(#SVGID_16_);}
	.st18{fill:url(#SVGID_17_);}
	.st19{fill:url(#SVGID_18_);}
	.st20{fill:url(#SVGID_19_);}
	.st21{fill:url(#B_1_);}
	.st22{fill:url(#SVGID_20_);}
</style>
<g>
	
		<linearGradient id="SVGID_1_" gradientUnits="userSpaceOnUse" x1="-473.3782" y1="654.6777" x2="-473.3782" y2="566.2849" gradientTransform="matrix(0.5591 -0.8291 0.8291 0.5591 -196.4342 -688.7979)">
		<stop  offset="0" style="stop-color:#3C8C4C"/>
		<stop  offset="0.2121" style="stop-color:#33A149"/>
		<stop  offset="0.2374" style="stop-color:#309344"/>
		<stop  offset="0.286" style="stop-color:#2B7D3E"/>
		<stop  offset="0.3398" style="stop-color:#286E39"/>
		<stop  offset="0.4022" style="stop-color:#266536"/>
		<stop  offset="0.4935" style="stop-color:#256235"/>
		<stop  offset="0.4971" style="stop-color:#296839"/>
		<stop  offset="0.5121" style="stop-color:#357E47"/>
		<stop  offset="0.5286" style="stop-color:#3D8D51"/>
		<stop  offset="0.5478" style="stop-color:#429657"/>
		<stop  offset="0.5758" style="stop-color:#449959"/>
		<stop  offset="0.6082" style="stop-color:#40A459"/>
		<stop  offset="0.6618" style="stop-color:#3BAF5A"/>
		<stop  offset="0.7186" style="stop-color:#3AB35A"/>
		<stop  offset="0.9913" style="stop-color:#2D9668"/>
	</linearGradient>
	<path class="st0" d="M8.4,20.3C-5.2,40.5,0.1,68,20.3,81.7c20.3,13.6,47.8,8.3,61.4-12C95.4,49.5,90,22,69.8,8.3
		C49.5-5.3,22.1,0,8.4,20.3z M77.3,66.7c-12,17.8-36.1,22.5-53.9,10.5S0.9,41.1,12.9,23.3S49,0.8,66.8,12.8S89.3,48.9,77.3,66.7z"/>
	
		<radialGradient id="SVGID_2_" cx="-473.3782" cy="610.5226" r="41.0526" gradientTransform="matrix(0.5591 -0.8291 0.8291 0.5591 -196.4342 -688.7979)" gradientUnits="userSpaceOnUse">
		<stop  offset="0" style="stop-color:#0D2B1E"/>
		<stop  offset="1" style="stop-color:#001A0A"/>
	</radialGradient>
	<path class="st1" d="M79.1,67.9C66.4,86.7,40.9,91.7,22.1,79s-23.7-38.2-11-56.9C23.7,3.3,49.2-1.7,68,11S91.8,49.2,79.1,67.9z"/>
	
		<linearGradient id="SVGID_3_" gradientUnits="userSpaceOnUse" x1="-473.3368" y1="642.2241" x2="-473.3368" y2="578.6824" gradientTransform="matrix(0.5591 -0.8291 0.8291 0.5591 -196.4342 -688.7979)">
		<stop  offset="0" style="stop-color:#3BC968"/>
		<stop  offset="0.9957" style="stop-color:#6FFEE2"/>
	</linearGradient>
	<path class="st2" d="M18.7,27.2c-9.8,14.6-6,34.3,8.6,44.1s34.3,6,44.1-8.6s6-34.3-8.6-44.1C48.3,8.8,28.5,12.7,18.7,27.2z
		 M69.8,61.7c-9.2,13.6-27.7,17.2-41.4,8s-17.2-27.7-8-41.4c9.2-13.6,27.7-17.2,41.4-8S79,48,69.8,61.7z"/>
	
		<radialGradient id="SVGID_4_" cx="-473.3503" cy="610.5226" r="22.5023" gradientTransform="matrix(0.5591 -0.8291 0.8291 0.5591 -196.4342 -688.7979)" gradientUnits="userSpaceOnUse">
		<stop  offset="0" style="stop-color:#0D2B1E"/>
		<stop  offset="1" style="stop-color:#001A0A"/>
	</radialGradient>
	<circle class="st3" cx="45.1" cy="45" r="22.5"/>
	<g>
		
			<linearGradient id="SVGID_5_" gradientUnits="userSpaceOnUse" x1="24.8408" y1="483.4" x2="28.3115" y2="483.4" gradientTransform="matrix(1 0 0 1 0 -408)">
			<stop  offset="0" style="stop-color:#3BC968"/>
			<stop  offset="0.9957" style="stop-color:#6FFEE2"/>
		</linearGradient>
		<polygon class="st4" points="28.3,74.8 27.4,75.7 27.9,76.9 26.7,76.3 25.7,77.1 26,75.8 24.8,75.2 26.1,75 26.4,73.7 27,74.9 		
			"/>
		
			<linearGradient id="SVGID_6_" gradientUnits="userSpaceOnUse" x1="32.9642" y1="487.3" x2="36.3853" y2="487.3" gradientTransform="matrix(1 0 0 1 0 -408)">
			<stop  offset="0" style="stop-color:#3BC968"/>
			<stop  offset="0.9957" style="stop-color:#6FFEE2"/>
		</linearGradient>
		<polygon class="st5" points="33,79.3 34.2,78.9 34.3,77.5 35.1,78.6 36.4,78.3 35.6,79.4 36.3,80.5 35.1,80.1 34.2,81.1 
			34.2,79.8 		"/>
		
			<linearGradient id="SVGID_7_" gradientUnits="userSpaceOnUse" x1="42.0933" y1="488.7" x2="45.6482" y2="488.7" gradientTransform="matrix(1 0 0 1 0 -408)">
			<stop  offset="0" style="stop-color:#3BC968"/>
			<stop  offset="0.9957" style="stop-color:#6FFEE2"/>
		</linearGradient>
		<polygon class="st6" points="42.1,81 43.2,80.3 42.9,79 44,79.8 45.1,79.1 44.7,80.4 45.6,81.3 44.3,81.2 43.8,82.4 43.4,81.2 		
			"/>
		
			<linearGradient id="SVGID_8_" gradientUnits="userSpaceOnUse" x1="51.5036" y1="487.9" x2="55.0409" y2="487.9" gradientTransform="matrix(1 0 0 1 0 -408)">
			<stop  offset="0" style="stop-color:#3BC968"/>
			<stop  offset="0.9957" style="stop-color:#6FFEE2"/>
		</linearGradient>
		<polygon class="st7" points="51.5,80.6 52.4,79.6 51.9,78.4 53.1,79 54.1,78.2 53.9,79.5 55,80.1 53.7,80.4 53.4,81.6 52.8,80.5 
					"/>
		
			<linearGradient id="SVGID_9_" gradientUnits="userSpaceOnUse" x1="59.915" y1="484.3" x2="63.4753" y2="484.3" gradientTransform="matrix(1 0 0 1 0 -408)">
			<stop  offset="0" style="stop-color:#3BC968"/>
			<stop  offset="0.9957" style="stop-color:#6FFEE2"/>
		</linearGradient>
		<polygon class="st8" points="60.5,77.9 60.9,76.7 59.9,75.8 61.2,75.8 61.7,74.6 62.1,75.9 63.5,76 62.4,76.7 62.7,78 61.6,77.2 
					"/>
	</g>
	<g>
		
			<linearGradient id="SVGID_10_" gradientUnits="userSpaceOnUse" x1="26" y1="422.45" x2="29.4622" y2="422.45" gradientTransform="matrix(1 0 0 1 0 -408)">
			<stop  offset="0" style="stop-color:#3BC968"/>
			<stop  offset="0.9957" style="stop-color:#6FFEE2"/>
		</linearGradient>
		<polygon class="st9" points="29.5,15.1 28.6,14.2 29.1,13 27.9,13.6 26.9,12.7 27.1,14 26,14.7 27.3,14.9 27.6,16.2 28.2,15 		"/>
		
			<linearGradient id="SVGID_11_" gradientUnits="userSpaceOnUse" x1="34.2" y1="418.7" x2="37.6" y2="418.7" gradientTransform="matrix(1 0 0 1 0 -408)">
			<stop  offset="0" style="stop-color:#3BC968"/>
			<stop  offset="0.9957" style="stop-color:#6FFEE2"/>
		</linearGradient>
		<polygon class="st10" points="34.2,10.7 35.5,11.1 35.5,12.5 36.3,11.4 37.6,11.8 36.8,10.7 37.6,9.6 36.3,9.9 35.5,8.9 
			35.4,10.2 		"/>
		
			<linearGradient id="SVGID_12_" gradientUnits="userSpaceOnUse" x1="43.3619" y1="417.5" x2="46.9208" y2="417.5" gradientTransform="matrix(1 0 0 1 0 -408)">
			<stop  offset="0" style="stop-color:#3BC968"/>
			<stop  offset="0.9957" style="stop-color:#6FFEE2"/>
		</linearGradient>
		<polygon class="st11" points="43.4,9.1 44.5,9.9 44.1,11.2 45.2,10.4 46.3,11.1 45.9,9.8 46.9,9 45.6,9 45.1,7.8 44.7,9 		"/>
		
			<linearGradient id="SVGID_13_" gradientUnits="userSpaceOnUse" x1="52.7621" y1="418.45" x2="56.2906" y2="418.45" gradientTransform="matrix(1 0 0 1 0 -408)">
			<stop  offset="0" style="stop-color:#3BC968"/>
			<stop  offset="0.9957" style="stop-color:#6FFEE2"/>
		</linearGradient>
		<polygon class="st12" points="52.8,9.8 53.7,10.7 53.1,11.9 54.3,11.3 55.3,12.2 55.1,10.9 56.3,10.3 55,10 54.7,8.7 54.1,9.9 		
			"/>
		
			<linearGradient id="SVGID_14_" gradientUnits="userSpaceOnUse" x1="61.0814" y1="422.2" x2="64.6438" y2="422.2" gradientTransform="matrix(1 0 0 1 0 -408)">
			<stop  offset="0" style="stop-color:#3BC968"/>
			<stop  offset="0.9957" style="stop-color:#6FFEE2"/>
		</linearGradient>
		<polygon class="st13" points="61.7,12.6 62.1,13.8 61.1,14.7 62.4,14.7 62.9,15.9 63.3,14.7 64.6,14.6 63.6,13.8 63.9,12.5 
			62.8,13.3 		"/>
	</g>
	<path class="st14" d="M12.2,22.9C0,41,4.8,65.6,22.9,77.8c0.2,0.1,0.3,0.2,0.5,0.3L30.9,67c-0.2-0.1-0.3-0.2-0.5-0.3
		c-12-8.1-15.1-24.3-7.1-36.3c8.1-12,24.3-15.1,36.3-7.1c0.2,0.1,0.3,0.2,0.5,0.3l7.5-11.2c-0.2-0.1-0.3-0.2-0.5-0.3
		C49.1-0.1,24.5,4.7,12.2,22.9z"/>
	<path class="st14" d="M26.4,32.4c-7,10.3-4.2,24.3,6.1,31.2c0.2,0.1,0.3,0.2,0.5,0.3l25.2-37.3c-0.2-0.1-0.3-0.2-0.5-0.3
		C47.3,19.4,33.4,22.1,26.4,32.4z"/>
</g>
<g>
	<g id="I_cham">
		
			<linearGradient id="SVGID_15_" gradientUnits="userSpaceOnUse" x1="24.9183" y1="63.175" x2="75.9918" y2="69.7566" gradientTransform="matrix(1 0 0 -1 0 92)">
			<stop  offset="4.300003e-03" style="stop-color:#74FEFF"/>
			<stop  offset="1" style="stop-color:#50C93B"/>
		</linearGradient>
		<circle class="st15" cx="30.2" cy="28.1" r="2.8"/>
	</g>
	
		<linearGradient id="I_than_1_" gradientUnits="userSpaceOnUse" x1="27.5031" y1="43.1176" x2="78.5765" y2="49.6992" gradientTransform="matrix(1 0 0 -1 0 92)">
		<stop  offset="4.300003e-03" style="stop-color:#74FEFF"/>
		<stop  offset="1" style="stop-color:#50C93B"/>
	</linearGradient>
	<path id="I_than" class="st16" d="M35.9,57c-1.5,0-2.7-1.2-2.8-2.6V36.5c0-1.5-1.3-2.8-2.8-2.8s-2.8,1.3-2.8,2.8v17.6l0,0
		c0,0.2,0,0.3,0,0.5c0.2,3.5,2.5,6.4,5.7,7.5c0.9,0.3,1.9,0.4,2.8,0.4l0,0c0.5,0,1.2-0.1,1.7-0.2v-6.1C37.2,56.8,36.5,57,35.9,57z"
		/>
	
		<linearGradient id="SVGID_16_" gradientUnits="userSpaceOnUse" x1="27.0678" y1="46.4952" x2="78.1412" y2="53.0769" gradientTransform="matrix(1 0 0 -1 0 92)">
		<stop  offset="4.300003e-03" style="stop-color:#74FEFF"/>
		<stop  offset="1" style="stop-color:#50C93B"/>
	</linearGradient>
	<path class="st17" d="M55.3,36.8c-0.1,2.1-1.5,3.9-3.6,4.7l0,0l0,0c-0.5,0.2-1.2,0.3-1.7,0.3c-0.7,0-1.2-0.1-1.7-0.3l0,0l0,0
		c-0.3-0.1-0.5-0.2-0.9-0.3l0,0l0,0c-0.4-0.2-0.9-0.5-1.2-1c0-0.1-0.1-0.1-0.1-0.2v6.8c0,0,0.1,0,0.1,0.1c0.1,0,0.1,0,0.2,0.1
		c1.2,0.4,2.4,0.7,3.7,0.7c1.3,0,2.5-0.2,3.7-0.7c0.4-0.1,0.8-0.3,1.2-0.5c1.9-1,3.5-2.4,4.6-4.3c1-1.5,1.5-3.4,1.5-5.3H55.3z"/>
	<g id="r">
		
			<linearGradient id="SVGID_17_" gradientUnits="userSpaceOnUse" x1="27.2145" y1="45.3569" x2="78.2879" y2="51.9386" gradientTransform="matrix(1 0 0 -1 0 92)">
			<stop  offset="4.300003e-03" style="stop-color:#74FEFF"/>
			<stop  offset="1" style="stop-color:#50C93B"/>
		</linearGradient>
		<path class="st18" d="M49.8,29.9c-2.2,0-4.3,1.1-5.3,2.8c-0.5,0.8-0.9,1.6-1.1,2.6c-0.1,0.3-0.1,0.8-0.1,1.1v8.9v13.1
			c0,0,0,0,0-0.1l0.1-0.1c0,0,0-0.1,0.1-0.1c0-0.1,0.1-0.1,0.1-0.2c0-0.1,0.1-0.1,0.1-0.2v-0.1c0-0.1,0-0.1,0.1-0.2l0,0v-0.1v-0.1
			V57c0.3-0.9,0.4-1.9,0.4-2.8v-8.1v-9.7l0,0c0-0.1,0-0.2,0-0.3l0,0l0,0c0.1-1.3,0.7-2.5,1.5-3.4c0.3-0.3,0.8-0.7,1.2-1l0,0l0,0
			c0.2-0.1,0.5-0.2,0.9-0.3l0,0l0,0c0.5-0.2,1.2-0.3,1.7-0.3c0.7,0,1.2,0.1,1.7,0.3l0,0c1.7,0.7,3.1,2.2,3.5,3.9h1.2
			C55.8,32.2,53.1,29.9,49.8,29.9z"/>
		
			<linearGradient id="SVGID_18_" gradientUnits="userSpaceOnUse" x1="27.2085" y1="45.4037" x2="78.2819" y2="51.9853" gradientTransform="matrix(1 0 0 -1 0 92)">
			<stop  offset="4.300003e-03" style="stop-color:#74FEFF"/>
			<stop  offset="1" style="stop-color:#50C93B"/>
		</linearGradient>
		<path class="st19" d="M49.8,27.6c-2,0-3.8,0.7-5.3,1.9c-0.3,0.2-0.5,0.4-0.9,0.8c-1.4,1.4-2.3,3.2-2.5,5.1c0,0.3-0.1,0.8-0.1,1.1
			v6.7V61l0,0l0.1-0.1l0.1-0.1c0,0,0.1,0,0.1-0.1l0.1-0.1l0.1-0.1l0.1-0.1c0.1,0,0.1-0.1,0.2-0.2c0,0,0,0,0.1-0.1l0.1-0.1V44.4v-8.3
			l0,0c0-0.3,0-0.5,0.1-0.9c0.2-1.7,1.1-3.3,2.2-4.4c1.4-1.3,3.3-2.2,5.3-2.2c3.8,0,7.1,2.8,7.6,6.5h1.2c-0.2-2-1.1-3.7-2.5-5.1
			C54.4,28.5,52.2,27.6,49.8,27.6z"/>
		
			<linearGradient id="SVGID_19_" gradientUnits="userSpaceOnUse" x1="27.1302" y1="46.0106" x2="78.2037" y2="52.5922" gradientTransform="matrix(1 0 0 -1 0 92)">
			<stop  offset="4.300003e-03" style="stop-color:#74FEFF"/>
			<stop  offset="1" style="stop-color:#50C93B"/>
		</linearGradient>
		<path class="st20" d="M53.5,26c-1.2-0.4-2.4-0.7-3.7-0.7s-2.5,0.2-3.7,0.7c-0.1,0-0.1,0-0.2,0.1c-0.5,0.2-1.1,0.4-1.5,0.7
			c-3.2,1.7-5.5,5.1-5.7,8.9c0,0.2,0,0.4,0,0.8l0,0v25.8h0.1h0.1c0,0,0,0,0.1,0h0.1c0.1,0,0.1,0,0.2-0.1c0,0,0,0,0.1,0
			c0,0,0,0,0.1,0s0.1-0.1,0.2-0.1c0.1,0,0.1-0.1,0.2-0.1l0,0V41.2v-5l0,0c0-0.3,0-0.5,0.1-0.9c0.3-3.1,2.1-5.7,4.6-7.3
			c1.5-1,3.4-1.5,5.3-1.5c5.1,0,9.4,3.8,9.9,8.8h1.1C60.4,31,57.6,27.4,53.5,26z"/>
	</g>
	
		<linearGradient id="B_1_" gradientUnits="userSpaceOnUse" x1="28.2826" y1="37.0681" x2="79.3561" y2="43.6497" gradientTransform="matrix(1 0 0 -1 0 92)">
		<stop  offset="4.300003e-03" style="stop-color:#74FEFF"/>
		<stop  offset="1" style="stop-color:#50C93B"/>
	</linearGradient>
	<path id="B" class="st21" d="M59.3,42.1c-0.7-0.3-1.3-0.7-2-1c-1.1-0.4-2.3-0.7-3.6-0.7v5.7c0.3,0,0.7,0,1,0.1
		c0.2,0,0.4,0.1,0.8,0.2l0,0l0,0c2.2,0.8,3.6,2.8,3.6,5.1s-1.4,4.4-3.6,5.1l0,0l0,0C55,56.9,54.4,57,53.9,57l0,0h-8.3
		c-0.3,1.2-0.9,2.3-1.7,3.3v0.1l0,0c-0.2,0.3-0.4,0.5-0.7,0.8c0,0,0,0-0.1,0.1l0,0l0,0c-0.1,0.1-0.1,0.1-0.2,0.2l-0.1,0.1l0,0l0,0
		l-0.1,0.1c-0.1,0-0.1,0.1-0.1,0.1l0,0l0,0c0,0-0.1,0-0.1,0.1l-0.1,0.1l0,0l0,0l-0.1,0.1c-0.1,0-0.1,0.1-0.2,0.1l0,0l0,0
		c0,0,0,0-0.1,0.1c-0.1,0.1-0.2,0.1-0.3,0.2l0,0c0,0-0.1,0-0.1,0.1H54l0,0c1.2,0,2.4-0.2,3.6-0.7c4.3-1.5,7.4-5.7,7.4-10.5
		C64.8,47.6,62.6,44.1,59.3,42.1z"/>
</g>
<g>
	<linearGradient id="SVGID_20_" gradientUnits="userSpaceOnUse" x1="-17.6794" y1="36.1367" x2="61.9168" y2="36.1367">
		<stop  offset="0" style="stop-color:#FFB3FF"/>
		<stop  offset="0.2768" style="stop-color:#FED4AB"/>
		<stop  offset="0.6011" style="stop-color:#B2FEAB"/>
		<stop  offset="0.9957" style="stop-color:#FFFE51"/>
	</linearGradient>
	<circle class="st22" cx="49.9" cy="36.1" r="1.6"/>
</g>
</svg>
