<?xml version="1.0" encoding="utf-8"?>
<!-- Generator: Adobe Illustrator 21.0.0, SVG Export Plug-In . SVG Version: 6.00 Build 0)  -->
<svg version="1.1" id="Layer_1" xmlns="http://www.w3.org/2000/svg" xmlns:xlink="http://www.w3.org/1999/xlink" x="0px" y="0px"
	 viewBox="0 0 90 90" style="enable-background:new 0 0 90 90;" xml:space="preserve">
<style type="text/css">
	.st0{fill:url(#SVGID_1_);}
	.st1{fill:url(#SVGID_2_);}
	.st2{display:none;fill:url(#SVGID_3_);}
	.st3{fill:url(#SVGID_4_);}
	.st4{fill:url(#SVGID_5_);}
	.st5{fill:url(#SVGID_6_);}
	.st6{fill:url(#SVGID_7_);}
	.st7{fill:url(#SVGID_8_);}
	.st8{fill:url(#SVGID_9_);}
	.st9{fill:url(#SVGID_10_);}
	.st10{fill:url(#SVGID_11_);}
	.st11{fill:url(#SVGID_12_);}
	.st12{fill:url(#SVGID_13_);}
	.st13{fill:url(#SVGID_14_);}
	.st14{fill:url(#SVGID_15_);}
	.st15{opacity:0.1;fill:#FFFFFF;}
	.st16{fill:url(#SVGID_16_);}
	.st17{fill:url(#SVGID_17_);}
	.st18{fill:url(#SVGID_18_);}
	.st19{fill:url(#SVGID_19_);}
	.st20{fill:url(#SVGID_20_);}
	.st21{fill:url(#SVGID_21_);}
	.st22{fill:url(#SVGID_22_);}
	.st23{fill:url(#SVGID_23_);}
	.st24{fill:url(#SVGID_24_);}
	.st25{fill:url(#SVGID_25_);}
	.st26{fill:url(#SVGID_26_);}
	.st27{fill:url(#SVGID_27_);}
	.st28{fill:url(#SVGID_28_);}
	.st29{fill:url(#SVGID_29_);}
	.st30{fill:url(#SVGID_30_);}
	.st31{fill:url(#SVGID_31_);}
	.st32{fill:url(#SVGID_32_);}
</style>
<linearGradient id="SVGID_1_" gradientUnits="userSpaceOnUse" x1="44.7959" y1="88.3274" x2="44.7959" y2="-0.1137" gradientTransform="matrix(0.5591 -0.8291 0.8291 0.5591 -16.547 57.4749)">
	<stop  offset="0" style="stop-color:#27389E"/>
	<stop  offset="0.2121" style="stop-color:#3350CC"/>
	<stop  offset="0.2556" style="stop-color:#2F40BC"/>
	<stop  offset="0.3171" style="stop-color:#2A31AD"/>
	<stop  offset="0.3887" style="stop-color:#2828A4"/>
	<stop  offset="0.4935" style="stop-color:#2725A1"/>
	<stop  offset="0.5" style="stop-color:#2D2C9F"/>
	<stop  offset="0.5196" style="stop-color:#3A3B9C"/>
	<stop  offset="0.5425" style="stop-color:#42449A"/>
	<stop  offset="0.5758" style="stop-color:#444799"/>
	<stop  offset="0.6082" style="stop-color:#404CA4"/>
	<stop  offset="0.6618" style="stop-color:#3B50AF"/>
	<stop  offset="0.7186" style="stop-color:#3A52B3"/>
	<stop  offset="0.9913" style="stop-color:#2D4996"/>
</linearGradient>
<path class="st0" d="M8.4,20.3C-5.2,40.5,0.1,68,20.3,81.7C40.6,95.3,68.1,90,81.7,69.7C95.4,49.5,90,22,69.8,8.3
	C49.5-5.3,22.1,0,8.4,20.3z M77.3,66.7c-12,17.8-36.1,22.5-53.9,10.5C5.6,65.2,0.9,41.1,12.9,23.3C24.9,5.5,49,0.8,66.8,12.8
	C84.6,24.8,89.3,48.9,77.3,66.7z"/>
<radialGradient id="SVGID_2_" cx="44.7958" cy="44.1068" r="41.0306" gradientTransform="matrix(0.5591 -0.8291 0.8291 0.5591 -16.547 57.4749)" gradientUnits="userSpaceOnUse">
	<stop  offset="0" style="stop-color:#202E69"/>
	<stop  offset="1" style="stop-color:#00093B"/>
</radialGradient>
<path class="st1" d="M79.1,67.9C66.4,86.7,40.9,91.7,22.1,79C3.3,66.3-1.6,40.8,11.1,22.1C23.7,3.3,49.2-1.7,68,11
	C86.8,23.7,91.8,49.2,79.1,67.9z"/>
<linearGradient id="SVGID_3_" gradientUnits="userSpaceOnUse" x1="44.7958" y1="89.1048" x2="44.7958" y2="-0.8907" gradientTransform="matrix(0.5591 -0.8291 0.8291 0.5591 -16.547 57.4749)">
	<stop  offset="0" style="stop-color:#3067FF"/>
	<stop  offset="0.9957" style="stop-color:#6FDBFE"/>
</linearGradient>
<path class="st2" d="M7.8,19.8C-6.1,40.4-0.7,68.4,19.9,82.3c20.6,13.9,48.6,8.5,62.5-12.1c13.9-20.6,8.5-48.6-12.1-62.5
	C49.6-6.2,21.7-0.8,7.8,19.8z M81.7,69.7C68.1,90,40.6,95.3,20.3,81.7C0.1,68-5.2,40.5,8.4,20.3C22.1,0,49.5-5.3,69.8,8.3
	C90,22,95.4,49.5,81.7,69.7z"/>
<linearGradient id="SVGID_4_" gradientUnits="userSpaceOnUse" x1="44.7958" y1="75.8988" x2="44.7958" y2="12.3151" gradientTransform="matrix(0.5591 -0.8291 0.8291 0.5591 -16.547 57.4749)">
	<stop  offset="0" style="stop-color:#3067FF"/>
	<stop  offset="0.9957" style="stop-color:#6FDBFE"/>
</linearGradient>
<path class="st3" d="M18.7,27.2c-9.8,14.6-6,34.3,8.6,44.1c14.6,9.8,34.3,6,44.1-8.6s6-34.3-8.6-44.1C48.3,8.8,28.5,12.7,18.7,27.2z
	 M69.8,61.7c-9.2,13.6-27.7,17.2-41.4,8s-17.2-27.7-8-41.4c9.2-13.6,27.7-17.2,41.4-8S79,48,69.8,61.7z"/>
<radialGradient id="SVGID_5_" cx="44.7958" cy="44.1067" r="22.5102" gradientTransform="matrix(0.5591 -0.8291 0.8291 0.5591 -16.547 57.4749)" gradientUnits="userSpaceOnUse">
	<stop  offset="0" style="stop-color:#202E69"/>
	<stop  offset="1" style="stop-color:#00093B"/>
</radialGradient>
<circle class="st4" cx="45.1" cy="45" r="22.5"/>
<g>
	<linearGradient id="SVGID_6_" gradientUnits="userSpaceOnUse" x1="24.8408" y1="75.4121" x2="28.3115" y2="75.4121">
		<stop  offset="0" style="stop-color:#3067FF"/>
		<stop  offset="0.9957" style="stop-color:#6FDBFE"/>
	</linearGradient>
	<polygon class="st5" points="28.3,74.8 27.4,75.7 27.9,76.9 26.7,76.3 25.7,77.1 26,75.8 24.8,75.2 26.1,75 26.4,73.7 27,74.9 	"/>
	<linearGradient id="SVGID_7_" gradientUnits="userSpaceOnUse" x1="32.9642" y1="79.3214" x2="36.3853" y2="79.3214">
		<stop  offset="0" style="stop-color:#3067FF"/>
		<stop  offset="0.9957" style="stop-color:#6FDBFE"/>
	</linearGradient>
	<polygon class="st6" points="33,79.3 34.2,78.9 34.3,77.5 35.1,78.6 36.4,78.3 35.6,79.4 36.3,80.5 35.1,80.1 34.2,81.1 34.2,79.8 
			"/>
	<linearGradient id="SVGID_8_" gradientUnits="userSpaceOnUse" x1="42.0933" y1="80.7054" x2="45.6482" y2="80.7054">
		<stop  offset="0" style="stop-color:#3067FF"/>
		<stop  offset="0.9957" style="stop-color:#6FDBFE"/>
	</linearGradient>
	<polygon class="st7" points="42.1,81 43.2,80.3 42.9,79 44,79.8 45.1,79.1 44.7,80.4 45.6,81.3 44.3,81.2 43.8,82.4 43.4,81.2 	"/>
	<linearGradient id="SVGID_9_" gradientUnits="userSpaceOnUse" x1="51.5036" y1="79.8998" x2="55.0409" y2="79.8998">
		<stop  offset="0" style="stop-color:#3067FF"/>
		<stop  offset="0.9957" style="stop-color:#6FDBFE"/>
	</linearGradient>
	<polygon class="st8" points="51.5,80.6 52.4,79.6 51.9,78.4 53.1,79 54.1,78.2 53.9,79.5 55,80.1 53.7,80.4 53.4,81.6 52.8,80.5 	
		"/>
	<linearGradient id="SVGID_10_" gradientUnits="userSpaceOnUse" x1="59.915" y1="76.3193" x2="63.4753" y2="76.3193">
		<stop  offset="0" style="stop-color:#3067FF"/>
		<stop  offset="0.9957" style="stop-color:#6FDBFE"/>
	</linearGradient>
	<polygon class="st9" points="60.5,77.9 60.9,76.7 59.9,75.8 61.2,75.8 61.7,74.6 62.1,75.9 63.5,76 62.4,76.7 62.7,78 61.6,77.2 	
		"/>
</g>
<g>
	<linearGradient id="SVGID_11_" gradientUnits="userSpaceOnUse" x1="26.001" y1="14.437" x2="29.4632" y2="14.437">
		<stop  offset="0" style="stop-color:#3067FF"/>
		<stop  offset="0.9957" style="stop-color:#6FDBFE"/>
	</linearGradient>
	<polygon class="st10" points="29.5,15.1 28.6,14.2 29.1,13 27.9,13.6 26.9,12.7 27.1,14 26,14.7 27.3,14.9 27.6,16.2 28.2,15 	"/>
	<linearGradient id="SVGID_12_" gradientUnits="userSpaceOnUse" x1="34.2013" y1="10.684" x2="37.6029" y2="10.684">
		<stop  offset="0" style="stop-color:#3067FF"/>
		<stop  offset="0.9957" style="stop-color:#6FDBFE"/>
	</linearGradient>
	<polygon class="st11" points="34.2,10.7 35.5,11.1 35.5,12.5 36.3,11.4 37.6,11.8 36.8,10.7 37.6,9.6 36.3,9.9 35.5,8.9 35.4,10.2 
			"/>
	<linearGradient id="SVGID_13_" gradientUnits="userSpaceOnUse" x1="43.3619" y1="9.4733" x2="46.9208" y2="9.4733">
		<stop  offset="0" style="stop-color:#3067FF"/>
		<stop  offset="0.9957" style="stop-color:#6FDBFE"/>
	</linearGradient>
	<polygon class="st12" points="43.4,9.1 44.5,9.9 44.1,11.2 45.2,10.4 46.3,11.1 45.9,9.8 46.9,9 45.6,9 45.1,7.8 44.7,9 	"/>
	<linearGradient id="SVGID_14_" gradientUnits="userSpaceOnUse" x1="52.7621" y1="10.4776" x2="56.2906" y2="10.4776">
		<stop  offset="0" style="stop-color:#3067FF"/>
		<stop  offset="0.9957" style="stop-color:#6FDBFE"/>
	</linearGradient>
	<polygon class="st13" points="52.8,9.8 53.7,10.7 53.1,11.9 54.3,11.3 55.3,12.2 55.1,10.9 56.3,10.3 55,10 54.7,8.7 54.1,9.9 	"/>
	<linearGradient id="SVGID_15_" gradientUnits="userSpaceOnUse" x1="61.0814" y1="14.2186" x2="64.6438" y2="14.2186">
		<stop  offset="0" style="stop-color:#3067FF"/>
		<stop  offset="0.9957" style="stop-color:#6FDBFE"/>
	</linearGradient>
	<polygon class="st14" points="61.7,12.6 62.1,13.8 61.1,14.7 62.4,14.7 62.9,15.9 63.3,14.7 64.6,14.6 63.6,13.8 63.9,12.5 
		62.8,13.3 	"/>
</g>
<path class="st15" d="M12.2,22.9C0,41,4.8,65.6,22.9,77.8c0.2,0.1,0.3,0.2,0.5,0.3L30.9,67c-0.2-0.1-0.3-0.2-0.5-0.3
	c-12-8.1-15.1-24.3-7.1-36.3c8.1-12,24.3-15.1,36.3-7.1c0.2,0.1,0.3,0.2,0.5,0.3l7.5-11.2c-0.2-0.1-0.3-0.2-0.5-0.3
	C49.1-0.1,24.5,4.7,12.2,22.9z"/>
<path class="st15" d="M26.4,32.4c-7,10.3-4.2,24.3,6.1,31.2c0.2,0.1,0.3,0.2,0.5,0.3l25.2-37.3c-0.2-0.1-0.3-0.2-0.5-0.3
	C47.3,19.4,33.4,22.1,26.4,32.4z"/>
<g>
	<g>
		<linearGradient id="SVGID_16_" gradientUnits="userSpaceOnUse" x1="104.1892" y1="75.0199" x2="23.321" y2="23.7041">
			<stop  offset="0" style="stop-color:#30B3FF"/>
			<stop  offset="0.9957" style="stop-color:#6FFEF7"/>
		</linearGradient>
		<circle class="st16" cx="30.8" cy="28.5" r="2.8"/>
	</g>
	<linearGradient id="SVGID_17_" gradientUnits="userSpaceOnUse" x1="106.0619" y1="72.0687" x2="25.1937" y2="20.7529">
		<stop  offset="0" style="stop-color:#30B3FF"/>
		<stop  offset="0.9957" style="stop-color:#6FFEF7"/>
	</linearGradient>
	<path class="st17" d="M50,30.1c-2.2,0-4.1,1.1-5.3,2.8c-0.5,0.7-0.9,1.6-1,2.5c-0.1,0.4-0.1,0.7-0.1,1.1v8.7
		c0.4,0.3,0.7,0.5,1.1,0.7v-9.5h0c0-0.1,0-0.2,0-0.3v0v0c0.1-1.3,0.6-2.4,1.5-3.3c0.4-0.4,0.8-0.7,1.2-0.9l0,0l0,0
		c0.3-0.1,0.5-0.3,0.8-0.4h0h0c0.6-0.2,1.1-0.3,1.7-0.3s1.2,0.1,1.8,0.3h0c1.7,0.6,3,2.1,3.4,3.8h1.2C55.8,32.4,53.2,30.1,50,30.1z
		 M53.6,26.3c-1.1-0.4-2.4-0.6-3.6-0.6c-1.3,0-2.5,0.2-3.6,0.6c-0.1,0-0.1,0-0.2,0.1c-0.5,0.2-1,0.4-1.5,0.7c-3.1,1.7-5.3,5-5.5,8.8
		c0,0.2,0,0.5,0,0.7l0,0c0,0.2,0,0.5,0,0.7c0.1,1.4,0.5,2.8,1,4v-5l0,0c0-0.3,0-0.6,0.1-0.8c0.3-3,2-5.6,4.4-7.1
		c1.5-1,3.3-1.5,5.3-1.5c5,0,9.2,3.8,9.7,8.7h1.1C60.4,31.2,57.5,27.7,53.6,26.3z M56.1,30.4c-1.6-1.6-3.8-2.5-6.1-2.5
		c-1.9,0-3.8,0.6-5.3,1.8c-0.3,0.2-0.6,0.5-0.8,0.7c-1.4,1.4-2.2,3.1-2.5,5c0,0.4-0.1,0.7-0.1,1.1V43c0.3,0.4,0.7,0.9,1.1,1.3v-8.1
		h0c0-0.3,0-0.6,0.1-0.8c0.2-1.7,1-3.2,2.2-4.3C46.1,29.8,48,29,50,29c3.8,0,6.9,2.8,7.5,6.4h1.1C58.4,33.5,57.5,31.8,56.1,30.4z
		 M55.3,36.9c-0.1,2.1-1.5,3.9-3.5,4.6l0,0l0,0c-0.6,0.2-1.2,0.3-1.8,0.3s-1.2-0.1-1.7-0.3h0h0c-0.3-0.1-0.5-0.2-0.8-0.4l0,0l0,0
		c-0.5-0.3-0.9-0.6-1.2-0.9c-0.1-0.1-0.1-0.1-0.2-0.2v6.6c0.1,0,0.1,0,0.2,0.1c0.1,0,0.1,0,0.2,0.1c1.1,0.4,2.3,0.6,3.6,0.6
		c1.3,0,2.5-0.2,3.6-0.6c0.4-0.1,0.8-0.3,1.2-0.5c1.9-0.9,3.4-2.4,4.5-4.1c0.9-1.5,1.5-3.3,1.5-5.2L55.3,36.9L55.3,36.9z"/>
	<linearGradient id="SVGID_18_" gradientUnits="userSpaceOnUse" x1="100.8772" y1="80.2392" x2="20.009" y2="28.9234">
		<stop  offset="0" style="stop-color:#30B3FF"/>
		<stop  offset="0.9957" style="stop-color:#6FFEF7"/>
	</linearGradient>
	<path class="st18" d="M59.3,42.1c-0.6-0.4-1.3-0.7-1.9-0.9c-1.1-0.4-2.3-0.6-3.5-0.6v5.6c0.3,0,0.6,0,0.9,0.1
		c0.2,0,0.5,0.1,0.7,0.2l0,0l0,0c2.1,0.7,3.5,2.7,3.5,5c0,2.2-1.4,4.2-3.5,5l0,0l0,0c-0.5,0.2-1.1,0.3-1.6,0.3v5.6
		c1.2,0,2.4-0.2,3.5-0.6c4.2-1.5,7.2-5.5,7.2-10.2C64.6,47.4,62.5,44,59.3,42.1z"/>
	<linearGradient id="SVGID_19_" gradientUnits="userSpaceOnUse" x1="93.4967" y1="91.8701" x2="12.6285" y2="40.5543">
		<stop  offset="0" style="stop-color:#30B3FF"/>
		<stop  offset="0.9957" style="stop-color:#6FFEF7"/>
	</linearGradient>
	<path class="st19" d="M33.6,53.7V54c0-0.1,0-0.1,0-0.2C33.6,53.8,33.6,53.7,33.6,53.7z"/>
	<linearGradient id="SVGID_20_" gradientUnits="userSpaceOnUse" x1="95.8954" y1="88.0901" x2="15.0272" y2="36.7743">
		<stop  offset="0" style="stop-color:#30B3FF"/>
		<stop  offset="0.9957" style="stop-color:#6FFEF7"/>
	</linearGradient>
	<path class="st20" d="M33.6,36.6v25.1c-3.1-1.1-5.4-3.9-5.6-7.3V36.6c0-1.5,1.2-2.8,2.8-2.8C32.3,33.9,33.6,35.1,33.6,36.6z"/>
	<linearGradient id="SVGID_21_" gradientUnits="userSpaceOnUse" x1="91.7886" y1="94.562" x2="10.9204" y2="43.2462">
		<stop  offset="0" style="stop-color:#30B3FF"/>
		<stop  offset="0.9957" style="stop-color:#6FFEF7"/>
	</linearGradient>
	<path class="st21" d="M36.4,56.6c0.6,0,1.2-0.2,1.7-0.6v6c-0.5,0.1-1.1,0.2-1.7,0.2l0,0c-1,0-1.9-0.2-2.8-0.5
		c-3.1-1.1-5.4-3.9-5.6-7.3c0-0.2,0-0.4,0-0.5h5.6V54C33.7,55.5,34.9,56.6,36.4,56.6z"/>
	<linearGradient id="SVGID_22_" gradientUnits="userSpaceOnUse" x1="100.1766" y1="81.3433" x2="19.3084" y2="30.0275">
		<stop  offset="0" style="stop-color:#30B3FF"/>
		<stop  offset="0.9957" style="stop-color:#6FFEF7"/>
	</linearGradient>
	<path class="st22" d="M44.7,27v1.2c-2.4,1.6-4.1,4.1-4.4,7.1c0,0.3-0.1,0.6-0.1,0.8l0,0v25h0c-0.1,0-0.1,0.1-0.2,0.1
		c-0.1,0-0.1,0.1-0.2,0.1c0,0,0,0-0.1,0c0,0,0,0-0.1,0c-0.1,0-0.1,0.1-0.2,0.1c0,0-0.1,0-0.1,0c0,0,0,0-0.1,0c0,0-0.1,0-0.1,0
		c0,0-0.1,0-0.1,0V36.5c0-0.2,0-0.5,0-0.7C39.4,32,41.6,28.8,44.7,27z"/>
	<linearGradient id="SVGID_23_" gradientUnits="userSpaceOnUse" x1="100.1676" y1="81.3576" x2="19.2994" y2="30.0418">
		<stop  offset="0" style="stop-color:#30B3FF"/>
		<stop  offset="0.9957" style="stop-color:#6FFEF7"/>
	</linearGradient>
	<path class="st23" d="M44.7,29.6v1.5c-1.1,1.1-1.9,2.6-2.2,4.3c0,0.3-0.1,0.6-0.1,0.8h0v23.4c0,0-0.1,0.1-0.1,0.1c0,0,0,0-0.1,0.1
		c-0.1,0.1-0.1,0.1-0.2,0.2c0,0-0.1,0.1-0.1,0.1c0,0-0.1,0.1-0.1,0.1c-0.1,0-0.1,0.1-0.1,0.1c0,0-0.1,0.1-0.1,0.1
		c0,0-0.1,0.1-0.1,0.1c0,0-0.1,0.1-0.1,0.1c0,0,0,0-0.1,0V36.5c0-0.4,0-0.7,0.1-1.1c0.2-1.9,1.1-3.6,2.5-5
		C44.2,30.1,44.4,29.9,44.7,29.6z"/>
	<linearGradient id="SVGID_24_" gradientUnits="userSpaceOnUse" x1="100.3186" y1="81.1196" x2="19.4504" y2="29.8038">
		<stop  offset="0" style="stop-color:#30B3FF"/>
		<stop  offset="0.9957" style="stop-color:#6FFEF7"/>
	</linearGradient>
	<path class="st24" d="M43.7,35.4c0.2-0.9,0.5-1.8,1-2.5v21c0,1-0.2,1.9-0.5,2.8c0,0.1,0,0.1-0.1,0.1c0,0,0,0.1-0.1,0.1
		c0,0,0,0.1-0.1,0.1c0,0,0,0,0,0c0,0.1,0,0.1-0.1,0.2c0,0,0,0.1,0,0.1c0,0.1-0.1,0.1-0.1,0.2c0,0.1-0.1,0.1-0.1,0.2
		c0,0.1-0.1,0.1-0.1,0.1c0,0.1-0.1,0.1-0.1,0.1c0,0,0,0.1,0,0.1V36.5C43.6,36.1,43.6,35.8,43.7,35.4z"/>
	<linearGradient id="SVGID_25_" gradientUnits="userSpaceOnUse" x1="92.008" y1="94.2162" x2="11.1398" y2="42.9004">
		<stop  offset="0" style="stop-color:#30B3FF"/>
		<stop  offset="0.9957" style="stop-color:#6FFEF7"/>
	</linearGradient>
	<path class="st25" d="M36.4,56.7H38v5.4c-0.5,0.1-1.1,0.2-1.7,0.2l0,0V56.7z"/>
	<linearGradient id="SVGID_26_" gradientUnits="userSpaceOnUse" x1="92.8318" y1="92.918" x2="11.9636" y2="41.6022">
		<stop  offset="0" style="stop-color:#30B3FF"/>
		<stop  offset="0.9957" style="stop-color:#6FFEF7"/>
	</linearGradient>
	<path class="st26" d="M40.2,56.7v4.6h0c-0.1,0-0.1,0.1-0.2,0.1c-0.1,0-0.1,0.1-0.2,0.1c0,0,0,0-0.1,0c0,0,0,0-0.1,0
		c-0.1,0-0.1,0.1-0.2,0.1c0,0-0.1,0-0.1,0c0,0,0,0-0.1,0c0,0-0.1,0-0.1,0c0,0-0.1,0-0.1,0v-5.1L40.2,56.7L40.2,56.7z"/>
	<linearGradient id="SVGID_27_" gradientUnits="userSpaceOnUse" x1="93.7314" y1="91.5002" x2="12.8632" y2="40.1844">
		<stop  offset="0" style="stop-color:#30B3FF"/>
		<stop  offset="0.9957" style="stop-color:#6FFEF7"/>
	</linearGradient>
	<path class="st27" d="M41.4,56.7h1.1v2.9c0,0-0.1,0.1-0.1,0.1c0,0,0,0-0.1,0.1c-0.1,0.1-0.1,0.1-0.2,0.2c0,0-0.1,0.1-0.1,0.1
		c0,0-0.1,0.1-0.1,0.1c-0.1,0-0.1,0.1-0.1,0.1c0,0-0.1,0.1-0.1,0.1c0,0-0.1,0.1-0.1,0.1c0,0-0.1,0.1-0.1,0.1c0,0,0,0-0.1,0
		L41.4,56.7L41.4,56.7L41.4,56.7z"/>
	<linearGradient id="SVGID_28_" gradientUnits="userSpaceOnUse" x1="94.8695" y1="89.7067" x2="14.0013" y2="38.3909">
		<stop  offset="0" style="stop-color:#30B3FF"/>
		<stop  offset="0.9957" style="stop-color:#6FFEF7"/>
	</linearGradient>
	<path class="st28" d="M44.3,56.7c0,0.1,0,0.1-0.1,0.1c0,0,0,0.1-0.1,0.1c0,0,0,0.1-0.1,0.1c0,0,0,0,0,0c0,0.1,0,0.1-0.1,0.2
		c0,0,0,0.1,0,0.1c0,0.1-0.1,0.1-0.1,0.2c0,0.1-0.1,0.1-0.1,0.2c0,0.1-0.1,0.1-0.1,0.1c0,0.1-0.1,0.1-0.1,0.1c0,0,0,0.1,0,0.1v-1.4
		L44.3,56.7L44.3,56.7L44.3,56.7z"/>
	<linearGradient id="SVGID_29_" gradientUnits="userSpaceOnUse" x1="95.0365" y1="89.4436" x2="14.1683" y2="38.1278">
		<stop  offset="0" style="stop-color:#30B3FF"/>
		<stop  offset="0.9957" style="stop-color:#6FFEF7"/>
	</linearGradient>
	<path class="st29" d="M53.9,56.7v5.6H41.6c0,0,0.1,0,0.1-0.1c0,0,0,0,0,0c0.1-0.1,0.2-0.1,0.3-0.2c0,0,0.1,0,0.1-0.1l0,0l0,0
		c0.1,0,0.1-0.1,0.2-0.1c0,0,0.1-0.1,0.1-0.1l0,0l0,0c0,0,0.1-0.1,0.1-0.1c0,0,0.1,0,0.1-0.1l0,0l0,0c0,0,0.1-0.1,0.1-0.1
		c0,0,0.1-0.1,0.1-0.1l0,0l0,0c0,0,0.1-0.1,0.1-0.1c0.1-0.1,0.1-0.1,0.2-0.2l0,0l0,0c0,0,0,0,0.1-0.1c0.2-0.2,0.5-0.5,0.7-0.8l0,0
		l0-0.1c0.8-1,1.3-2.1,1.7-3.3L53.9,56.7L53.9,56.7z"/>
	<g>
		<linearGradient id="SVGID_30_" gradientUnits="userSpaceOnUse" x1="108.5419" y1="68.1605" x2="27.6737" y2="16.8447">
			<stop  offset="0" style="stop-color:#30B3FF"/>
			<stop  offset="0.9957" style="stop-color:#6FFEF7"/>
		</linearGradient>
		<path class="st30" d="M57.5,35.4h-1.1c0,0,0,0,0,0L57.5,35.4C57.5,35.4,57.5,35.4,57.5,35.4z"/>
		<linearGradient id="SVGID_31_" gradientUnits="userSpaceOnUse" x1="109.1905" y1="67.1384" x2="28.3223" y2="15.8226">
			<stop  offset="0" style="stop-color:#30B3FF"/>
			<stop  offset="0.9957" style="stop-color:#6FFEF7"/>
		</linearGradient>
		<path class="st31" d="M59.7,35.4h-1.1c0,0,0,0,0,0L59.7,35.4C59.7,35.4,59.7,35.4,59.7,35.4z"/>
	</g>
	<g>
		<linearGradient id="SVGID_32_" gradientUnits="userSpaceOnUse" x1="106.0597" y1="72.0722" x2="25.1915" y2="20.7564">
			<stop  offset="0" style="stop-color:#30B3FF"/>
			<stop  offset="0.9957" style="stop-color:#6FFEF7"/>
		</linearGradient>
		<circle class="st32" cx="50" cy="36.5" r="1.5"/>
	</g>
</g>
</svg>
