<?xml version="1.0" encoding="utf-8"?>
<!-- Generator: Adobe Illustrator 21.0.0, SVG Export Plug-In . SVG Version: 6.00 Build 0)  -->
<svg version="1.1" id="Layer_1" xmlns="http://www.w3.org/2000/svg" xmlns:xlink="http://www.w3.org/1999/xlink" x="0px" y="0px"
	 viewBox="0 0 110 114" style="enable-background:new 0 0 110 114;" xml:space="preserve">
<style type="text/css">
	.st0{fill:none;stroke:url(#SVGID_1_);stroke-miterlimit:10;}
	.st1{fill:url(#SVGID_2_);}
	.st2{fill:none;stroke:url(#SVGID_3_);stroke-miterlimit:10;}
	.st3{fill:url(#SVGID_4_);}
	.st4{fill:url(#SVGID_5_);}
	.st5{fill:url(#SVGID_6_);}
	.st6{fill:url(#SVGID_7_);}
	.st7{fill:url(#SVGID_8_);}
	.st8{fill:url(#SVGID_9_);}
	.st9{fill:url(#SVGID_10_);}
	.st10{fill:url(#SVGID_11_);}
	.st11{fill:url(#SVGID_12_);}
	.st12{fill:url(#SVGID_13_);}
	.st13{fill:url(#SVGID_14_);}
	.st14{fill:url(#SVGID_15_);}
	.st15{fill:url(#SVGID_16_);}
	.st16{fill:url(#SVGID_17_);}
	.st17{fill:url(#SVGID_18_);}
	.st18{fill:url(#SVGID_19_);}
	.st19{fill:url(#SVGID_20_);}
	.st20{fill:url(#SVGID_21_);}
	.st21{fill:url(#SVGID_22_);}
	.st22{fill:url(#SVGID_23_);}
	.st23{opacity:5.000000e-02;fill:#FFFFFF;enable-background:new    ;}
	.st24{filter:url(#Adobe_OpacityMaskFilter);}
	.st25{fill:#FFFFFF;}
	.st26{opacity:0.1;mask:url(#SVGID_24_);}
	.st27{fill:url(#SVGID_25_);}
	.st28{fill:url(#SVGID_26_);}
	.st29{fill:url(#SVGID_27_);}
	.st30{fill:url(#SVGID_28_);}
	.st31{fill:url(#SVGID_29_);}
	.st32{fill:url(#SVGID_30_);}
	.st33{fill:url(#SVGID_31_);}
	.st34{fill:url(#SVGID_32_);}
	.st35{fill:url(#SVGID_33_);}
	.st36{fill:url(#SVGID_34_);}
	.st37{fill:url(#SVGID_35_);}
	.st38{fill:url(#SVGID_36_);}
	.st39{fill:url(#SVGID_37_);}
	.st40{fill:url(#SVGID_38_);}
	.st41{fill:url(#SVGID_39_);}
	.st42{fill:url(#SVGID_40_);}
</style>
<linearGradient id="SVGID_1_" gradientUnits="userSpaceOnUse" x1="54.1328" y1="113.795" x2="54.1328" y2="0.4228">
	<stop  offset="4.300003e-03" style="stop-color:#FE6FD8"/>
	<stop  offset="1" style="stop-color:#3067FF;stop-opacity:0"/>
</linearGradient>
<polygon class="st0" points="102.8,85.2 54.1,113.2 5.5,85.2 5.5,29.1 54.1,1 102.8,29.1 "/>
<g>
	<radialGradient id="SVGID_2_" cx="54.1328" cy="57.108" r="46.5613" gradientUnits="userSpaceOnUse">
		<stop  offset="0" style="stop-color:#371C5C"/>
		<stop  offset="1" style="stop-color:#12001A"/>
	</radialGradient>
	<path class="st1" d="M54.1,7.4L11,32.2V82l43.1,24.9L97.3,82V32.2L54.1,7.4z M54.1,7.4L11,32.2V82l43.1,24.9L97.3,82V32.2L54.1,7.4
		z M46.8,43.5l7.7-13.3l7.7,13.3l-7.7,13.3H39.1l-7.7-13.3H46.8z M54.4,84l-7.7-13.3l-15.3,0l7.7-13.3l15.3,0l7.7,13.3L54.4,84z
		 M63.8,68.4l-6.5-11.2l6.5-11.3l13,0l-6.5,11.3l6.5,11.2L63.8,68.4z"/>
	<linearGradient id="SVGID_3_" gradientUnits="userSpaceOnUse" x1="54.1328" y1="99.6896" x2="54.1328" y2="14.5285">
		<stop  offset="0" style="stop-color:#4E3075;stop-opacity:0"/>
		<stop  offset="0.9957" style="stop-color:#8C4399;stop-opacity:0.5"/>
	</linearGradient>
	<polygon class="st2" points="90.5,78.1 54.1,99.1 17.7,78.1 17.7,36.1 54.1,15.1 90.5,36.1 	"/>
	<g>
		
			<linearGradient id="SVGID_4_" gradientUnits="userSpaceOnUse" x1="-13.9749" y1="87.0225" x2="71.7573" y2="87.0225" gradientTransform="matrix(1 0 0 -1 0 116)">
			<stop  offset="0" style="stop-color:#FFB3FF"/>
			<stop  offset="0.2768" style="stop-color:#FED4AB"/>
			<stop  offset="0.6011" style="stop-color:#B2FEAB"/>
			<stop  offset="0.9957" style="stop-color:#FFFE51"/>
		</linearGradient>
		<polygon class="st3" points="42.1,28.9 44.1,28.3 44.2,26.1 45.5,27.9 47.5,27.3 46.3,29 47.4,30.8 45.4,30.1 44.1,31.8 
			44.1,29.7 		"/>
		
			<linearGradient id="SVGID_5_" gradientUnits="userSpaceOnUse" x1="47.9044" y1="206.4182" x2="133.6366" y2="206.4182" gradientTransform="matrix(0.8353 0.5498 0.5498 -0.8353 -123.6607 158.2597)">
			<stop  offset="0" style="stop-color:#FFB3FF"/>
			<stop  offset="0.2768" style="stop-color:#FED4AB"/>
			<stop  offset="0.6011" style="stop-color:#B2FEAB"/>
			<stop  offset="0.9957" style="stop-color:#FFFE51"/>
		</linearGradient>
		<polygon class="st4" points="48.6,25.5 52.2,25.5 53.5,22.1 54.7,25.6 58.3,25.7 55.4,27.9 56.3,31.4 53.3,29.3 50.3,31.3 
			51.4,27.8 		"/>
		
			<linearGradient id="SVGID_6_" gradientUnits="userSpaceOnUse" x1="-13.9749" y1="86.95" x2="71.7573" y2="86.95" gradientTransform="matrix(1 0 0 -1 0 116)">
			<stop  offset="0" style="stop-color:#FFB3FF"/>
			<stop  offset="0.2768" style="stop-color:#FED4AB"/>
			<stop  offset="0.6011" style="stop-color:#B2FEAB"/>
			<stop  offset="0.9957" style="stop-color:#FFFE51"/>
		</linearGradient>
		<polygon class="st5" points="59.2,30.1 60.7,28.6 59.9,26.7 61.8,27.7 63.4,26.3 63,28.3 64.8,29.4 62.8,29.8 62.3,31.8 
			61.3,29.9 		"/>
	</g>
	<g>
		
			<linearGradient id="SVGID_7_" gradientUnits="userSpaceOnUse" x1="10.5652" y1="65.5344" x2="84.7774" y2="64.8092" gradientTransform="matrix(1 0 0 -1 0 116)">
			<stop  offset="0" style="stop-color:#AA68FF"/>
			<stop  offset="0.9957" style="stop-color:#E96FFE"/>
		</linearGradient>
		<path class="st6" d="M58.8,43.4c-2.5,0-4.9,1.3-6.2,3.3c-0.6,0.9-1,1.9-1.2,3c-0.1,0.4-0.1,0.9-0.1,1.3v10.3
			c0.4,0.3,0.9,0.6,1.4,0.9V50.9l0,0c0-0.1,0-0.3,0-0.4l0,0l0,0c0.1-1.5,0.7-2.9,1.7-3.9c0.4-0.4,0.9-0.8,1.5-1.1l0,0l0,0
			c0.3-0.1,0.7-0.3,0.9-0.4l0,0l0,0c0.7-0.2,1.3-0.4,2-0.4s1.4,0.1,2.1,0.4l0,0c2,0.7,3.6,2.5,4,4.5h1.4
			C65.6,46.1,62.6,43.4,58.8,43.4z M63.1,39c-1.3-0.5-2.8-0.7-4.3-0.7c-1.5,0-2.9,0.3-4.2,0.7c-0.1,0-0.1,0.1-0.2,0.1
			c-0.6,0.2-1.2,0.5-1.7,0.8c-3.7,2-6.2,5.9-6.5,10.3c0,0.3,0,0.6,0,0.9l0,0c0,0.3,0,0.6,0,0.9c0.1,1.7,0.5,3.3,1.2,4.6v-5.8l0,0
			c0-0.4,0-0.7,0.1-1c0.4-3.5,2.4-6.5,5.2-8.3c1.8-1.2,3.9-1.8,6.2-1.8c5.9,0,10.8,4.4,11.5,10.2h1.2C71,44.7,67.6,40.6,63.1,39z
			 M66,43.8c-1.9-1.9-4.5-3-7.2-3c-2.2,0-4.4,0.7-6.2,2.1c-0.4,0.3-0.7,0.6-1,0.9c-1.6,1.6-2.6,3.6-2.9,5.9
			c-0.1,0.4-0.1,0.9-0.1,1.3v7.7c0.4,0.5,0.9,1,1.3,1.5v-9.4l0,0c0-0.4,0.1-0.7,0.1-1c0.3-2,1.2-3.7,2.5-5c1.6-1.6,3.8-2.5,6.2-2.5
			c4.4,0,8.1,3.3,8.8,7.5h1.3C68.6,47.5,67.6,45.4,66,43.8z M65,51.4c-0.1,2.5-1.8,4.6-4.1,5.4l0,0l0,0c-0.7,0.2-1.4,0.4-2.1,0.4
			s-1.4-0.1-2-0.4l0,0l0,0c-0.3-0.1-0.7-0.3-0.9-0.4l0,0l0,0c-0.5-0.3-1-0.7-1.5-1.1c-0.1-0.1-0.1-0.1-0.2-0.2v7.8
			c0.1,0,0.1,0.1,0.2,0.1c0.1,0,0.1,0.1,0.2,0.1c1.3,0.4,2.8,0.7,4.2,0.7c1.5,0,2.9-0.3,4.3-0.7c0.5-0.1,0.9-0.4,1.4-0.6
			c2.2-1.1,4.1-2.8,5.3-4.9c1.1-1.8,1.7-3.8,1.8-6.1L65,51.4L65,51.4z"/>
		
			<linearGradient id="SVGID_8_" gradientUnits="userSpaceOnUse" x1="10.3941" y1="48.031" x2="84.6064" y2="47.3058" gradientTransform="matrix(1 0 0 -1 0 116)">
			<stop  offset="0" style="stop-color:#AA68FF"/>
			<stop  offset="0.9957" style="stop-color:#E96FFE"/>
		</linearGradient>
		<path class="st7" d="M69.7,57.5c-0.7-0.4-1.5-0.8-2.2-1.1c-1.3-0.4-2.7-0.7-4.1-0.7v6.5c0.4,0,0.7,0.1,1.1,0.1
			c0.3,0.1,0.6,0.1,0.8,0.2l0,0l0,0c2.5,0.9,4.1,3.2,4.1,5.9s-1.7,4.9-4.1,5.9l0,0l0,0c-0.6,0.2-1.2,0.4-1.9,0.4v6.5
			c1.5,0,2.8-0.3,4.1-0.7c4.9-1.7,8.5-6.5,8.5-12C76,63.8,73.5,59.7,69.7,57.5z"/>
		
			<linearGradient id="SVGID_9_" gradientUnits="userSpaceOnUse" x1="39.4966" y1="21.0543" x2="39.4966" y2="77.2216" gradientTransform="matrix(1 0 0 -1 0 116)">
			<stop  offset="0" style="stop-color:#AA68FF"/>
			<stop  offset="0.9957" style="stop-color:#E96FFE"/>
		</linearGradient>
		<path class="st8" d="M39.5,71.2v0.4c0-0.1,0-0.1,0-0.2C39.5,71.3,39.5,71.2,39.5,71.2z"/>
		
			<linearGradient id="SVGID_10_" gradientUnits="userSpaceOnUse" x1="-13.9749" y1="55.7805" x2="71.7573" y2="55.7805" gradientTransform="matrix(1 0 0 -1 0 116)">
			<stop  offset="0" style="stop-color:#AA68FF"/>
			<stop  offset="0.9957" style="stop-color:#E96FFE"/>
		</linearGradient>
		<path class="st9" d="M52.6,39.8v1.5c-2.8,1.8-4.8,4.9-5.2,8.3c0,0.3-0.1,0.7-0.1,1l0,0v29.4l0,0c-0.1,0-0.1,0.1-0.2,0.1
			c-0.1,0-0.1,0.1-0.2,0.1h-0.1h-0.1c-0.1,0-0.1,0.1-0.2,0.1c-0.1,0-0.1,0-0.1,0.1h-0.1h-0.1c-0.1,0-0.1,0-0.1,0.1V50.9
			c0-0.3,0-0.6,0-0.9C46.4,45.7,48.9,41.9,52.6,39.8z"/>
		
			<linearGradient id="SVGID_11_" gradientUnits="userSpaceOnUse" x1="-13.9749" y1="54.9102" x2="71.7573" y2="54.9102" gradientTransform="matrix(1 0 0 -1 0 116)">
			<stop  offset="0" style="stop-color:#AA68FF"/>
			<stop  offset="0.9957" style="stop-color:#E96FFE"/>
		</linearGradient>
		<path class="st10" d="M52.6,42.9v1.7c-1.4,1.3-2.2,3-2.5,5c-0.1,0.3-0.1,0.7-0.1,1l0,0v27.5c-0.1,0.1-0.1,0.1-0.1,0.1l-0.1,0.1
			c-0.1,0.1-0.1,0.1-0.2,0.2c-0.1,0.1-0.1,0.1-0.1,0.1c-0.1,0-0.1,0.1-0.1,0.1c-0.1,0.1-0.1,0.1-0.1,0.1L49.1,79
			c-0.1,0.1-0.1,0.1-0.1,0.1c-0.1,0-0.1,0.1-0.1,0.1c0,0,0,0-0.1,0.1V51c0-0.4,0-0.9,0.1-1.3c0.3-2.2,1.3-4.3,2.9-5.9
			C51.9,43.5,52.3,43.2,52.6,42.9z"/>
		
			<linearGradient id="SVGID_12_" gradientUnits="userSpaceOnUse" x1="-13.9749" y1="54.5114" x2="71.7573" y2="54.5114" gradientTransform="matrix(1 0 0 -1 0 116)">
			<stop  offset="0" style="stop-color:#AA68FF"/>
			<stop  offset="0.9957" style="stop-color:#E96FFE"/>
		</linearGradient>
		<path class="st11" d="M51.4,49.6c0.2-1.1,0.7-2.1,1.2-3v24.7c0,1.2-0.2,2.2-0.6,3.3c0,0.1-0.1,0.1-0.1,0.1c0,0.1-0.1,0.1-0.1,0.1
			s0,0.1-0.1,0.1l0,0c0,0.1-0.1,0.1-0.1,0.2c0,0,0,0.1-0.1,0.1c0,0.1-0.1,0.1-0.1,0.3c0,0.1-0.1,0.1-0.1,0.2c0,0.1-0.1,0.1-0.1,0.1
			c0,0.1-0.1,0.1-0.1,0.1s0,0.1-0.1,0.1V50.9C51.2,50.5,51.3,50.1,51.4,49.6z"/>
		<g>
			<g>
				
					<linearGradient id="SVGID_13_" gradientUnits="userSpaceOnUse" x1="-13.9749" y1="74.4907" x2="71.7573" y2="74.4907" gradientTransform="matrix(1 0 0 -1 0 116)">
					<stop  offset="0" style="stop-color:#AA68FF"/>
					<stop  offset="0.9957" style="stop-color:#E96FFE"/>
				</linearGradient>
				<circle class="st12" cx="36.2" cy="41.5" r="3.3"/>
			</g>
			
				<linearGradient id="SVGID_14_" gradientUnits="userSpaceOnUse" x1="-13.9749" y1="51.7919" x2="71.7573" y2="51.7919" gradientTransform="matrix(1 0 0 -1 0 116)">
				<stop  offset="0" style="stop-color:#AA68FF"/>
				<stop  offset="0.9957" style="stop-color:#E96FFE"/>
			</linearGradient>
			<path class="st13" d="M39.5,51.1v29.5C35.9,79.3,33.2,76,33,72V51.1c0-1.8,1.5-3.3,3.3-3.3S39.5,49.3,39.5,51.1z"/>
			
				<linearGradient id="SVGID_15_" gradientUnits="userSpaceOnUse" x1="-13.9749" y1="39.681" x2="71.7573" y2="39.681" gradientTransform="matrix(1 0 0 -1 0 116)">
				<stop  offset="0" style="stop-color:#AA68FF"/>
				<stop  offset="0.9957" style="stop-color:#E96FFE"/>
			</linearGradient>
			<path class="st14" d="M42.8,74.7c0.7,0,1.5-0.2,2-0.7v7c-0.7,0.1-1.3,0.2-2,0.2l0,0c-1.2,0-2.2-0.2-3.3-0.6
				C35.9,79.4,33.2,76,33,72c0-0.2,0-0.4,0-0.7h6.6v0.2C39.6,73.3,41,74.7,42.8,74.7z"/>
			
				<linearGradient id="SVGID_16_" gradientUnits="userSpaceOnUse" x1="-13.9749" y1="38.0493" x2="71.7573" y2="38.0493" gradientTransform="matrix(1 0 0 -1 0 116)">
				<stop  offset="0" style="stop-color:#AA68FF"/>
				<stop  offset="0.9957" style="stop-color:#E96FFE"/>
			</linearGradient>
			<path class="st15" d="M42.8,74.7h2V81c-0.7,0.1-1.3,0.2-2,0.2l0,0V74.7z"/>
		</g>
		
			<linearGradient id="SVGID_17_" gradientUnits="userSpaceOnUse" x1="-13.9749" y1="38.4119" x2="71.7573" y2="38.4119" gradientTransform="matrix(1 0 0 -1 0 116)">
			<stop  offset="0" style="stop-color:#AA68FF"/>
			<stop  offset="0.9957" style="stop-color:#E96FFE"/>
		</linearGradient>
		<path class="st16" d="M47.3,74.7v5.4l0,0c-0.1,0-0.1,0.1-0.2,0.1c-0.1,0-0.1,0.1-0.2,0.1h-0.1h-0.1c-0.1,0-0.1,0.1-0.2,0.1
			c-0.1,0-0.1,0-0.1,0.1h-0.1h-0.1c-0.1,0-0.1,0-0.1,0.1v-6L47.3,74.7L47.3,74.7z"/>
		
			<linearGradient id="SVGID_18_" gradientUnits="userSpaceOnUse" x1="-13.9749" y1="39.0283" x2="71.7573" y2="39.0283" gradientTransform="matrix(1 0 0 -1 0 116)">
			<stop  offset="0" style="stop-color:#AA68FF"/>
			<stop  offset="0.9957" style="stop-color:#E96FFE"/>
		</linearGradient>
		<path class="st17" d="M48.6,74.7h1.3v3.5c-0.1,0.1-0.1,0.1-0.1,0.1l-0.1,0.1c-0.1,0.1-0.1,0.1-0.2,0.2c-0.1,0.1-0.1,0.1-0.1,0.1
			c-0.1,0-0.1,0.1-0.1,0.1c-0.1,0.1-0.1,0.1-0.1,0.1L49,79c-0.1,0.1-0.1,0.1-0.1,0.1c-0.1,0-0.1,0.1-0.1,0.1c0,0,0,0-0.1,0.1V74.7
			L48.6,74.7L48.6,74.7z"/>
		
			<linearGradient id="SVGID_19_" gradientUnits="userSpaceOnUse" x1="-13.9749" y1="40.515" x2="71.7573" y2="40.515" gradientTransform="matrix(1 0 0 -1 0 116)">
			<stop  offset="0" style="stop-color:#AA68FF"/>
			<stop  offset="0.9957" style="stop-color:#E96FFE"/>
		</linearGradient>
		<path class="st18" d="M52,74.7c0,0.1-0.1,0.1-0.1,0.1c0,0.1-0.1,0.1-0.1,0.1s0,0.1-0.1,0.1l0,0c0,0.1-0.1,0.1-0.1,0.2
			c0,0,0,0.1-0.1,0.1c0,0.1-0.1,0.1-0.1,0.3c0,0.1-0.1,0.1-0.1,0.2c0,0.1-0.1,0.1-0.1,0.1c0,0.1-0.1,0.1-0.1,0.1s0,0.1-0.1,0.1v-1.7
			L52,74.7L52,74.7L52,74.7z"/>
		
			<linearGradient id="SVGID_20_" gradientUnits="userSpaceOnUse" x1="10.3013" y1="38.5331" x2="84.5136" y2="37.8079" gradientTransform="matrix(1 0 0 -1 0 116)">
			<stop  offset="0" style="stop-color:#AA68FF"/>
			<stop  offset="0.9957" style="stop-color:#E96FFE"/>
		</linearGradient>
		<path class="st19" d="M63.4,74.7v6.5H48.9c0.1,0,0.1-0.1,0.1-0.1l0,0c0.1-0.1,0.2-0.1,0.3-0.2l0.1-0.1l0,0l0,0
			c0.1-0.1,0.1-0.1,0.2-0.1c0.1,0,0.1-0.1,0.1-0.1l0,0h0.1c0.1,0,0.1-0.1,0.1-0.1l0.1-0.1l0,0l0,0c0.1-0.1,0.1-0.1,0.1-0.1l0.1-0.1
			l0,0h0.1c0.1-0.1,0.1-0.1,0.1-0.1s0.1-0.1,0.2-0.2l0,0l0,0l0.1-0.1c0.3-0.3,0.6-0.6,0.8-0.9l0,0l0.1-0.1c0.9-1.2,1.6-2.5,2-3.8
			L63.4,74.7L63.4,74.7z"/>
		<g>
			
				<linearGradient id="SVGID_21_" gradientUnits="userSpaceOnUse" x1="127.6595" y1="27.8187" x2="32.5412" y2="88.1769" gradientTransform="matrix(1 0 0 -1 0 116)">
				<stop  offset="0" style="stop-color:#AA68FF"/>
				<stop  offset="0.9957" style="stop-color:#E96FFE"/>
			</linearGradient>
			<path class="st20" d="M67.6,49.6h-1.3l0,0H67.6L67.6,49.6z"/>
			
				<linearGradient id="SVGID_22_" gradientUnits="userSpaceOnUse" x1="128.4298" y1="29.0325" x2="33.3115" y2="89.3909" gradientTransform="matrix(1 0 0 -1 0 116)">
				<stop  offset="0" style="stop-color:#AA68FF"/>
				<stop  offset="0.9957" style="stop-color:#E96FFE"/>
			</linearGradient>
			<path class="st21" d="M70.2,49.6h-1.3l0,0H70.2L70.2,49.6z"/>
		</g>
		<g>
			
				<linearGradient id="SVGID_23_" gradientUnits="userSpaceOnUse" x1="-13.9749" y1="65.063" x2="71.7573" y2="65.063" gradientTransform="matrix(1 0 0 -1 0 116)">
				<stop  offset="0" style="stop-color:#AA68FF"/>
				<stop  offset="0.9957" style="stop-color:#E96FFE"/>
			</linearGradient>
			<circle class="st22" cx="58.8" cy="50.9" r="1.7"/>
		</g>
	</g>
	<polygon class="st23" points="89.2,38.2 54,17.1 19.9,37 19.9,76.9 	"/>
</g>
<defs>
	<filter id="Adobe_OpacityMaskFilter" filterUnits="userSpaceOnUse" x="-95.7" y="-57.2" width="301.9" height="229.2">
		<feColorMatrix  type="matrix" values="1 0 0 0 0  0 1 0 0 0  0 0 1 0 0  0 0 0 1 0"/>
	</filter>
</defs>
<mask maskUnits="userSpaceOnUse" x="-95.7" y="-57.2" width="301.9" height="229.2" id="SVGID_24_">
	<g class="st24">
		<polygon class="st25" points="85.3,85.2 45.2,97.9 14.2,69.5 23.2,28.5 63.3,15.8 94.3,44.2 		"/>
	</g>
</mask>
<g class="st26">
	<g>
		
			<linearGradient id="SVGID_25_" gradientUnits="userSpaceOnUse" x1="1258.8094" y1="546.3333" x2="1258.8094" y2="293.0498" gradientTransform="matrix(-0.2152 0.9766 0.9766 0.2152 -184.5574 -1258.1459)">
			<stop  offset="0" style="stop-color:#6B6B6B"/>
			<stop  offset="3.102066e-02" style="stop-color:#717171"/>
			<stop  offset="7.308919e-02" style="stop-color:#828282"/>
			<stop  offset="0.1215" style="stop-color:#9F9F9F"/>
			<stop  offset="0.1746" style="stop-color:#C7C7C7"/>
			<stop  offset="0.231" style="stop-color:#F9F9F9"/>
			<stop  offset="0.2373" style="stop-color:#FFFFFF"/>
			<stop  offset="0.5478" style="stop-color:#A3A3A3"/>
			<stop  offset="0.5492" style="stop-color:#FFFFFF"/>
			<stop  offset="0.6776" style="stop-color:#F2F2F2"/>
			<stop  offset="0.8182" style="stop-color:#DEDEDE"/>
			<stop  offset="0.8904" style="stop-color:#CBCBCB"/>
			<stop  offset="1" style="stop-color:#A7A7A7"/>
		</linearGradient>
		<polygon class="st27" points="-56.5,171.7 205.9,4 206.2,4.4 -56.3,172.1 		"/>
	</g>
	<g>
		
			<linearGradient id="SVGID_26_" gradientUnits="userSpaceOnUse" x1="1255.2095" y1="546.3333" x2="1255.2095" y2="293.0498" gradientTransform="matrix(-0.2152 0.9766 0.9766 0.2152 -184.5574 -1258.1459)">
			<stop  offset="0" style="stop-color:#6B6B6B"/>
			<stop  offset="3.102066e-02" style="stop-color:#717171"/>
			<stop  offset="7.308919e-02" style="stop-color:#828282"/>
			<stop  offset="0.1215" style="stop-color:#9F9F9F"/>
			<stop  offset="0.1746" style="stop-color:#C7C7C7"/>
			<stop  offset="0.231" style="stop-color:#F9F9F9"/>
			<stop  offset="0.2373" style="stop-color:#FFFFFF"/>
			<stop  offset="0.5478" style="stop-color:#A3A3A3"/>
			<stop  offset="0.5492" style="stop-color:#FFFFFF"/>
			<stop  offset="0.6776" style="stop-color:#F2F2F2"/>
			<stop  offset="0.8182" style="stop-color:#DEDEDE"/>
			<stop  offset="0.8904" style="stop-color:#CBCBCB"/>
			<stop  offset="1" style="stop-color:#A7A7A7"/>
		</linearGradient>
		<polygon class="st28" points="-59.3,167.3 203.2,-0.3 203.4,0 -59.1,167.8 		"/>
	</g>
	<g>
		
			<linearGradient id="SVGID_27_" gradientUnits="userSpaceOnUse" x1="1251.5095" y1="546.3333" x2="1251.5095" y2="293.0498" gradientTransform="matrix(-0.2152 0.9766 0.9766 0.2152 -184.5574 -1258.1459)">
			<stop  offset="0" style="stop-color:#6B6B6B"/>
			<stop  offset="3.102066e-02" style="stop-color:#717171"/>
			<stop  offset="7.308919e-02" style="stop-color:#828282"/>
			<stop  offset="0.1215" style="stop-color:#9F9F9F"/>
			<stop  offset="0.1746" style="stop-color:#C7C7C7"/>
			<stop  offset="0.231" style="stop-color:#F9F9F9"/>
			<stop  offset="0.2373" style="stop-color:#FFFFFF"/>
			<stop  offset="0.5478" style="stop-color:#A3A3A3"/>
			<stop  offset="0.5492" style="stop-color:#FFFFFF"/>
			<stop  offset="0.6776" style="stop-color:#F2F2F2"/>
			<stop  offset="0.8182" style="stop-color:#DEDEDE"/>
			<stop  offset="0.8904" style="stop-color:#CBCBCB"/>
			<stop  offset="1" style="stop-color:#A7A7A7"/>
		</linearGradient>
		<polygon class="st29" points="-62.2,163 200.4,-4.7 200.6,-4.4 -61.8,163.4 		"/>
	</g>
	<g>
		
			<linearGradient id="SVGID_28_" gradientUnits="userSpaceOnUse" x1="1247.8094" y1="546.3333" x2="1247.8094" y2="293.0498" gradientTransform="matrix(-0.2152 0.9766 0.9766 0.2152 -184.5574 -1258.1459)">
			<stop  offset="0" style="stop-color:#6B6B6B"/>
			<stop  offset="3.102066e-02" style="stop-color:#717171"/>
			<stop  offset="7.308919e-02" style="stop-color:#828282"/>
			<stop  offset="0.1215" style="stop-color:#9F9F9F"/>
			<stop  offset="0.1746" style="stop-color:#C7C7C7"/>
			<stop  offset="0.231" style="stop-color:#F9F9F9"/>
			<stop  offset="0.2373" style="stop-color:#FFFFFF"/>
			<stop  offset="0.5478" style="stop-color:#A3A3A3"/>
			<stop  offset="0.5492" style="stop-color:#FFFFFF"/>
			<stop  offset="0.6776" style="stop-color:#F2F2F2"/>
			<stop  offset="0.8182" style="stop-color:#DEDEDE"/>
			<stop  offset="0.8904" style="stop-color:#CBCBCB"/>
			<stop  offset="1" style="stop-color:#A7A7A7"/>
		</linearGradient>
		<polygon class="st30" points="-64.9,158.6 197.6,-9.1 197.9,-8.7 -64.7,159 		"/>
	</g>
	<g>
		
			<linearGradient id="SVGID_29_" gradientUnits="userSpaceOnUse" x1="1244.2095" y1="546.3333" x2="1244.2095" y2="293.0498" gradientTransform="matrix(-0.2152 0.9766 0.9766 0.2152 -184.5574 -1258.1459)">
			<stop  offset="0" style="stop-color:#6B6B6B"/>
			<stop  offset="3.102066e-02" style="stop-color:#717171"/>
			<stop  offset="7.308919e-02" style="stop-color:#828282"/>
			<stop  offset="0.1215" style="stop-color:#9F9F9F"/>
			<stop  offset="0.1746" style="stop-color:#C7C7C7"/>
			<stop  offset="0.231" style="stop-color:#F9F9F9"/>
			<stop  offset="0.2373" style="stop-color:#FFFFFF"/>
			<stop  offset="0.5478" style="stop-color:#A3A3A3"/>
			<stop  offset="0.5492" style="stop-color:#FFFFFF"/>
			<stop  offset="0.6776" style="stop-color:#F2F2F2"/>
			<stop  offset="0.8182" style="stop-color:#DEDEDE"/>
			<stop  offset="0.8904" style="stop-color:#CBCBCB"/>
			<stop  offset="1" style="stop-color:#A7A7A7"/>
		</linearGradient>
		<polygon class="st31" points="-67.7,154.2 194.8,-13.4 195.1,-13.1 -67.5,154.7 		"/>
	</g>
	<g>
		
			<linearGradient id="SVGID_30_" gradientUnits="userSpaceOnUse" x1="1240.5095" y1="546.3333" x2="1240.5095" y2="293.0498" gradientTransform="matrix(-0.2152 0.9766 0.9766 0.2152 -184.5574 -1258.1459)">
			<stop  offset="0" style="stop-color:#6B6B6B"/>
			<stop  offset="3.102066e-02" style="stop-color:#717171"/>
			<stop  offset="7.308919e-02" style="stop-color:#828282"/>
			<stop  offset="0.1215" style="stop-color:#9F9F9F"/>
			<stop  offset="0.1746" style="stop-color:#C7C7C7"/>
			<stop  offset="0.231" style="stop-color:#F9F9F9"/>
			<stop  offset="0.2373" style="stop-color:#FFFFFF"/>
			<stop  offset="0.5478" style="stop-color:#A3A3A3"/>
			<stop  offset="0.5492" style="stop-color:#FFFFFF"/>
			<stop  offset="0.6776" style="stop-color:#F2F2F2"/>
			<stop  offset="0.8182" style="stop-color:#DEDEDE"/>
			<stop  offset="0.8904" style="stop-color:#CBCBCB"/>
			<stop  offset="1" style="stop-color:#A7A7A7"/>
		</linearGradient>
		<polygon class="st32" points="-70.5,149.9 192,-17.8 192.2,-17.5 -70.2,150.3 		"/>
	</g>
	<g>
		
			<linearGradient id="SVGID_31_" gradientUnits="userSpaceOnUse" x1="1236.8094" y1="546.3333" x2="1236.8094" y2="293.0498" gradientTransform="matrix(-0.2152 0.9766 0.9766 0.2152 -184.5574 -1258.1459)">
			<stop  offset="0" style="stop-color:#6B6B6B"/>
			<stop  offset="3.102066e-02" style="stop-color:#717171"/>
			<stop  offset="7.308919e-02" style="stop-color:#828282"/>
			<stop  offset="0.1215" style="stop-color:#9F9F9F"/>
			<stop  offset="0.1746" style="stop-color:#C7C7C7"/>
			<stop  offset="0.231" style="stop-color:#F9F9F9"/>
			<stop  offset="0.2373" style="stop-color:#FFFFFF"/>
			<stop  offset="0.5478" style="stop-color:#A3A3A3"/>
			<stop  offset="0.5492" style="stop-color:#FFFFFF"/>
			<stop  offset="0.6776" style="stop-color:#F2F2F2"/>
			<stop  offset="0.8182" style="stop-color:#DEDEDE"/>
			<stop  offset="0.8904" style="stop-color:#CBCBCB"/>
			<stop  offset="1" style="stop-color:#A7A7A7"/>
		</linearGradient>
		<polygon class="st33" points="-73.3,145.5 189.2,-22.3 189.5,-21.8 -73,145.9 		"/>
	</g>
	<g>
		
			<linearGradient id="SVGID_32_" gradientUnits="userSpaceOnUse" x1="1233.2095" y1="546.3333" x2="1233.2095" y2="293.0498" gradientTransform="matrix(-0.2152 0.9766 0.9766 0.2152 -184.5574 -1258.1459)">
			<stop  offset="0" style="stop-color:#6B6B6B"/>
			<stop  offset="3.102066e-02" style="stop-color:#717171"/>
			<stop  offset="7.308919e-02" style="stop-color:#828282"/>
			<stop  offset="0.1215" style="stop-color:#9F9F9F"/>
			<stop  offset="0.1746" style="stop-color:#C7C7C7"/>
			<stop  offset="0.231" style="stop-color:#F9F9F9"/>
			<stop  offset="0.2373" style="stop-color:#FFFFFF"/>
			<stop  offset="0.5478" style="stop-color:#A3A3A3"/>
			<stop  offset="0.5492" style="stop-color:#FFFFFF"/>
			<stop  offset="0.6776" style="stop-color:#F2F2F2"/>
			<stop  offset="0.8182" style="stop-color:#DEDEDE"/>
			<stop  offset="0.8904" style="stop-color:#CBCBCB"/>
			<stop  offset="1" style="stop-color:#A7A7A7"/>
		</linearGradient>
		<polygon class="st34" points="-76.1,141.1 186.4,-26.5 186.7,-26.2 -75.9,141.5 		"/>
	</g>
	<g>
		
			<linearGradient id="SVGID_33_" gradientUnits="userSpaceOnUse" x1="1229.5095" y1="546.3333" x2="1229.5095" y2="293.0498" gradientTransform="matrix(-0.2152 0.9766 0.9766 0.2152 -184.5574 -1258.1459)">
			<stop  offset="0" style="stop-color:#6B6B6B"/>
			<stop  offset="3.102066e-02" style="stop-color:#717171"/>
			<stop  offset="7.308919e-02" style="stop-color:#828282"/>
			<stop  offset="0.1215" style="stop-color:#9F9F9F"/>
			<stop  offset="0.1746" style="stop-color:#C7C7C7"/>
			<stop  offset="0.231" style="stop-color:#F9F9F9"/>
			<stop  offset="0.2373" style="stop-color:#FFFFFF"/>
			<stop  offset="0.5478" style="stop-color:#A3A3A3"/>
			<stop  offset="0.5492" style="stop-color:#FFFFFF"/>
			<stop  offset="0.6776" style="stop-color:#F2F2F2"/>
			<stop  offset="0.8182" style="stop-color:#DEDEDE"/>
			<stop  offset="0.8904" style="stop-color:#CBCBCB"/>
			<stop  offset="1" style="stop-color:#A7A7A7"/>
		</linearGradient>
		<polygon class="st35" points="-78.9,136.8 183.6,-31 183.9,-30.6 -78.6,137.2 		"/>
	</g>
	<g>
		
			<linearGradient id="SVGID_34_" gradientUnits="userSpaceOnUse" x1="1225.8094" y1="546.3333" x2="1225.8094" y2="293.0498" gradientTransform="matrix(-0.2152 0.9766 0.9766 0.2152 -184.5574 -1258.1459)">
			<stop  offset="0" style="stop-color:#6B6B6B"/>
			<stop  offset="3.102066e-02" style="stop-color:#717171"/>
			<stop  offset="7.308919e-02" style="stop-color:#828282"/>
			<stop  offset="0.1215" style="stop-color:#9F9F9F"/>
			<stop  offset="0.1746" style="stop-color:#C7C7C7"/>
			<stop  offset="0.231" style="stop-color:#F9F9F9"/>
			<stop  offset="0.2373" style="stop-color:#FFFFFF"/>
			<stop  offset="0.5478" style="stop-color:#A3A3A3"/>
			<stop  offset="0.5492" style="stop-color:#FFFFFF"/>
			<stop  offset="0.6776" style="stop-color:#F2F2F2"/>
			<stop  offset="0.8182" style="stop-color:#DEDEDE"/>
			<stop  offset="0.8904" style="stop-color:#CBCBCB"/>
			<stop  offset="1" style="stop-color:#A7A7A7"/>
		</linearGradient>
		<polygon class="st36" points="-81.6,132.4 180.8,-35.4 181.1,-34.9 -81.4,132.7 		"/>
	</g>
	<g>
		
			<linearGradient id="SVGID_35_" gradientUnits="userSpaceOnUse" x1="1222.2095" y1="546.3333" x2="1222.2095" y2="293.0498" gradientTransform="matrix(-0.2152 0.9766 0.9766 0.2152 -184.5574 -1258.1459)">
			<stop  offset="0" style="stop-color:#6B6B6B"/>
			<stop  offset="3.102066e-02" style="stop-color:#717171"/>
			<stop  offset="7.308919e-02" style="stop-color:#828282"/>
			<stop  offset="0.1215" style="stop-color:#9F9F9F"/>
			<stop  offset="0.1746" style="stop-color:#C7C7C7"/>
			<stop  offset="0.231" style="stop-color:#F9F9F9"/>
			<stop  offset="0.2373" style="stop-color:#FFFFFF"/>
			<stop  offset="0.5478" style="stop-color:#A3A3A3"/>
			<stop  offset="0.5492" style="stop-color:#FFFFFF"/>
			<stop  offset="0.6776" style="stop-color:#F2F2F2"/>
			<stop  offset="0.8182" style="stop-color:#DEDEDE"/>
			<stop  offset="0.8904" style="stop-color:#CBCBCB"/>
			<stop  offset="1" style="stop-color:#A7A7A7"/>
		</linearGradient>
		<polygon class="st37" points="-84.5,128 178.1,-39.7 178.3,-39.3 -84.2,128.4 		"/>
	</g>
	<g>
		
			<linearGradient id="SVGID_36_" gradientUnits="userSpaceOnUse" x1="1218.5095" y1="546.3333" x2="1218.5095" y2="293.0498" gradientTransform="matrix(-0.2152 0.9766 0.9766 0.2152 -184.5574 -1258.1459)">
			<stop  offset="0" style="stop-color:#6B6B6B"/>
			<stop  offset="3.102066e-02" style="stop-color:#717171"/>
			<stop  offset="7.308919e-02" style="stop-color:#828282"/>
			<stop  offset="0.1215" style="stop-color:#9F9F9F"/>
			<stop  offset="0.1746" style="stop-color:#C7C7C7"/>
			<stop  offset="0.231" style="stop-color:#F9F9F9"/>
			<stop  offset="0.2373" style="stop-color:#FFFFFF"/>
			<stop  offset="0.5478" style="stop-color:#A3A3A3"/>
			<stop  offset="0.5492" style="stop-color:#FFFFFF"/>
			<stop  offset="0.6776" style="stop-color:#F2F2F2"/>
			<stop  offset="0.8182" style="stop-color:#DEDEDE"/>
			<stop  offset="0.8904" style="stop-color:#CBCBCB"/>
			<stop  offset="1" style="stop-color:#A7A7A7"/>
		</linearGradient>
		<polygon class="st38" points="-87.3,123.7 175.3,-44.1 175.5,-43.7 -87,124 		"/>
	</g>
	<g>
		
			<linearGradient id="SVGID_37_" gradientUnits="userSpaceOnUse" x1="1214.8094" y1="546.3333" x2="1214.8094" y2="293.0498" gradientTransform="matrix(-0.2152 0.9766 0.9766 0.2152 -184.5574 -1258.1459)">
			<stop  offset="0" style="stop-color:#6B6B6B"/>
			<stop  offset="3.102066e-02" style="stop-color:#717171"/>
			<stop  offset="7.308919e-02" style="stop-color:#828282"/>
			<stop  offset="0.1215" style="stop-color:#9F9F9F"/>
			<stop  offset="0.1746" style="stop-color:#C7C7C7"/>
			<stop  offset="0.231" style="stop-color:#F9F9F9"/>
			<stop  offset="0.2373" style="stop-color:#FFFFFF"/>
			<stop  offset="0.5478" style="stop-color:#A3A3A3"/>
			<stop  offset="0.5492" style="stop-color:#FFFFFF"/>
			<stop  offset="0.6776" style="stop-color:#F2F2F2"/>
			<stop  offset="0.8182" style="stop-color:#DEDEDE"/>
			<stop  offset="0.8904" style="stop-color:#CBCBCB"/>
			<stop  offset="1" style="stop-color:#A7A7A7"/>
		</linearGradient>
		<polygon class="st39" points="-90,119.3 172.4,-48.5 172.7,-48 -89.8,119.6 		"/>
	</g>
	<g>
		
			<linearGradient id="SVGID_38_" gradientUnits="userSpaceOnUse" x1="1211.2095" y1="546.3333" x2="1211.2095" y2="293.0498" gradientTransform="matrix(-0.2152 0.9766 0.9766 0.2152 -184.5574 -1258.1459)">
			<stop  offset="0" style="stop-color:#6B6B6B"/>
			<stop  offset="3.102066e-02" style="stop-color:#717171"/>
			<stop  offset="7.308919e-02" style="stop-color:#828282"/>
			<stop  offset="0.1215" style="stop-color:#9F9F9F"/>
			<stop  offset="0.1746" style="stop-color:#C7C7C7"/>
			<stop  offset="0.231" style="stop-color:#F9F9F9"/>
			<stop  offset="0.2373" style="stop-color:#FFFFFF"/>
			<stop  offset="0.5478" style="stop-color:#A3A3A3"/>
			<stop  offset="0.5492" style="stop-color:#FFFFFF"/>
			<stop  offset="0.6776" style="stop-color:#F2F2F2"/>
			<stop  offset="0.8182" style="stop-color:#DEDEDE"/>
			<stop  offset="0.8904" style="stop-color:#CBCBCB"/>
			<stop  offset="1" style="stop-color:#A7A7A7"/>
		</linearGradient>
		<polygon class="st40" points="-92.8,114.9 169.7,-52.8 169.9,-52.4 -92.6,115.3 		"/>
	</g>
	<g>
		
			<linearGradient id="SVGID_39_" gradientUnits="userSpaceOnUse" x1="1207.5095" y1="546.3333" x2="1207.5095" y2="293.0498" gradientTransform="matrix(-0.2152 0.9766 0.9766 0.2152 -184.5574 -1258.1459)">
			<stop  offset="0" style="stop-color:#6B6B6B"/>
			<stop  offset="3.102066e-02" style="stop-color:#717171"/>
			<stop  offset="7.308919e-02" style="stop-color:#828282"/>
			<stop  offset="0.1215" style="stop-color:#9F9F9F"/>
			<stop  offset="0.1746" style="stop-color:#C7C7C7"/>
			<stop  offset="0.231" style="stop-color:#F9F9F9"/>
			<stop  offset="0.2373" style="stop-color:#FFFFFF"/>
			<stop  offset="0.5478" style="stop-color:#A3A3A3"/>
			<stop  offset="0.5492" style="stop-color:#FFFFFF"/>
			<stop  offset="0.6776" style="stop-color:#F2F2F2"/>
			<stop  offset="0.8182" style="stop-color:#DEDEDE"/>
			<stop  offset="0.8904" style="stop-color:#CBCBCB"/>
			<stop  offset="1" style="stop-color:#A7A7A7"/>
		</linearGradient>
		<polygon class="st41" points="-95.7,110.6 166.9,-57.2 167.1,-56.8 -95.3,110.9 		"/>
	</g>
</g>
<linearGradient id="SVGID_40_" gradientUnits="userSpaceOnUse" x1="-576.5669" y1="-685.5609" x2="-576.5669" y2="-685.5609" gradientTransform="matrix(0.5591 -0.8291 -0.8291 -0.5591 -35.64 -844.4287)">
	<stop  offset="0" style="stop-color:#AA68FF"/>
	<stop  offset="0.9957" style="stop-color:#E96FFE"/>
</linearGradient>
<path class="st42" d="M210.4,16.9"/>
</svg>
